  0
SECTION
  2
HEADER
  9
$ACADVER
  1
AC1027
  9
$ACADMAINTVER
 70
   105
  9
$DWGCODEPAGE
  3
ANSI_1252
  9
$LASTSAVEDBY
  1
tobia
  9
$REQUIREDVERSIONS
160
                 0
  9
$INSBASE
 10
0.0
 20
0.0
 30
0.0
  9
$EXTMIN
 10
0.0
 20
0.0
 30
0.0
  9
$EXTMAX
 10
748.7
 20
313.25
 30
0.0
  9
$LIMMIN
 10
0.0
 20
0.0
  9
$LIMMAX
 10
12.0
 20
9.0
  9
$ORTHOMODE
 70
     0
  9
$REGENMODE
 70
     1
  9
$FILLMODE
 70
     1
  9
$QTEXTMODE
 70
     0
  9
$MIRRTEXT
 70
     1
  9
$LTSCALE
 40
1.0
  9
$ATTMODE
 70
     1
  9
$TEXTSIZE
 40
0.2
  9
$TRACEWID
 40
0.05
  9
$TEXTSTYLE
  7
Standard
  9
$CLAYER
  8
0
  9
$CELTYPE
  6
ByLayer
  9
$CECOLOR
 62
   256
  9
$CELTSCALE
 40
1.0
  9
$DISPSILH
 70
     0
  9
$DIMSCALE
 40
1.0
  9
$DIMASZ
 40
0.18
  9
$DIMEXO
 40
0.0625
  9
$DIMDLI
 40
0.38
  9
$DIMRND
 40
0.0
  9
$DIMDLE
 40
0.0
  9
$DIMEXE
 40
0.18
  9
$DIMTP
 40
0.0
  9
$DIMTM
 40
0.0
  9
$DIMTXT
 40
0.18
  9
$DIMCEN
 40
0.09
  9
$DIMTSZ
 40
0.0
  9
$DIMTOL
 70
     0
  9
$DIMLIM
 70
     0
  9
$DIMTIH
 70
     1
  9
$DIMTOH
 70
     1
  9
$DIMSE1
 70
     0
  9
$DIMSE2
 70
     0
  9
$DIMTAD
 70
     0
  9
$DIMZIN
 70
     0
  9
$DIMBLK
  1

  9
$DIMASO
 70
     1
  9
$DIMSHO
 70
     1
  9
$DIMPOST
  1

  9
$DIMAPOST
  1

  9
$DIMALT
 70
     0
  9
$DIMALTD
 70
     2
  9
$DIMALTF
 40
25.4
  9
$DIMLFAC
 40
1.0
  9
$DIMTOFL
 70
     0
  9
$DIMTVP
 40
0.0
  9
$DIMTIX
 70
     0
  9
$DIMSOXD
 70
     0
  9
$DIMSAH
 70
     0
  9
$DIMBLK1
  1

  9
$DIMBLK2
  1

  9
$DIMSTYLE
  2
Standard
  9
$DIMCLRD
 70
     0
  9
$DIMCLRE
 70
     0
  9
$DIMCLRT
 70
     0
  9
$DIMTFAC
 40
1.0
  9
$DIMGAP
 40
0.09
  9
$DIMJUST
 70
     0
  9
$DIMSD1
 70
     0
  9
$DIMSD2
 70
     0
  9
$DIMTOLJ
 70
     1
  9
$DIMTZIN
 70
     0
  9
$DIMALTZ
 70
     0
  9
$DIMALTTZ
 70
     0
  9
$DIMUPT
 70
     0
  9
$DIMDEC
 70
     4
  9
$DIMTDEC
 70
     4
  9
$DIMALTU
 70
     2
  9
$DIMALTTD
 70
     2
  9
$DIMTXSTY
  7
Standard
  9
$DIMAUNIT
 70
     0
  9
$DIMADEC
 70
     0
  9
$DIMALTRND
 40
0.0
  9
$DIMAZIN
 70
     0
  9
$DIMDSEP
 70
    46
  9
$DIMATFIT
 70
     3
  9
$DIMFRAC
 70
     0
  9
$DIMLDRBLK
  1

  9
$DIMLUNIT
 70
     2
  9
$DIMLWD
 70
    -2
  9
$DIMLWE
 70
    -2
  9
$DIMTMOVE
 70
     0
  9
$DIMFXL
 40
1.0
  9
$DIMFXLON
 70
     0
  9
$DIMJOGANG
 40
0.7853981633974483
  9
$DIMTFILL
 70
     0
  9
$DIMTFILLCLR
 70
     0
  9
$DIMARCSYM
 70
     0
  9
$DIMLTYPE
  6

  9
$DIMLTEX1
  6

  9
$DIMLTEX2
  6

  9
$DIMTXTDIRECTION
 70
     0
  9
$LUNITS
 70
     2
  9
$LUPREC
 70
     4
  9
$SKETCHINC
 40
0.1
  9
$FILLETRAD
 40
0.0
  9
$AUNITS
 70
     0
  9
$AUPREC
 70
     0
  9
$MENU
  1
.
  9
$ELEVATION
 40
0.0
  9
$PELEVATION
 40
0.0
  9
$THICKNESS
 40
0.0
  9
$LIMCHECK
 70
     0
  9
$CHAMFERA
 40
0.0
  9
$CHAMFERB
 40
0.0
  9
$CHAMFERC
 40
0.0
  9
$CHAMFERD
 40
0.0
  9
$SKPOLY
 70
     0
  9
$TDCREATE
 40
2460624.802205081
  9
$TDUCREATE
 40
2460624.718871748
  9
$TDUPDATE
 40
2460624.802205718
  9
$TDUUPDATE
 40
2460624.718872384
  9
$TDINDWG
 40
0.0000000116
  9
$TDUSRTIMER
 40
0.0000000116
  9
$USRTIMER
 70
     1
  9
$ANGBASE
 50
0.0
  9
$ANGDIR
 70
     0
  9
$PDMODE
 70
     0
  9
$PDSIZE
 40
0.0
  9
$PLINEWID
 40
0.0
  9
$SPLFRAME
 70
     0
  9
$SPLINETYPE
 70
     6
  9
$SPLINESEGS
 70
     8
  9
$HANDSEED
  5
43F
  9
$SURFTAB1
 70
     6
  9
$SURFTAB2
 70
     6
  9
$SURFTYPE
 70
     6
  9
$SURFU
 70
     6
  9
$SURFV
 70
     6
  9
$UCSBASE
  2

  9
$UCSNAME
  2

  9
$UCSORG
 10
0.0
 20
0.0
 30
0.0
  9
$UCSXDIR
 10
1.0
 20
0.0
 30
0.0
  9
$UCSYDIR
 10
0.0
 20
1.0
 30
0.0
  9
$UCSORTHOREF
  2

  9
$UCSORTHOVIEW
 70
     0
  9
$UCSORGTOP
 10
0.0
 20
0.0
 30
0.0
  9
$UCSORGBOTTOM
 10
0.0
 20
0.0
 30
0.0
  9
$UCSORGLEFT
 10
0.0
 20
0.0
 30
0.0
  9
$UCSORGRIGHT
 10
0.0
 20
0.0
 30
0.0
  9
$UCSORGFRONT
 10
0.0
 20
0.0
 30
0.0
  9
$UCSORGBACK
 10
0.0
 20
0.0
 30
0.0
  9
$PUCSBASE
  2

  9
$PUCSNAME
  2

  9
$PUCSORG
 10
0.0
 20
0.0
 30
0.0
  9
$PUCSXDIR
 10
1.0
 20
0.0
 30
0.0
  9
$PUCSYDIR
 10
0.0
 20
1.0
 30
0.0
  9
$PUCSORTHOREF
  2

  9
$PUCSORTHOVIEW
 70
     0
  9
$PUCSORGTOP
 10
0.0
 20
0.0
 30
0.0
  9
$PUCSORGBOTTOM
 10
0.0
 20
0.0
 30
0.0
  9
$PUCSORGLEFT
 10
0.0
 20
0.0
 30
0.0
  9
$PUCSORGRIGHT
 10
0.0
 20
0.0
 30
0.0
  9
$PUCSORGFRONT
 10
0.0
 20
0.0
 30
0.0
  9
$PUCSORGBACK
 10
0.0
 20
0.0
 30
0.0
  9
$USERI1
 70
     0
  9
$USERI2
 70
     0
  9
$USERI3
 70
     0
  9
$USERI4
 70
     0
  9
$USERI5
 70
     0
  9
$USERR1
 40
0.0
  9
$USERR2
 40
0.0
  9
$USERR3
 40
0.0
  9
$USERR4
 40
0.0
  9
$USERR5
 40
0.0
  9
$WORLDVIEW
 70
     1
  9
$SHADEDGE
 70
     3
  9
$SHADEDIF
 70
    70
  9
$TILEMODE
 70
     1
  9
$MAXACTVP
 70
    64
  9
$PINSBASE
 10
0.0
 20
0.0
 30
0.0
  9
$PLIMCHECK
 70
     0
  9
$PEXTMIN
 10
1.000000000000000E+20
 20
1.000000000000000E+20
 30
1.000000000000000E+20
  9
$PEXTMAX
 10
-1.000000000000000E+20
 20
-1.000000000000000E+20
 30
-1.000000000000000E+20
  9
$PLIMMIN
 10
-20.0
 20
-7.5
  9
$PLIMMAX
 10
277.0
 20
202.5
  9
$UNITMODE
 70
     0
  9
$VISRETAIN
 70
     1
  9
$PLINEGEN
 70
     0
  9
$PSLTSCALE
 70
     1
  9
$TREEDEPTH
 70
  3020
  9
$CMLSTYLE
  2
Standard
  9
$CMLJUST
 70
     0
  9
$CMLSCALE
 40
1.0
  9
$PROXYGRAPHICS
 70
     1
  9
$MEASUREMENT
 70
     1
  9
$CELWEIGHT
370
    -1
  9
$ENDCAPS
280
     0
  9
$JOINSTYLE
280
     0
  9
$LWDISPLAY
290
     0
  9
$INSUNITS
 70
     4
  9
$HYPERLINKBASE
  1

  9
$STYLESHEET
  1

  9
$XEDIT
290
     1
  9
$CEPSNTYPE
380
     0
  9
$PSTYLEMODE
290
     1
  9
$FINGERPRINTGUID
  2
{8e309ab5-2126-49b5-8f2a-dfeaafbac182}
  9
$VERSIONGUID
  2
{FAEB1C32-E019-11D5-929B-00C0DF256EC4}
  9
$EXTNAMES
290
     1
  9
$PSVPSCALE
 40
0.0
  9
$OLESTARTUP
290
     0
  9
$SORTENTS
280
   127
  9
$INDEXCTL
280
     0
  9
$HIDETEXT
280
     1
  9
$XCLIPFRAME
280
     2
  9
$HALOGAP
280
     0
  9
$OBSCOLOR
 70
   257
  9
$OBSLTYPE
280
     0
  9
$INTERSECTIONDISPLAY
280
     0
  9
$INTERSECTIONCOLOR
 70
   257
  9
$DIMASSOC
280
     2
  9
$PROJECTNAME
  1

  9
$CAMERADISPLAY
290
     0
  9
$LENSLENGTH
 40
50.0
  9
$CAMERAHEIGHT
 40
0.0
  9
$STEPSPERSEC
 40
2.0
  9
$STEPSIZE
 40
6.0
  9
$3DDWFPREC
 40
2.0
  9
$PSOLWIDTH
 40
0.25
  9
$PSOLHEIGHT
 40
4.0
  9
$LOFTANG1
 40
1.570796326794897
  9
$LOFTANG2
 40
1.570796326794897
  9
$LOFTMAG1
 40
0.0
  9
$LOFTMAG2
 40
0.0
  9
$LOFTPARAM
 70
     7
  9
$LOFTNORMALS
280
     1
  9
$LATITUDE
 40
37.795
  9
$LONGITUDE
 40
-122.394
  9
$NORTHDIRECTION
 40
0.0
  9
$TIMEZONE
 70
 -8000
  9
$LIGHTGLYPHDISPLAY
280
     1
  9
$TILEMODELIGHTSYNCH
280
     1
  9
$CMATERIAL
347
3AB
  9
$SOLIDHIST
280
     0
  9
$SHOWHIST
280
     1
  9
$DWFFRAME
280
     2
  9
$DGNFRAME
280
     2
  9
$REALWORLDSCALE
290
     1
  9
$INTERFERECOLOR
 62
   256
  9
$CSHADOW
280
     0
  9
$SHADOWPLANELOCATION
 40
0.0
  0
ENDSEC
  0
SECTION
  2
CLASSES
  0
CLASS
  1
ACDBDICTIONARYWDFLT
  2
AcDbDictionaryWithDefault
  3
ObjectDBX Classes
 90
        0
 91
        3
280
     0
281
     0
  0
CLASS
  1
VISUALSTYLE
  2
AcDbVisualStyle
  3
ObjectDBX Classes
 90
     4095
 91
        3
280
     0
281
     0
  0
CLASS
  1
MATERIAL
  2
AcDbMaterial
  3
ObjectDBX Classes
 90
     1153
 91
        3
280
     0
281
     0
  0
CLASS
  1
SCALE
  2
AcDbScale
  3
ObjectDBX Classes
 90
     1153
 91
        3
280
     0
281
     0
  0
CLASS
  1
TABLESTYLE
  2
AcDbTableStyle
  3
ObjectDBX Classes
 90
     4095
 91
        3
280
     0
281
     0
  0
CLASS
  1
MLEADERSTYLE
  2
AcDbMLeaderStyle
  3
ACDB_MLEADERSTYLE_CLASS
 90
     4095
 91
        3
280
     0
281
     0
  0
CLASS
  1
SUN
  2
AcDbSun
  3
SCENEOE
 90
     1153
 91
        3
280
     0
281
     0
  0
CLASS
  1
RASTERVARIABLES
  2
AcDbRasterVariables
  3
ISM
 90
        0
 91
        3
280
     0
281
     0
  0
CLASS
  1
DICTIONARYVAR
  2
AcDbDictionaryVar
  3
ObjectDBX Classes
 90
        0
 91
        3
280
     0
281
     0
  0
CLASS
  1
CELLSTYLEMAP
  2
AcDbCellStyleMap
  3
ObjectDBX Classes
 90
     1152
 91
        3
280
     0
281
     0
  0
ENDSEC
  0
SECTION
  2
TABLES
  0
TABLE
  2
VPORT
  5
370
330
0
100
AcDbSymbolTable
 70
     1
  0
VPORT
  5
390
330
370
100
AcDbSymbolTableRecord
100
AcDbViewportTableRecord
  2
*Active
 70
     0
 10
0.0
 20
0.0
 11
1.0
 21
1.0
 12
374.35
 22
156.625
 13
0.0
 23
0.0
 14
0.5
 24
0.5
 15
0.5
 25
0.5
 16
0.0
 26
0.0
 36
1.0
 17
0.0
 27
0.0
 37
0.0
 40
429.2138377641446
 41
1.803804994054697
 42
50.0
 43
0.0
 44
0.0
 50
0.0
 51
0.0
 71
     0
 72
   100
 73
     1
 74
     3
 75
     0
 76
     0
 77
     0
 78
     0
281
     0
 65
     1
110
0.0
120
0.0
130
0.0
111
1.0
121
0.0
131
0.0
112
0.0
122
1.0
132
0.0
 79
     0
146
0.0
348
396
 60
     3
 61
     5
292
     1
282
     1
141
0.0
142
0.0
 63
   250
361
3C4
  0
ENDTAB
  0
TABLE
  2
LTYPE
  5
36D
330
0
100
AcDbSymbolTable
 70
    48
  0
LTYPE
  5
37B
330
36D
100
AcDbSymbolTableRecord
100
AcDbLinetypeTableRecord
  2
ByBlock
 70
     0
  3

 72
    65
 73
     0
 40
0.0
  0
LTYPE
  5
37C
330
36D
100
AcDbSymbolTableRecord
100
AcDbLinetypeTableRecord
  2
ByLayer
 70
     0
  3

 72
    65
 73
     0
 40
0.0
  0
LTYPE
  5
37D
330
36D
100
AcDbSymbolTableRecord
100
AcDbLinetypeTableRecord
  2
Continuous
 70
     0
  3
Solid line
 72
    65
 73
     0
 40
0.0
  0
LTYPE
  5
3FF
330
36D
100
AcDbSymbolTableRecord
100
AcDbLinetypeTableRecord
  2
DASHEDX2
 70
     0
  3
Dashed (2x) ____  ____  ____  ____  ____  ___
 72
    65
 73
     2
 40
38.09999999999999
 49
25.4
 74
     0
 49
-12.7
 74
     0
  0
LTYPE
  5
400
330
36D
100
AcDbSymbolTableRecord
100
AcDbLinetypeTableRecord
  2
DIVIDE
 70
     0
  3
Divide ____ . . ____ . . ____ . . ____ . . ____
 72
    65
 73
     6
 40
31.75
 49
12.7
 74
     0
 49
-6.35
 74
     0
 49
0.0
 74
     0
 49
-6.35
 74
     0
 49
0.0
 74
     0
 49
-6.35
 74
     0
  0
LTYPE
  5
401
330
36D
100
AcDbSymbolTableRecord
100
AcDbLinetypeTableRecord
  2
DASHED
 70
     0
  3
Dashed __ __ __ __ __ __ __ __ __ __ __ __ __ _
 72
    65
 73
     2
 40
19.05
 49
12.7
 74
     0
 49
-6.35
 74
     0
  0
LTYPE
  5
402
330
36D
100
AcDbSymbolTableRecord
100
AcDbLinetypeTableRecord
  2
DASHED2
 70
     0
  3
Dashed (.5x) _ _ _ _ _ _ _ _ _ _ _ _ _ _ _ _ _ 
 72
    65
 73
     2
 40
9.524999999999999
 49
6.35
 74
     0
 49
-3.175
 74
     0
  0
LTYPE
  5
403
330
36D
100
AcDbSymbolTableRecord
100
AcDbLinetypeTableRecord
  2
DOT
 70
     0
  3
Dot . . . . . . . . . . . . . . . . . . . . . . . .
 72
    65
 73
     2
 40
6.35
 49
0.0
 74
     0
 49
-6.35
 74
     0
  0
LTYPE
  5
404
330
36D
100
AcDbSymbolTableRecord
100
AcDbLinetypeTableRecord
  2
DOT2
 70
     0
  3
Dot (.5x) ........................................
 72
    65
 73
     2
 40
3.175
 49
0.0
 74
     0
 49
-3.175
 74
     0
  0
LTYPE
  5
405
330
36D
100
AcDbSymbolTableRecord
100
AcDbLinetypeTableRecord
  2
DIVIDE2
 70
     0
  3
Divide (.5x) __..__..__..__..__..__..__..__.._
 72
    65
 73
     6
 40
15.875
 49
6.35
 74
     0
 49
-3.175
 74
     0
 49
0.0
 74
     0
 49
-3.175
 74
     0
 49
0.0
 74
     0
 49
-3.175
 74
     0
  0
LTYPE
  5
406
330
36D
100
AcDbSymbolTableRecord
100
AcDbLinetypeTableRecord
  2
DIVIDEX2
 70
     0
  3
Divide (2x) ________  .  .  ________  .  .  _
 72
    65
 73
     6
 40
63.5
 49
25.4
 74
     0
 49
-12.7
 74
     0
 49
0.0
 74
     0
 49
-12.7
 74
     0
 49
0.0
 74
     0
 49
-12.7
 74
     0
  0
LTYPE
  5
408
330
36D
100
AcDbSymbolTableRecord
100
AcDbLinetypeTableRecord
  2
DRAINAGE2
 70
     0
  3
Drainage reversed----<----<----<----
 72
    65
 73
     2
 40
10.16
 49
5.08
 74
     2
 75
     0
340
407
 46
2.54
 50
0.0
 44
0.0
 45
0.0
  9
RIGHT_ARROW
 49
5.08
 74
     0
  0
LTYPE
  5
40A
330
36D
100
AcDbSymbolTableRecord
100
AcDbLinetypeTableRecord
  2
FENCELINE1
 70
     0
  3
Fenceline circle ----0-----0----0-----0----0-----0--
 72
    65
 73
     4
 40
36.83
 49
6.35
 74
     0
 49
-2.54
 74
     2
 75
     0
340
409
 46
2.54
 50
0.0
 44
-2.54
 45
0.0
  9
CIRC1
 49
-2.54
 74
     0
 49
25.4
 74
     0
  0
LTYPE
  5
40B
330
36D
100
AcDbSymbolTableRecord
100
AcDbLinetypeTableRecord
  2
DOTX2
 70
     0
  3
Dot (2x) .  .  .  .  .  .  .  .  .  .  .  .  .  .
 72
    65
 73
     2
 40
12.7
 49
0.0
 74
     0
 49
-12.7
 74
     0
  0
LTYPE
  5
40C
330
36D
100
AcDbSymbolTableRecord
100
AcDbLinetypeTableRecord
  2
DRAINAGE
 70
     0
  3
Drainage ---->---->---->----
 72
    65
 73
     2
 40
10.16
 49
5.08
 74
     2
 75
     0
340
407
 46
2.54
 50
180.0
 44
0.0
 45
0.0
  9
RIGHT_ARROW
 49
5.08
 74
     0
  0
LTYPE
  5
40D
330
36D
100
AcDbSymbolTableRecord
100
AcDbLinetypeTableRecord
  2
HIDDEN
 70
     0
  3
Hidden __ __ __ __ __ __ __ __ __ __ __ __ __ __
 72
    65
 73
     2
 40
9.524999999999999
 49
6.35
 74
     0
 49
-3.175
 74
     0
  0
LTYPE
  5
40E
330
36D
100
AcDbSymbolTableRecord
100
AcDbLinetypeTableRecord
  2
HIDDEN2
 70
     0
  3
Hidden (.5x) _ _ _ _ _ _ _ _ _ _ _ _ _ _ _ _ _ 
 72
    65
 73
     2
 40
4.762499999999999
 49
3.175
 74
     0
 49
-1.5875
 74
     0
  0
LTYPE
  5
40F
330
36D
100
AcDbSymbolTableRecord
100
AcDbLinetypeTableRecord
  2
FENCELINE2
 70
     0
  3
Fenceline square ----[]-----[]----[]-----[]----[]---
 72
    65
 73
     4
 40
36.83
 49
6.35
 74
     0
 49
-2.54
 74
     2
 75
     0
340
409
 46
2.54
 50
0.0
 44
-2.54
 45
0.0
  9
BOX
 49
-2.54
 74
     0
 49
25.4
 74
     0
  0
LTYPE
  5
411
330
36D
100
AcDbSymbolTableRecord
100
AcDbLinetypeTableRecord
  2
GAS_LINE
 70
     0
  3
Gas line ----GAS----GAS----GAS----GAS----GAS----GAS--
 72
    65
 73
     3
 40
24.13
 49
12.7
 74
     0
 49
-5.08
 74
     2
 75
     0
340
410
 46
2.54
 50
0.0
 44
-2.54
 45
-1.27
  9
GAS
 49
-6.35
 74
     0
  0
LTYPE
  5
412
330
36D
100
AcDbSymbolTableRecord
100
AcDbLinetypeTableRecord
  2
ACAD_ISO12W100
 70
     0
  3
ISO dash double-dot __ . . __ . . __ . . __ . . 
 72
    65
 73
     6
 40
21.0
 49
12.0
 74
     0
 49
-3.0
 74
     0
 49
0.0
 74
     0
 49
-3.0
 74
     0
 49
0.0
 74
     0
 49
-3.0
 74
     0
  0
LTYPE
  5
413
330
36D
100
AcDbSymbolTableRecord
100
AcDbLinetypeTableRecord
  2
ACAD_ISO13W100
 70
     0
  3
ISO double-dash double-dot __ __ . . __ __ . . _
 72
    65
 73
     8
 40
36.0
 49
12.0
 74
     0
 49
-3.0
 74
     0
 49
12.0
 74
     0
 49
-3.0
 74
     0
 49
0.0
 74
     0
 49
-3.0
 74
     0
 49
0.0
 74
     0
 49
-3.0
 74
     0
  0
LTYPE
  5
414
330
36D
100
AcDbSymbolTableRecord
100
AcDbLinetypeTableRecord
  2
ACAD_ISO10W100
 70
     0
  3
ISO dash dot __ . __ . __ . __ . __ . __ . __ . 
 72
    65
 73
     4
 40
18.0
 49
12.0
 74
     0
 49
-3.0
 74
     0
 49
0.0
 74
     0
 49
-3.0
 74
     0
  0
LTYPE
  5
415
330
36D
100
AcDbSymbolTableRecord
100
AcDbLinetypeTableRecord
  2
ACAD_ISO11W100
 70
     0
  3
ISO double-dash dot __ __ . __ __ . __ __ . __ _
 72
    65
 73
     6
 40
33.0
 49
12.0
 74
     0
 49
-3.0
 74
     0
 49
12.0
 74
     0
 49
-3.0
 74
     0
 49
0.0
 74
     0
 49
-3.0
 74
     0
  0
LTYPE
  5
416
330
36D
100
AcDbSymbolTableRecord
100
AcDbLinetypeTableRecord
  2
BATTING
 70
     0
  3
Batting SSSSSSSSSSSSSSSSSSSSSSSSSSSSSSSSSSSSSSSSSSSSSSS
 72
    65
 73
     4
 40
10.16254
 49
0.00254
 74
     0
 49
-2.54
 74
     2
 75
     0
340
409
 46
2.54
 50
0.0
 44
-2.54
 45
0.0
  9
BAT
 49
-5.08
 74
     2
 75
     0
340
409
 46
2.54
 50
180.0
 44
2.54
 45
0.0
  9
BAT
 49
-2.54
 74
     0
  0
LTYPE
  5
417
330
36D
100
AcDbSymbolTableRecord
100
AcDbLinetypeTableRecord
  2
BORDER
 70
     0
  3
Border __ __ . __ __ . __ __ . __ __ . __ __ .
 72
    65
 73
     6
 40
44.45
 49
12.7
 74
     0
 49
-6.35
 74
     0
 49
12.7
 74
     0
 49
-6.35
 74
     0
 49
0.0
 74
     0
 49
-6.35
 74
     0
  0
LTYPE
  5
418
330
36D
100
AcDbSymbolTableRecord
100
AcDbLinetypeTableRecord
  2
ACAD_ISO14W100
 70
     0
  3
ISO dash triple-dot __ . . . __ . . . __ . . . _
 72
    65
 73
     8
 40
24.0
 49
12.0
 74
     0
 49
-3.0
 74
     0
 49
0.0
 74
     0
 49
-3.0
 74
     0
 49
0.0
 74
     0
 49
-3.0
 74
     0
 49
0.0
 74
     0
 49
-3.0
 74
     0
  0
LTYPE
  5
419
330
36D
100
AcDbSymbolTableRecord
100
AcDbLinetypeTableRecord
  2
ACAD_ISO15W100
 70
     0
  3
ISO double-dash triple-dot __ __ . . . __ __ . .
 72
    65
 73
    10
 40
39.0
 49
12.0
 74
     0
 49
-3.0
 74
     0
 49
12.0
 74
     0
 49
-3.0
 74
     0
 49
0.0
 74
     0
 49
-3.0
 74
     0
 49
0.0
 74
     0
 49
-3.0
 74
     0
 49
0.0
 74
     0
 49
-3.0
 74
     0
  0
LTYPE
  5
41A
330
36D
100
AcDbSymbolTableRecord
100
AcDbLinetypeTableRecord
  2
CENTER
 70
     0
  3
Center ____ _ ____ _ ____ _ ____ _ ____ _ ____
 72
    65
 73
     4
 40
50.8
 49
31.75
 74
     0
 49
-6.35
 74
     0
 49
6.35
 74
     0
 49
-6.35
 74
     0
  0
LTYPE
  5
41B
330
36D
100
AcDbSymbolTableRecord
100
AcDbLinetypeTableRecord
  2
CENTER2
 70
     0
  3
Center (.5x) ___ _ ___ _ ___ _ ___ _ ___ _ ___
 72
    65
 73
     4
 40
28.575
 49
19.05
 74
     0
 49
-3.175
 74
     0
 49
3.175
 74
     0
 49
-3.175
 74
     0
  0
LTYPE
  5
41C
330
36D
100
AcDbSymbolTableRecord
100
AcDbLinetypeTableRecord
  2
BORDER2
 70
     0
  3
Border (.5x) __.__.__.__.__.__.__.__.__.__.__.
 72
    65
 73
     6
 40
22.225
 49
6.35
 74
     0
 49
-3.175
 74
     0
 49
6.35
 74
     0
 49
-3.175
 74
     0
 49
0.0
 74
     0
 49
-3.175
 74
     0
  0
LTYPE
  5
41D
330
36D
100
AcDbSymbolTableRecord
100
AcDbLinetypeTableRecord
  2
BORDERX2
 70
     0
  3
Border (2x) ____  ____  .  ____  ____  .  ___
 72
    65
 73
     6
 40
88.89999999999999
 49
25.4
 74
     0
 49
-12.7
 74
     0
 49
25.4
 74
     0
 49
-12.7
 74
     0
 49
0.0
 74
     0
 49
-12.7
 74
     0
  0
LTYPE
  5
41E
330
36D
100
AcDbSymbolTableRecord
100
AcDbLinetypeTableRecord
  2
DASHDOT2
 70
     0
  3
Dash dot (.5x) _._._._._._._._._._._._._._._.
 72
    65
 73
     4
 40
12.7
 49
6.35
 74
     0
 49
-3.175
 74
     0
 49
0.0
 74
     0
 49
-3.175
 74
     0
  0
LTYPE
  5
41F
330
36D
100
AcDbSymbolTableRecord
100
AcDbLinetypeTableRecord
  2
DASHDOTX2
 70
     0
  3
Dash dot (2x) ____  .  ____  .  ____  .  ___
 72
    65
 73
     4
 40
50.8
 49
25.4
 74
     0
 49
-12.7
 74
     0
 49
0.0
 74
     0
 49
-12.7
 74
     0
  0
LTYPE
  5
420
330
36D
100
AcDbSymbolTableRecord
100
AcDbLinetypeTableRecord
  2
CENTERX2
 70
     0
  3
Center (2x) ________  __  ________  __  _____
 72
    65
 73
     4
 40
101.6
 49
63.5
 74
     0
 49
-12.7
 74
     0
 49
12.7
 74
     0
 49
-12.7
 74
     0
  0
LTYPE
  5
421
330
36D
100
AcDbSymbolTableRecord
100
AcDbLinetypeTableRecord
  2
DASHDOT
 70
     0
  3
Dash dot __ . __ . __ . __ . __ . __ . __ . __
 72
    65
 73
     4
 40
25.4
 49
12.7
 74
     0
 49
-6.35
 74
     0
 49
0.0
 74
     0
 49
-6.35
 74
     0
  0
LTYPE
  5
422
330
36D
100
AcDbSymbolTableRecord
100
AcDbLinetypeTableRecord
  2
ACAD_ISO04W100
 70
     0
  3
ISO long-dash dot ____ . ____ . ____ . ____ . _
 72
    65
 73
     4
 40
30.0
 49
24.0
 74
     0
 49
-3.0
 74
     0
 49
0.0
 74
     0
 49
-3.0
 74
     0
  0
LTYPE
  5
423
330
36D
100
AcDbSymbolTableRecord
100
AcDbLinetypeTableRecord
  2
ACAD_ISO05W100
 70
     0
  3
ISO long-dash double-dot ____ .. ____ .. ____ . 
 72
    65
 73
     6
 40
33.0
 49
24.0
 74
     0
 49
-3.0
 74
     0
 49
0.0
 74
     0
 49
-3.0
 74
     0
 49
0.0
 74
     0
 49
-3.0
 74
     0
  0
LTYPE
  5
424
330
36D
100
AcDbSymbolTableRecord
100
AcDbLinetypeTableRecord
  2
ACAD_ISO02W100
 70
     0
  3
ISO dash __ __ __ __ __ __ __ __ __ __ __ __ __
 72
    65
 73
     2
 40
15.0
 49
12.0
 74
     0
 49
-3.0
 74
     0
  0
LTYPE
  5
425
330
36D
100
AcDbSymbolTableRecord
100
AcDbLinetypeTableRecord
  2
ACAD_ISO03W100
 70
     0
  3
ISO dash space __    __    __    __    __    __
 72
    65
 73
     2
 40
30.0
 49
12.0
 74
     0
 49
-18.0
 74
     0
  0
LTYPE
  5
426
330
36D
100
AcDbSymbolTableRecord
100
AcDbLinetypeTableRecord
  2
ACAD_ISO08W100
 70
     0
  3
ISO long-dash short-dash ____ __ ____ __ ____ _
 72
    65
 73
     4
 40
36.0
 49
24.0
 74
     0
 49
-3.0
 74
     0
 49
6.0
 74
     0
 49
-3.0
 74
     0
  0
LTYPE
  5
427
330
36D
100
AcDbSymbolTableRecord
100
AcDbLinetypeTableRecord
  2
ACAD_ISO09W100
 70
     0
  3
ISO long-dash double-short-dash ____ __ __ ____
 72
    65
 73
     6
 40
45.0
 49
24.0
 74
     0
 49
-3.0
 74
     0
 49
6.0
 74
     0
 49
-3.0
 74
     0
 49
6.0
 74
     0
 49
-3.0
 74
     0
  0
LTYPE
  5
428
330
36D
100
AcDbSymbolTableRecord
100
AcDbLinetypeTableRecord
  2
ACAD_ISO06W100
 70
     0
  3
ISO long-dash triple-dot ____ ... ____ ... ____
 72
    65
 73
     8
 40
36.0
 49
24.0
 74
     0
 49
-3.0
 74
     0
 49
0.0
 74
     0
 49
-3.0
 74
     0
 49
0.0
 74
     0
 49
-3.0
 74
     0
 49
0.0
 74
     0
 49
-3.0
 74
     0
  0
LTYPE
  5
429
330
36D
100
AcDbSymbolTableRecord
100
AcDbLinetypeTableRecord
  2
ACAD_ISO07W100
 70
     0
  3
ISO dot . . . . . . . . . . . . . . . . . . . . 
 72
    65
 73
     2
 40
3.0
 49
0.0
 74
     0
 49
-3.0
 74
     0
  0
LTYPE
  5
42A
330
36D
100
AcDbSymbolTableRecord
100
AcDbLinetypeTableRecord
  2
PHANTOM
 70
     0
  3
Phantom ______  __  __  ______  __  __  ______ 
 72
    65
 73
     6
 40
63.50000000000001
 49
31.75
 74
     0
 49
-6.35
 74
     0
 49
6.35
 74
     0
 49
-6.35
 74
     0
 49
6.35
 74
     0
 49
-6.35
 74
     0
  0
LTYPE
  5
42B
330
36D
100
AcDbSymbolTableRecord
100
AcDbLinetypeTableRecord
  2
PHANTOM2
 70
     0
  3
Phantom (.5x) ___ _ _ ___ _ _ ___ _ _ ___ _ _
 72
    65
 73
     6
 40
31.75
 49
15.875
 74
     0
 49
-3.175
 74
     0
 49
3.175
 74
     0
 49
-3.175
 74
     0
 49
3.175
 74
     0
 49
-3.175
 74
     0
  0
LTYPE
  5
42C
330
36D
100
AcDbSymbolTableRecord
100
AcDbLinetypeTableRecord
  2
HIDDENX2
 70
     0
  3
Hidden (2x) ____ ____ ____ ____ ____ ____ ____ 
 72
    65
 73
     2
 40
19.05
 49
12.7
 74
     0
 49
-6.35
 74
     0
  0
LTYPE
  5
42D
330
36D
100
AcDbSymbolTableRecord
100
AcDbLinetypeTableRecord
  2
HOT_WATER_SUPPLY
 70
     0
  3
Hot water supply ---- HW ---- HW ---- HW ----
 72
    65
 73
     3
 40
22.86
 49
12.7
 74
     0
 49
-5.08
 74
     2
 75
     0
340
410
 46
2.54
 50
0.0
 44
-2.54
 45
-1.27
  9
HW
 49
-5.08
 74
     0
  0
LTYPE
  5
42E
330
36D
100
AcDbSymbolTableRecord
100
AcDbLinetypeTableRecord
  2
ZIGZAG
 70
     0
  3
Zig zag /\/\/\/\/\/\/\/\/\/\/\/\/\/\/\/\/\/\/\/\/\/\/\/
 72
    65
 73
     4
 40
20.32254
 49
0.00254
 74
     0
 49
-5.08
 74
     2
 75
     0
340
409
 46
5.08
 50
0.0
 44
-5.08
 45
0.0
  9
ZIG
 49
-10.16
 74
     2
 75
     0
340
409
 46
5.08
 50
180.0
 44
5.08
 45
0.0
  9
ZIG
 49
-5.08
 74
     0
  0
LTYPE
  5
42F
330
36D
100
AcDbSymbolTableRecord
100
AcDbLinetypeTableRecord
  2
PHANTOMX2
 70
     0
  3
Phantom (2x) ____________    ____    ____   _
 72
    65
 73
     6
 40
127.0
 49
63.5
 74
     0
 49
-12.7
 74
     0
 49
12.7
 74
     0
 49
-12.7
 74
     0
 49
12.7
 74
     0
 49
-12.7
 74
     0
  0
LTYPE
  5
430
330
36D
100
AcDbSymbolTableRecord
100
AcDbLinetypeTableRecord
  2
TRACKS
 70
     0
  3
Tracks -|-|-|-|-|-|-|-|-|-|-|-|-|-|-|-|-|-|-|-|-|-|-|-|-
 72
    65
 73
     2
 40
7.62
 49
3.81
 74
     2
 75
     0
340
409
 46
6.35
 50
0.0
 44
0.0
 45
0.0
  9
TRACK1
 49
3.81
 74
     0
  0
ENDTAB
  0
TABLE
  2
LAYER
  5
36B
330
0
100
AcDbSymbolTable
 70
     4
  0
LAYER
  5
378
330
36B
100
AcDbSymbolTableRecord
100
AcDbLayerTableRecord
  2
0
 70
     0
 62
     7
  6
Continuous
370
    -3
390
377
347
3AD
348
0
  0
LAYER
  5
431
330
36B
100
AcDbSymbolTableRecord
100
AcDbLayerTableRecord
  2
Contour
 70
     0
 62
     7
  6
Continuous
370
    -3
390
377
347
3AD
348
0
  0
LAYER
  5
432
330
36B
100
AcDbSymbolTableRecord
100
AcDbLayerTableRecord
  2
Engraving
 70
     0
 62
     7
  6
Continuous
370
    -3
390
377
347
3AD
348
0
  0
LAYER
  5
433
330
36B
100
AcDbSymbolTableRecord
100
AcDbLayerTableRecord
  2
Reference_points
 70
     0
 62
     1
  6
Continuous
370
    -3
390
377
347
3AD
348
0
  0
ENDTAB
  0
TABLE
  2
STYLE
  5
36C
330
0
100
AcDbSymbolTable
 70
     4
  0
STYLE
  5
379
330
36C
100
AcDbSymbolTableRecord
100
AcDbTextStyleTableRecord
  2
Standard
 70
     0
 40
0.0
 41
1.0
 50
0.0
 71
     0
 42
0.2
  3
txt
  4

  0
STYLE
  5
407
330
36C
100
AcDbSymbolTableRecord
100
AcDbTextStyleTableRecord
  2
textstyle0
 70
     0
 40
0.0
 41
1.0
 50
0.0
 71
     0
 42
0.2
  3
qcadshp.shx
  4

  0
STYLE
  5
409
330
36C
100
AcDbSymbolTableRecord
100
AcDbTextStyleTableRecord
  2
textstyle1
 70
     0
 40
0.0
 41
1.0
 50
0.0
 71
     0
 42
0.2
  3
ltypeshp.shx
  4

  0
STYLE
  5
410
330
36C
100
AcDbSymbolTableRecord
100
AcDbTextStyleTableRecord
  2
textstyle2
 70
     0
 40
0.0
 41
1.0
 50
0.0
 71
     0
 42
0.2
  3
STANDARD
  4

  0
ENDTAB
  0
TABLE
  2
VIEW
  5
36E
330
0
100
AcDbSymbolTable
 70
     0
  0
ENDTAB
  0
TABLE
  2
UCS
  5
36F
330
0
100
AcDbSymbolTable
 70
     0
  0
ENDTAB
  0
TABLE
  2
APPID
  5
371
330
0
100
AcDbSymbolTable
 70
     2
  0
APPID
  5
37A
330
371
100
AcDbSymbolTableRecord
100
AcDbRegAppTableRecord
  2
ACAD
 70
     0
  0
APPID
  5
3C5
330
371
100
AcDbSymbolTableRecord
100
AcDbRegAppTableRecord
  2
QCAD
 70
     0
  0
ENDTAB
  0
TABLE
  2
DIMSTYLE
  5
372
330
0
100
AcDbSymbolTable
 70
     2
100
AcDbDimStyleTable
  0
DIMSTYLE
105
38E
330
372
100
AcDbSymbolTableRecord
100
AcDbDimStyleTableRecord
  2
Standard
 70
     0
178
     0
340
379
  0
DIMSTYLE
105
3FE
330
372
100
AcDbSymbolTableRecord
100
AcDbDimStyleTableRecord
  2
QCADDimStyle
 70
     0
178
     0
279
     2
340
379
  0
ENDTAB
  0
TABLE
  2
BLOCK_RECORD
  5
36A
330
0
100
AcDbSymbolTable
 70
     0
  0
BLOCK_RECORD
  5
386
330
36A
100
AcDbSymbolTableRecord
100
AcDbBlockTableRecord
  2
*Model_Space
340
389
 70
     0
280
     1
281
     0
  0
BLOCK_RECORD
  5
382
330
36A
100
AcDbSymbolTableRecord
100
AcDbBlockTableRecord
  2
*Paper_Space
340
385
 70
     0
280
     1
281
     0
  0
ENDTAB
  0
ENDSEC
  0
SECTION
  2
BLOCKS
  0
BLOCK
  5
387
330
386
100
AcDbEntity
  8
0
100
AcDbBlockBegin
  2
*Model_Space
 70
     0
 10
0.0
 20
0.0
 30
0.0
  3
*Model_Space
  1

  0
ENDBLK
  5
388
330
386
100
AcDbEntity
  8
0
100
AcDbBlockEnd
  0
BLOCK
  5
383
330
382
100
AcDbEntity
 67
     1
  8
0
100
AcDbBlockBegin
  2
*Paper_Space
 70
     0
 10
0.0
 20
0.0
 30
0.0
  3
*Paper_Space
  1

  0
ENDBLK
  5
384
330
382
100
AcDbEntity
 67
     1
  8
0
100
AcDbBlockEnd
  0
ENDSEC
  0
SECTION
  2
ENTITIES
  0
ARC
  5
44
330
386
100
AcDbEntity
  8
Contour
  6
Continuous
 62
     7
100
AcDbCircle
 10
718.7
 20
283.25
 30
0.0
 40
30.0
100
AcDbArc
 50
0.0
 51
90.0
  0
LINE
  5
45
330
386
100
AcDbEntity
  8
Contour
  6
Continuous
 62
     7
100
AcDbLine
 10
748.7
 20
283.25
 30
0.0
 11
748.7
 21
30.0
 31
0.0
  0
ARC
  5
46
330
386
100
AcDbEntity
  8
Contour
  6
Continuous
 62
     7
100
AcDbCircle
 10
718.7
 20
30.0
 30
0.0
 40
30.0
100
AcDbArc
 50
270.0
 51
0.0
  0
LINE
  5
47
330
386
100
AcDbEntity
  8
Contour
  6
Continuous
 62
     7
100
AcDbLine
 10
718.7
 20
0.0
 30
0.0
 11
30.0
 21
0.0
 31
0.0
  0
ARC
  5
48
330
386
100
AcDbEntity
  8
Contour
  6
Continuous
 62
     7
100
AcDbCircle
 10
30.0
 20
30.0
 30
0.0
 40
30.0
100
AcDbArc
 50
180.0
 51
270.0
  0
LINE
  5
49
330
386
100
AcDbEntity
  8
Contour
  6
Continuous
 62
     7
100
AcDbLine
 10
0.0
 20
30.0
 30
0.0
 11
0.0
 21
283.25
 31
0.0
  0
ARC
  5
4A
330
386
100
AcDbEntity
  8
Contour
  6
Continuous
 62
     7
100
AcDbCircle
 10
30.0
 20
283.25
 30
0.0
 40
30.0
100
AcDbArc
 50
90.0
 51
180.0
  0
LINE
  5
4B
330
386
100
AcDbEntity
  8
Contour
  6
Continuous
 62
     7
100
AcDbLine
 10
30.0
 20
313.25
 30
0.0
 11
718.7
 21
313.25
 31
0.0
  0
LINE
  5
4C
330
386
100
AcDbEntity
  8
Contour
  6
Continuous
 62
     7
100
AcDbLine
 10
587.393
 20
73.342
 30
0.0
 11
585.52
 21
72.697
 31
0.0
  0
LINE
  5
4D
330
386
100
AcDbEntity
  8
Contour
  6
Continuous
 62
     7
100
AcDbLine
 10
585.52
 20
72.697
 30
0.0
 11
476.562
 21
36.871
 31
0.0
  0
LINE
  5
4E
330
386
100
AcDbEntity
  8
Contour
  6
Continuous
 62
     7
100
AcDbLine
 10
476.562
 20
36.871
 30
0.0
 11
476.562
 21
36.871
 31
0.0
  0
ARC
  5
4F
330
386
100
AcDbEntity
  8
Contour
  6
Continuous
 62
     7
100
AcDbCircle
 10
476.0936
 20
38.2957
 30
0.0
 40
1.49972
100
AcDbArc
 50
198.21135
 51
288.19941
  0
LINE
  5
50
330
386
100
AcDbEntity
  8
Contour
  6
Continuous
 62
     7
100
AcDbLine
 10
474.669
 20
37.827
 30
0.0
 11
468.981
 21
55.115
 31
0.0
  0
LINE
  5
51
330
386
100
AcDbEntity
  8
Contour
  6
Continuous
 62
     7
100
AcDbLine
 10
468.981
 20
55.115
 30
0.0
 11
468.981
 21
55.115
 31
0.0
  0
ARC
  5
52
330
386
100
AcDbEntity
  8
Contour
  6
Continuous
 62
     7
100
AcDbCircle
 10
470.4057
 20
55.5834
 30
0.0
 40
1.49972
100
AcDbArc
 50
108.21135
 51
198.19941
  0
LINE
  5
53
330
386
100
AcDbEntity
  8
Contour
  6
Continuous
 62
     7
100
AcDbLine
 10
469.937
 20
57.008
 30
0.0
 11
477.141
 21
59.38
 31
0.0
  0
LINE
  5
54
330
386
100
AcDbEntity
  8
Contour
  6
Continuous
 62
     7
100
AcDbLine
 10
477.141
 20
59.38
 30
0.0
 11
477.15
 21
59.384
 31
0.0
  0
LINE
  5
55
330
386
100
AcDbEntity
  8
Contour
  6
Continuous
 62
     7
100
AcDbLine
 10
477.15
 20
59.384
 30
0.0
 11
477.221
 21
59.411
 31
0.0
  0
LINE
  5
56
330
386
100
AcDbEntity
  8
Contour
  6
Continuous
 62
     7
100
AcDbLine
 10
477.221
 20
59.411
 30
0.0
 11
477.28
 21
59.445
 31
0.0
  0
LINE
  5
57
330
386
100
AcDbEntity
  8
Contour
  6
Continuous
 62
     7
100
AcDbLine
 10
477.28
 20
59.445
 30
0.0
 11
477.356
 21
59.505
 31
0.0
  0
LINE
  5
58
330
386
100
AcDbEntity
  8
Contour
  6
Continuous
 62
     7
100
AcDbLine
 10
477.356
 20
59.505
 30
0.0
 11
477.435
 21
59.606
 31
0.0
  0
LINE
  5
59
330
386
100
AcDbEntity
  8
Contour
  6
Continuous
 62
     7
100
AcDbLine
 10
477.435
 20
59.606
 30
0.0
 11
477.485
 21
59.725
 31
0.0
  0
LINE
  5
5A
330
386
100
AcDbEntity
  8
Contour
  6
Continuous
 62
     7
100
AcDbLine
 10
477.485
 20
59.725
 30
0.0
 11
477.504
 21
59.856
 31
0.0
  0
LINE
  5
5B
330
386
100
AcDbEntity
  8
Contour
  6
Continuous
 62
     7
100
AcDbLine
 10
477.504
 20
59.856
 30
0.0
 11
477.494
 21
59.949
 31
0.0
  0
LINE
  5
5C
330
386
100
AcDbEntity
  8
Contour
  6
Continuous
 62
     7
100
AcDbLine
 10
477.494
 20
59.949
 30
0.0
 11
477.479
 21
60.005
 31
0.0
  0
LINE
  5
5D
330
386
100
AcDbEntity
  8
Contour
  6
Continuous
 62
     7
100
AcDbLine
 10
477.479
 20
60.005
 30
0.0
 11
472.418
 21
75.391
 31
0.0
  0
LINE
  5
5E
330
386
100
AcDbEntity
  8
Contour
  6
Continuous
 62
     7
100
AcDbLine
 10
472.418
 20
75.391
 30
0.0
 11
472.388
 21
75.469
 31
0.0
  0
LINE
  5
5F
330
386
100
AcDbEntity
  8
Contour
  6
Continuous
 62
     7
100
AcDbLine
 10
472.388
 20
75.469
 30
0.0
 11
472.357
 21
75.523
 31
0.0
  0
LINE
  5
60
330
386
100
AcDbEntity
  8
Contour
  6
Continuous
 62
     7
100
AcDbLine
 10
472.357
 20
75.523
 30
0.0
 11
472.357
 21
75.523
 31
0.0
  0
LINE
  5
61
330
386
100
AcDbEntity
  8
Contour
  6
Continuous
 62
     7
100
AcDbLine
 10
472.357
 20
75.523
 30
0.0
 11
472.355
 21
75.527
 31
0.0
  0
LINE
  5
62
330
386
100
AcDbEntity
  8
Contour
  6
Continuous
 62
     7
100
AcDbLine
 10
472.355
 20
75.527
 30
0.0
 11
472.296
 21
75.602
 31
0.0
  0
LINE
  5
63
330
386
100
AcDbEntity
  8
Contour
  6
Continuous
 62
     7
100
AcDbLine
 10
472.296
 20
75.602
 30
0.0
 11
472.194
 21
75.682
 31
0.0
  0
LINE
  5
64
330
386
100
AcDbEntity
  8
Contour
  6
Continuous
 62
     7
100
AcDbLine
 10
472.194
 20
75.682
 30
0.0
 11
472.075
 21
75.732
 31
0.0
  0
LINE
  5
65
330
386
100
AcDbEntity
  8
Contour
  6
Continuous
 62
     7
100
AcDbLine
 10
472.075
 20
75.732
 30
0.0
 11
471.944
 21
75.751
 31
0.0
  0
LINE
  5
66
330
386
100
AcDbEntity
  8
Contour
  6
Continuous
 62
     7
100
AcDbLine
 10
471.944
 20
75.751
 30
0.0
 11
471.944
 21
75.751
 31
0.0
  0
LINE
  5
67
330
386
100
AcDbEntity
  8
Contour
  6
Continuous
 62
     7
100
AcDbLine
 10
471.944
 20
75.751
 30
0.0
 11
471.849
 21
75.741
 31
0.0
  0
LINE
  5
68
330
386
100
AcDbEntity
  8
Contour
  6
Continuous
 62
     7
100
AcDbLine
 10
471.849
 20
75.741
 30
0.0
 11
471.834
 21
75.739
 31
0.0
  0
LINE
  5
69
330
386
100
AcDbEntity
  8
Contour
  6
Continuous
 62
     7
100
AcDbLine
 10
471.834
 20
75.739
 30
0.0
 11
471.795
 21
75.727
 31
0.0
  0
LINE
  5
6A
330
386
100
AcDbEntity
  8
Contour
  6
Continuous
 62
     7
100
AcDbLine
 10
471.795
 20
75.727
 30
0.0
 11
464.135
 21
73.208
 31
0.0
  0
LINE
  5
6B
330
386
100
AcDbEntity
  8
Contour
  6
Continuous
 62
     7
100
AcDbLine
 10
464.135
 20
73.208
 30
0.0
 11
462.197
 21
72.564
 31
0.0
  0
LINE
  5
6C
330
386
100
AcDbEntity
  8
Contour
  6
Continuous
 62
     7
100
AcDbLine
 10
462.197
 20
72.564
 30
0.0
 11
353.236
 21
36.738
 31
0.0
  0
LINE
  5
6D
330
386
100
AcDbEntity
  8
Contour
  6
Continuous
 62
     7
100
AcDbLine
 10
353.236
 20
36.738
 30
0.0
 11
353.236
 21
36.738
 31
0.0
  0
ARC
  5
6E
330
386
100
AcDbEntity
  8
Contour
  6
Continuous
 62
     7
100
AcDbCircle
 10
352.7676
 20
38.1627
 30
0.0
 40
1.49972
100
AcDbArc
 50
198.21135
 51
288.19941
  0
LINE
  5
6F
330
386
100
AcDbEntity
  8
Contour
  6
Continuous
 62
     7
100
AcDbLine
 10
351.343
 20
37.694
 30
0.0
 11
345.658
 21
54.981
 31
0.0
  0
LINE
  5
70
330
386
100
AcDbEntity
  8
Contour
  6
Continuous
 62
     7
100
AcDbLine
 10
345.658
 20
54.981
 30
0.0
 11
345.658
 21
54.981
 31
0.0
  0
ARC
  5
71
330
386
100
AcDbEntity
  8
Contour
  6
Continuous
 62
     7
100
AcDbCircle
 10
347.0827
 20
55.4494
 30
0.0
 40
1.49972
100
AcDbArc
 50
108.21135
 51
198.19941
  0
LINE
  5
72
330
386
100
AcDbEntity
  8
Contour
  6
Continuous
 62
     7
100
AcDbLine
 10
346.614
 20
56.874
 30
0.0
 11
353.84
 21
59.253
 31
0.0
  0
LINE
  5
73
330
386
100
AcDbEntity
  8
Contour
  6
Continuous
 62
     7
100
AcDbLine
 10
353.84
 20
59.253
 30
0.0
 11
353.893
 21
59.275
 31
0.0
  0
LINE
  5
74
330
386
100
AcDbEntity
  8
Contour
  6
Continuous
 62
     7
100
AcDbLine
 10
353.893
 20
59.275
 30
0.0
 11
353.981
 21
59.325
 31
0.0
  0
LINE
  5
75
330
386
100
AcDbEntity
  8
Contour
  6
Continuous
 62
     7
100
AcDbLine
 10
353.981
 20
59.325
 30
0.0
 11
354.074
 21
59.418
 31
0.0
  0
LINE
  5
76
330
386
100
AcDbEntity
  8
Contour
  6
Continuous
 62
     7
100
AcDbLine
 10
354.074
 20
59.418
 30
0.0
 11
354.142
 21
59.532
 31
0.0
  0
LINE
  5
77
330
386
100
AcDbEntity
  8
Contour
  6
Continuous
 62
     7
100
AcDbLine
 10
354.142
 20
59.532
 30
0.0
 11
354.163
 21
59.608
 31
0.0
  0
LINE
  5
78
330
386
100
AcDbEntity
  8
Contour
  6
Continuous
 62
     7
100
AcDbLine
 10
354.163
 20
59.608
 30
0.0
 11
354.163
 21
59.608
 31
0.0
  0
LINE
  5
79
330
386
100
AcDbEntity
  8
Contour
  6
Continuous
 62
     7
100
AcDbLine
 10
354.163
 20
59.608
 30
0.0
 11
354.174
 21
59.684
 31
0.0
  0
LINE
  5
7A
330
386
100
AcDbEntity
  8
Contour
  6
Continuous
 62
     7
100
AcDbLine
 10
354.174
 20
59.684
 30
0.0
 11
354.175
 21
59.69
 31
0.0
  0
LINE
  5
7B
330
386
100
AcDbEntity
  8
Contour
  6
Continuous
 62
     7
100
AcDbLine
 10
354.175
 20
59.69
 30
0.0
 11
354.175
 21
59.69
 31
0.0
  0
LINE
  5
7C
330
386
100
AcDbEntity
  8
Contour
  6
Continuous
 62
     7
100
AcDbLine
 10
354.175
 20
59.69
 30
0.0
 11
354.175
 21
59.695
 31
0.0
  0
LINE
  5
7D
330
386
100
AcDbEntity
  8
Contour
  6
Continuous
 62
     7
100
AcDbLine
 10
354.175
 20
59.695
 30
0.0
 11
354.178
 21
59.783
 31
0.0
  0
LINE
  5
7E
330
386
100
AcDbEntity
  8
Contour
  6
Continuous
 62
     7
100
AcDbLine
 10
354.178
 20
59.783
 30
0.0
 11
354.156
 21
59.869
 31
0.0
  0
LINE
  5
7F
330
386
100
AcDbEntity
  8
Contour
  6
Continuous
 62
     7
100
AcDbLine
 10
354.156
 20
59.869
 30
0.0
 11
349.095
 21
75.258
 31
0.0
  0
LINE
  5
80
330
386
100
AcDbEntity
  8
Contour
  6
Continuous
 62
     7
100
AcDbLine
 10
349.095
 20
75.258
 30
0.0
 11
349.065
 21
75.336
 31
0.0
  0
LINE
  5
81
330
386
100
AcDbEntity
  8
Contour
  6
Continuous
 62
     7
100
AcDbLine
 10
349.065
 20
75.336
 30
0.0
 11
349.034
 21
75.39
 31
0.0
  0
LINE
  5
82
330
386
100
AcDbEntity
  8
Contour
  6
Continuous
 62
     7
100
AcDbLine
 10
349.034
 20
75.39
 30
0.0
 11
349.034
 21
75.39
 31
0.0
  0
LINE
  5
83
330
386
100
AcDbEntity
  8
Contour
  6
Continuous
 62
     7
100
AcDbLine
 10
349.034
 20
75.39
 30
0.0
 11
349.032
 21
75.394
 31
0.0
  0
LINE
  5
84
330
386
100
AcDbEntity
  8
Contour
  6
Continuous
 62
     7
100
AcDbLine
 10
349.032
 20
75.394
 30
0.0
 11
348.969
 21
75.474
 31
0.0
  0
LINE
  5
85
330
386
100
AcDbEntity
  8
Contour
  6
Continuous
 62
     7
100
AcDbLine
 10
348.969
 20
75.474
 30
0.0
 11
348.871
 21
75.549
 31
0.0
  0
LINE
  5
86
330
386
100
AcDbEntity
  8
Contour
  6
Continuous
 62
     7
100
AcDbLine
 10
348.871
 20
75.549
 30
0.0
 11
348.754
 21
75.598
 31
0.0
  0
LINE
  5
87
330
386
100
AcDbEntity
  8
Contour
  6
Continuous
 62
     7
100
AcDbLine
 10
348.754
 20
75.598
 30
0.0
 11
348.62
 21
75.617
 31
0.0
  0
LINE
  5
88
330
386
100
AcDbEntity
  8
Contour
  6
Continuous
 62
     7
100
AcDbLine
 10
348.62
 20
75.617
 30
0.0
 11
348.523
 21
75.605
 31
0.0
  0
LINE
  5
89
330
386
100
AcDbEntity
  8
Contour
  6
Continuous
 62
     7
100
AcDbLine
 10
348.523
 20
75.605
 30
0.0
 11
348.523
 21
75.605
 31
0.0
  0
LINE
  5
8A
330
386
100
AcDbEntity
  8
Contour
  6
Continuous
 62
     7
100
AcDbLine
 10
348.523
 20
75.605
 30
0.0
 11
348.467
 21
75.591
 31
0.0
  0
LINE
  5
8B
330
386
100
AcDbEntity
  8
Contour
  6
Continuous
 62
     7
100
AcDbLine
 10
348.467
 20
75.591
 30
0.0
 11
346.467
 21
74.933
 31
0.0
  0
LINE
  5
8C
330
386
100
AcDbEntity
  8
Contour
  6
Continuous
 62
     7
100
AcDbLine
 10
346.467
 20
74.933
 30
0.0
 11
342.763
 21
73.716
 31
0.0
  0
LINE
  5
8D
330
386
100
AcDbEntity
  8
Contour
  6
Continuous
 62
     7
100
AcDbLine
 10
342.763
 20
73.716
 30
0.0
 11
340.769
 21
73.06
 31
0.0
  0
LINE
  5
8E
330
386
100
AcDbEntity
  8
Contour
  6
Continuous
 62
     7
100
AcDbLine
 10
340.769
 20
73.06
 30
0.0
 11
338.915
 21
72.485
 31
0.0
  0
LINE
  5
8F
330
386
100
AcDbEntity
  8
Contour
  6
Continuous
 62
     7
100
AcDbLine
 10
338.915
 20
72.485
 30
0.0
 11
229.956
 21
36.659
 31
0.0
  0
LINE
  5
90
330
386
100
AcDbEntity
  8
Contour
  6
Continuous
 62
     7
100
AcDbLine
 10
229.956
 20
36.659
 30
0.0
 11
229.956
 21
36.659
 31
0.0
  0
ARC
  5
91
330
386
100
AcDbEntity
  8
Contour
  6
Continuous
 62
     7
100
AcDbCircle
 10
229.4876
 20
38.0837
 30
0.0
 40
1.49972
100
AcDbArc
 50
198.21135
 51
288.19941
  0
LINE
  5
92
330
386
100
AcDbEntity
  8
Contour
  6
Continuous
 62
     7
100
AcDbLine
 10
228.063
 20
37.615
 30
0.0
 11
222.376
 21
54.903
 31
0.0
  0
LINE
  5
93
330
386
100
AcDbEntity
  8
Contour
  6
Continuous
 62
     7
100
AcDbLine
 10
222.376
 20
54.903
 30
0.0
 11
222.376
 21
54.903
 31
0.0
  0
ARC
  5
94
330
386
100
AcDbEntity
  8
Contour
  6
Continuous
 62
     7
100
AcDbCircle
 10
223.8007
 20
55.3714
 30
0.0
 40
1.49972
100
AcDbArc
 50
108.21135
 51
198.19941
  0
LINE
  5
95
330
386
100
AcDbEntity
  8
Contour
  6
Continuous
 62
     7
100
AcDbLine
 10
223.332
 20
56.796
 30
0.0
 11
230.536
 21
59.168
 31
0.0
  0
LINE
  5
96
330
386
100
AcDbEntity
  8
Contour
  6
Continuous
 62
     7
100
AcDbLine
 10
230.536
 20
59.168
 30
0.0
 11
230.545
 21
59.172
 31
0.0
  0
LINE
  5
97
330
386
100
AcDbEntity
  8
Contour
  6
Continuous
 62
     7
100
AcDbLine
 10
230.545
 20
59.172
 30
0.0
 11
230.615
 21
59.199
 31
0.0
  0
LINE
  5
98
330
386
100
AcDbEntity
  8
Contour
  6
Continuous
 62
     7
100
AcDbLine
 10
230.615
 20
59.199
 30
0.0
 11
230.671
 21
59.231
 31
0.0
  0
LINE
  5
99
330
386
100
AcDbEntity
  8
Contour
  6
Continuous
 62
     7
100
AcDbLine
 10
230.671
 20
59.231
 30
0.0
 11
230.671
 21
59.231
 31
0.0
  0
LINE
  5
9A
330
386
100
AcDbEntity
  8
Contour
  6
Continuous
 62
     7
100
AcDbLine
 10
230.671
 20
59.231
 30
0.0
 11
230.675
 21
59.233
 31
0.0
  0
LINE
  5
9B
330
386
100
AcDbEntity
  8
Contour
  6
Continuous
 62
     7
100
AcDbLine
 10
230.675
 20
59.233
 30
0.0
 11
230.755
 21
59.296
 31
0.0
  0
LINE
  5
9C
330
386
100
AcDbEntity
  8
Contour
  6
Continuous
 62
     7
100
AcDbLine
 10
230.755
 20
59.296
 30
0.0
 11
230.83
 21
59.394
 31
0.0
  0
LINE
  5
9D
330
386
100
AcDbEntity
  8
Contour
  6
Continuous
 62
     7
100
AcDbLine
 10
230.83
 20
59.394
 30
0.0
 11
230.879
 21
59.511
 31
0.0
  0
LINE
  5
9E
330
386
100
AcDbEntity
  8
Contour
  6
Continuous
 62
     7
100
AcDbLine
 10
230.879
 20
59.511
 30
0.0
 11
230.898
 21
59.645
 31
0.0
  0
LINE
  5
9F
330
386
100
AcDbEntity
  8
Contour
  6
Continuous
 62
     7
100
AcDbLine
 10
230.898
 20
59.645
 30
0.0
 11
230.898
 21
59.645
 31
0.0
  0
LINE
  5
A0
330
386
100
AcDbEntity
  8
Contour
  6
Continuous
 62
     7
100
AcDbLine
 10
230.898
 20
59.645
 30
0.0
 11
230.887
 21
59.74
 31
0.0
  0
LINE
  5
A1
330
386
100
AcDbEntity
  8
Contour
  6
Continuous
 62
     7
100
AcDbLine
 10
230.887
 20
59.74
 30
0.0
 11
230.886
 21
59.743
 31
0.0
  0
LINE
  5
A2
330
386
100
AcDbEntity
  8
Contour
  6
Continuous
 62
     7
100
AcDbLine
 10
230.886
 20
59.743
 30
0.0
 11
230.873
 21
59.794
 31
0.0
  0
LINE
  5
A3
330
386
100
AcDbEntity
  8
Contour
  6
Continuous
 62
     7
100
AcDbLine
 10
230.873
 20
59.794
 30
0.0
 11
225.813
 21
75.179
 31
0.0
  0
LINE
  5
A4
330
386
100
AcDbEntity
  8
Contour
  6
Continuous
 62
     7
100
AcDbLine
 10
225.813
 20
75.179
 30
0.0
 11
225.783
 21
75.257
 31
0.0
  0
LINE
  5
A5
330
386
100
AcDbEntity
  8
Contour
  6
Continuous
 62
     7
100
AcDbLine
 10
225.783
 20
75.257
 30
0.0
 11
225.752
 21
75.311
 31
0.0
  0
LINE
  5
A6
330
386
100
AcDbEntity
  8
Contour
  6
Continuous
 62
     7
100
AcDbLine
 10
225.752
 20
75.311
 30
0.0
 11
225.752
 21
75.311
 31
0.0
  0
LINE
  5
A7
330
386
100
AcDbEntity
  8
Contour
  6
Continuous
 62
     7
100
AcDbLine
 10
225.752
 20
75.311
 30
0.0
 11
225.75
 21
75.315
 31
0.0
  0
LINE
  5
A8
330
386
100
AcDbEntity
  8
Contour
  6
Continuous
 62
     7
100
AcDbLine
 10
225.75
 20
75.315
 30
0.0
 11
225.691
 21
75.39
 31
0.0
  0
LINE
  5
A9
330
386
100
AcDbEntity
  8
Contour
  6
Continuous
 62
     7
100
AcDbLine
 10
225.691
 20
75.39
 30
0.0
 11
225.589
 21
75.47
 31
0.0
  0
LINE
  5
AA
330
386
100
AcDbEntity
  8
Contour
  6
Continuous
 62
     7
100
AcDbLine
 10
225.589
 20
75.47
 30
0.0
 11
225.47
 21
75.52
 31
0.0
  0
LINE
  5
AB
330
386
100
AcDbEntity
  8
Contour
  6
Continuous
 62
     7
100
AcDbLine
 10
225.47
 20
75.52
 30
0.0
 11
225.339
 21
75.539
 31
0.0
  0
LINE
  5
AC
330
386
100
AcDbEntity
  8
Contour
  6
Continuous
 62
     7
100
AcDbLine
 10
225.339
 20
75.539
 30
0.0
 11
225.246
 21
75.528
 31
0.0
  0
LINE
  5
AD
330
386
100
AcDbEntity
  8
Contour
  6
Continuous
 62
     7
100
AcDbLine
 10
225.246
 20
75.528
 30
0.0
 11
225.234
 21
75.526
 31
0.0
  0
LINE
  5
AE
330
386
100
AcDbEntity
  8
Contour
  6
Continuous
 62
     7
100
AcDbLine
 10
225.234
 20
75.526
 30
0.0
 11
225.234
 21
75.526
 31
0.0
  0
LINE
  5
AF
330
386
100
AcDbEntity
  8
Contour
  6
Continuous
 62
     7
100
AcDbLine
 10
225.234
 20
75.526
 30
0.0
 11
225.208
 21
75.52
 31
0.0
  0
LINE
  5
B0
330
386
100
AcDbEntity
  8
Contour
  6
Continuous
 62
     7
100
AcDbLine
 10
225.208
 20
75.52
 30
0.0
 11
223.185
 21
74.855
 31
0.0
  0
LINE
  5
B1
330
386
100
AcDbEntity
  8
Contour
  6
Continuous
 62
     7
100
AcDbLine
 10
223.185
 20
74.855
 30
0.0
 11
219.481
 21
73.638
 31
0.0
  0
LINE
  5
B2
330
386
100
AcDbEntity
  8
Contour
  6
Continuous
 62
     7
100
AcDbLine
 10
219.481
 20
73.638
 30
0.0
 11
217.45
 21
72.97
 31
0.0
  0
LINE
  5
B3
330
386
100
AcDbEntity
  8
Contour
  6
Continuous
 62
     7
100
AcDbLine
 10
217.45
 20
72.97
 30
0.0
 11
215.934
 21
72.441
 31
0.0
  0
LINE
  5
B4
330
386
100
AcDbEntity
  8
Contour
  6
Continuous
 62
     7
100
AcDbLine
 10
215.934
 20
72.441
 30
0.0
 11
215.651
 21
72.344
 31
0.0
  0
LINE
  5
B5
330
386
100
AcDbEntity
  8
Contour
  6
Continuous
 62
     7
100
AcDbLine
 10
215.651
 20
72.344
 30
0.0
 11
215.508
 21
72.293
 31
0.0
  0
LINE
  5
B6
330
386
100
AcDbEntity
  8
Contour
  6
Continuous
 62
     7
100
AcDbLine
 10
215.508
 20
72.293
 30
0.0
 11
106.527
 21
36.459
 31
0.0
  0
LINE
  5
B7
330
386
100
AcDbEntity
  8
Contour
  6
Continuous
 62
     7
100
AcDbLine
 10
106.527
 20
36.459
 30
0.0
 11
106.527
 21
36.459
 31
0.0
  0
ARC
  5
B8
330
386
100
AcDbEntity
  8
Contour
  6
Continuous
 62
     7
100
AcDbCircle
 10
106.0586
 20
37.8837
 30
0.0
 40
1.49972
100
AcDbArc
 50
198.21135
 51
288.19941
  0
LINE
  5
B9
330
386
100
AcDbEntity
  8
Contour
  6
Continuous
 62
     7
100
AcDbLine
 10
104.634
 20
37.415
 30
0.0
 11
98.947
 21
54.703
 31
0.0
  0
LINE
  5
BA
330
386
100
AcDbEntity
  8
Contour
  6
Continuous
 62
     7
100
AcDbLine
 10
98.947
 20
54.703
 30
0.0
 11
98.947
 21
54.703
 31
0.0
  0
ARC
  5
BB
330
386
100
AcDbEntity
  8
Contour
  6
Continuous
 62
     7
100
AcDbCircle
 10
100.3717
 20
55.1714
 30
0.0
 40
1.49972
100
AcDbArc
 50
108.21135
 51
198.19941
  0
LINE
  5
BC
330
386
100
AcDbEntity
  8
Contour
  6
Continuous
 62
     7
100
AcDbLine
 10
99.903
 20
56.596
 30
0.0
 11
107.107
 21
58.968
 31
0.0
  0
LINE
  5
BD
330
386
100
AcDbEntity
  8
Contour
  6
Continuous
 62
     7
100
AcDbLine
 10
107.107
 20
58.968
 30
0.0
 11
107.116
 21
58.972
 31
0.0
  0
LINE
  5
BE
330
386
100
AcDbEntity
  8
Contour
  6
Continuous
 62
     7
100
AcDbLine
 10
107.116
 20
58.972
 30
0.0
 11
107.187
 21
58.999
 31
0.0
  0
LINE
  5
BF
330
386
100
AcDbEntity
  8
Contour
  6
Continuous
 62
     7
100
AcDbLine
 10
107.187
 20
58.999
 30
0.0
 11
107.246
 21
59.033
 31
0.0
  0
LINE
  5
C0
330
386
100
AcDbEntity
  8
Contour
  6
Continuous
 62
     7
100
AcDbLine
 10
107.246
 20
59.033
 30
0.0
 11
107.326
 21
59.096
 31
0.0
  0
LINE
  5
C1
330
386
100
AcDbEntity
  8
Contour
  6
Continuous
 62
     7
100
AcDbLine
 10
107.326
 20
59.096
 30
0.0
 11
107.401
 21
59.194
 31
0.0
  0
LINE
  5
C2
330
386
100
AcDbEntity
  8
Contour
  6
Continuous
 62
     7
100
AcDbLine
 10
107.401
 20
59.194
 30
0.0
 11
107.45
 21
59.311
 31
0.0
  0
LINE
  5
C3
330
386
100
AcDbEntity
  8
Contour
  6
Continuous
 62
     7
100
AcDbLine
 10
107.45
 20
59.311
 30
0.0
 11
107.469
 21
59.446
 31
0.0
  0
LINE
  5
C4
330
386
100
AcDbEntity
  8
Contour
  6
Continuous
 62
     7
100
AcDbLine
 10
107.469
 20
59.446
 30
0.0
 11
107.456
 21
59.556
 31
0.0
  0
LINE
  5
C5
330
386
100
AcDbEntity
  8
Contour
  6
Continuous
 62
     7
100
AcDbLine
 10
107.456
 20
59.556
 30
0.0
 11
107.456
 21
59.556
 31
0.0
  0
LINE
  5
C6
330
386
100
AcDbEntity
  8
Contour
  6
Continuous
 62
     7
100
AcDbLine
 10
107.456
 20
59.556
 30
0.0
 11
107.45
 21
59.575
 31
0.0
  0
LINE
  5
C7
330
386
100
AcDbEntity
  8
Contour
  6
Continuous
 62
     7
100
AcDbLine
 10
107.45
 20
59.575
 30
0.0
 11
107.443
 21
59.598
 31
0.0
  0
LINE
  5
C8
330
386
100
AcDbEntity
  8
Contour
  6
Continuous
 62
     7
100
AcDbLine
 10
107.443
 20
59.598
 30
0.0
 11
102.384
 21
74.979
 31
0.0
  0
LINE
  5
C9
330
386
100
AcDbEntity
  8
Contour
  6
Continuous
 62
     7
100
AcDbLine
 10
102.384
 20
74.979
 30
0.0
 11
102.384
 21
74.979
 31
0.0
  0
LINE
  5
CA
330
386
100
AcDbEntity
  8
Contour
  6
Continuous
 62
     7
100
AcDbLine
 10
102.384
 20
74.979
 30
0.0
 11
102.354
 21
75.057
 31
0.0
  0
LINE
  5
CB
330
386
100
AcDbEntity
  8
Contour
  6
Continuous
 62
     7
100
AcDbLine
 10
102.354
 20
75.057
 30
0.0
 11
102.353
 21
75.061
 31
0.0
  0
LINE
  5
CC
330
386
100
AcDbEntity
  8
Contour
  6
Continuous
 62
     7
100
AcDbLine
 10
102.353
 20
75.061
 30
0.0
 11
102.309
 21
75.137
 31
0.0
  0
LINE
  5
CD
330
386
100
AcDbEntity
  8
Contour
  6
Continuous
 62
     7
100
AcDbLine
 10
102.309
 20
75.137
 30
0.0
 11
102.21
 21
75.236
 31
0.0
  0
LINE
  5
CE
330
386
100
AcDbEntity
  8
Contour
  6
Continuous
 62
     7
100
AcDbLine
 10
102.21
 20
75.236
 30
0.0
 11
102.101
 21
75.298
 31
0.0
  0
LINE
  5
CF
330
386
100
AcDbEntity
  8
Contour
  6
Continuous
 62
     7
100
AcDbLine
 10
102.101
 20
75.298
 30
0.0
 11
102.101
 21
75.298
 31
0.0
  0
LINE
  5
D0
330
386
100
AcDbEntity
  8
Contour
  6
Continuous
 62
     7
100
AcDbLine
 10
102.101
 20
75.298
 30
0.0
 11
102.011
 21
75.324
 31
0.0
  0
LINE
  5
D1
330
386
100
AcDbEntity
  8
Contour
  6
Continuous
 62
     7
100
AcDbLine
 10
102.011
 20
75.324
 30
0.0
 11
101.908
 21
75.339
 31
0.0
  0
LINE
  5
D2
330
386
100
AcDbEntity
  8
Contour
  6
Continuous
 62
     7
100
AcDbLine
 10
101.908
 20
75.339
 30
0.0
 11
101.908
 21
75.339
 31
0.0
  0
LINE
  5
D3
330
386
100
AcDbEntity
  8
Contour
  6
Continuous
 62
     7
100
AcDbLine
 10
101.908
 20
75.339
 30
0.0
 11
101.814
 21
75.329
 31
0.0
  0
LINE
  5
D4
330
386
100
AcDbEntity
  8
Contour
  6
Continuous
 62
     7
100
AcDbLine
 10
101.814
 20
75.329
 30
0.0
 11
101.799
 21
75.327
 31
0.0
  0
LINE
  5
D5
330
386
100
AcDbEntity
  8
Contour
  6
Continuous
 62
     7
100
AcDbLine
 10
101.799
 20
75.327
 30
0.0
 11
101.76
 21
75.315
 31
0.0
  0
LINE
  5
D6
330
386
100
AcDbEntity
  8
Contour
  6
Continuous
 62
     7
100
AcDbLine
 10
101.76
 20
75.315
 30
0.0
 11
94.533
 21
72.938
 31
0.0
  0
LINE
  5
D7
330
386
100
AcDbEntity
  8
Contour
  6
Continuous
 62
     7
100
AcDbLine
 10
94.533
 20
72.938
 30
0.0
 11
94.533
 21
72.938
 31
0.0
  0
ARC
  5
D8
330
386
100
AcDbEntity
  8
Contour
  6
Continuous
 62
     7
100
AcDbCircle
 10
94.0646
 20
74.3627
 30
0.0
 40
1.49972
100
AcDbArc
 50
198.21135
 51
288.19941
  0
LINE
  5
D9
330
386
100
AcDbEntity
  8
Contour
  6
Continuous
 62
     7
100
AcDbLine
 10
92.64
 20
73.894
 30
0.0
 11
86.953
 21
91.182
 31
0.0
  0
LINE
  5
DA
330
386
100
AcDbEntity
  8
Contour
  6
Continuous
 62
     7
100
AcDbLine
 10
86.953
 20
91.182
 30
0.0
 11
86.953
 21
91.182
 31
0.0
  0
ARC
  5
DB
330
386
100
AcDbEntity
  8
Contour
  6
Continuous
 62
     7
100
AcDbCircle
 10
88.3777
 20
91.6504
 30
0.0
 40
1.49972
100
AcDbArc
 50
108.21135
 51
198.19941
  0
LINE
  5
DC
330
386
100
AcDbEntity
  8
Contour
  6
Continuous
 62
     7
100
AcDbLine
 10
87.909
 20
93.075
 30
0.0
 11
95.113
 21
95.447
 31
0.0
  0
LINE
  5
DD
330
386
100
AcDbEntity
  8
Contour
  6
Continuous
 62
     7
100
AcDbLine
 10
95.113
 20
95.447
 30
0.0
 11
95.122
 21
95.451
 31
0.0
  0
LINE
  5
DE
330
386
100
AcDbEntity
  8
Contour
  6
Continuous
 62
     7
100
AcDbLine
 10
95.122
 20
95.451
 30
0.0
 11
95.193
 21
95.478
 31
0.0
  0
LINE
  5
DF
330
386
100
AcDbEntity
  8
Contour
  6
Continuous
 62
     7
100
AcDbLine
 10
95.193
 20
95.478
 30
0.0
 11
95.252
 21
95.512
 31
0.0
  0
LINE
  5
E0
330
386
100
AcDbEntity
  8
Contour
  6
Continuous
 62
     7
100
AcDbLine
 10
95.252
 20
95.512
 30
0.0
 11
95.332
 21
95.575
 31
0.0
  0
LINE
  5
E1
330
386
100
AcDbEntity
  8
Contour
  6
Continuous
 62
     7
100
AcDbLine
 10
95.332
 20
95.575
 30
0.0
 11
95.407
 21
95.673
 31
0.0
  0
LINE
  5
E2
330
386
100
AcDbEntity
  8
Contour
  6
Continuous
 62
     7
100
AcDbLine
 10
95.407
 20
95.673
 30
0.0
 11
95.457
 21
95.79
 31
0.0
  0
LINE
  5
E3
330
386
100
AcDbEntity
  8
Contour
  6
Continuous
 62
     7
100
AcDbLine
 10
95.457
 20
95.79
 30
0.0
 11
95.476
 21
95.913
 31
0.0
  0
LINE
  5
E4
330
386
100
AcDbEntity
  8
Contour
  6
Continuous
 62
     7
100
AcDbLine
 10
95.476
 20
95.913
 30
0.0
 11
95.464
 21
96.022
 31
0.0
  0
LINE
  5
E5
330
386
100
AcDbEntity
  8
Contour
  6
Continuous
 62
     7
100
AcDbLine
 10
95.464
 20
96.022
 30
0.0
 11
95.45
 21
96.075
 31
0.0
  0
LINE
  5
E6
330
386
100
AcDbEntity
  8
Contour
  6
Continuous
 62
     7
100
AcDbLine
 10
95.45
 20
96.075
 30
0.0
 11
90.39
 21
111.458
 31
0.0
  0
LINE
  5
E7
330
386
100
AcDbEntity
  8
Contour
  6
Continuous
 62
     7
100
AcDbLine
 10
90.39
 20
111.458
 30
0.0
 11
90.36
 21
111.536
 31
0.0
  0
LINE
  5
E8
330
386
100
AcDbEntity
  8
Contour
  6
Continuous
 62
     7
100
AcDbLine
 10
90.36
 20
111.536
 30
0.0
 11
90.329
 21
111.59
 31
0.0
  0
LINE
  5
E9
330
386
100
AcDbEntity
  8
Contour
  6
Continuous
 62
     7
100
AcDbLine
 10
90.329
 20
111.59
 30
0.0
 11
90.329
 21
111.59
 31
0.0
  0
LINE
  5
EA
330
386
100
AcDbEntity
  8
Contour
  6
Continuous
 62
     7
100
AcDbLine
 10
90.329
 20
111.59
 30
0.0
 11
90.327
 21
111.594
 31
0.0
  0
LINE
  5
EB
330
386
100
AcDbEntity
  8
Contour
  6
Continuous
 62
     7
100
AcDbLine
 10
90.327
 20
111.594
 30
0.0
 11
90.268
 21
111.669
 31
0.0
  0
LINE
  5
EC
330
386
100
AcDbEntity
  8
Contour
  6
Continuous
 62
     7
100
AcDbLine
 10
90.268
 20
111.669
 30
0.0
 11
90.166
 21
111.749
 31
0.0
  0
LINE
  5
ED
330
386
100
AcDbEntity
  8
Contour
  6
Continuous
 62
     7
100
AcDbLine
 10
90.166
 20
111.749
 30
0.0
 11
90.047
 21
111.799
 31
0.0
  0
LINE
  5
EE
330
386
100
AcDbEntity
  8
Contour
  6
Continuous
 62
     7
100
AcDbLine
 10
90.047
 20
111.799
 30
0.0
 11
89.916
 21
111.818
 31
0.0
  0
LINE
  5
EF
330
386
100
AcDbEntity
  8
Contour
  6
Continuous
 62
     7
100
AcDbLine
 10
89.916
 20
111.818
 30
0.0
 11
89.823
 21
111.807
 31
0.0
  0
LINE
  5
F0
330
386
100
AcDbEntity
  8
Contour
  6
Continuous
 62
     7
100
AcDbLine
 10
89.823
 20
111.807
 30
0.0
 11
89.811
 21
111.805
 31
0.0
  0
LINE
  5
F1
330
386
100
AcDbEntity
  8
Contour
  6
Continuous
 62
     7
100
AcDbLine
 10
89.811
 20
111.805
 30
0.0
 11
89.811
 21
111.805
 31
0.0
  0
LINE
  5
F2
330
386
100
AcDbEntity
  8
Contour
  6
Continuous
 62
     7
100
AcDbLine
 10
89.811
 20
111.805
 30
0.0
 11
89.785
 21
111.799
 31
0.0
  0
LINE
  5
F3
330
386
100
AcDbEntity
  8
Contour
  6
Continuous
 62
     7
100
AcDbLine
 10
89.785
 20
111.799
 30
0.0
 11
87.762
 21
111.134
 31
0.0
  0
LINE
  5
F4
330
386
100
AcDbEntity
  8
Contour
  6
Continuous
 62
     7
100
AcDbLine
 10
87.762
 20
111.134
 30
0.0
 11
84.058
 21
109.917
 31
0.0
  0
LINE
  5
F5
330
386
100
AcDbEntity
  8
Contour
  6
Continuous
 62
     7
100
AcDbLine
 10
84.058
 20
109.917
 30
0.0
 11
82.537
 21
109.417
 31
0.0
  0
LINE
  5
F6
330
386
100
AcDbEntity
  8
Contour
  6
Continuous
 62
     7
100
AcDbLine
 10
82.537
 20
109.417
 30
0.0
 11
82.537
 21
109.417
 31
0.0
  0
ARC
  5
F7
330
386
100
AcDbEntity
  8
Contour
  6
Continuous
 62
     7
100
AcDbCircle
 10
82.0694
 20
110.8418
 30
0.0
 40
1.49956
100
AcDbArc
 50
198.21731
 51
288.16908
  0
LINE
  5
F8
330
386
100
AcDbEntity
  8
Contour
  6
Continuous
 62
     7
100
AcDbLine
 10
80.645
 20
110.373
 30
0.0
 11
74.959
 21
127.661
 31
0.0
  0
LINE
  5
F9
330
386
100
AcDbEntity
  8
Contour
  6
Continuous
 62
     7
100
AcDbLine
 10
74.959
 20
127.661
 30
0.0
 11
74.959
 21
127.661
 31
0.0
  0
ARC
  5
FA
330
386
100
AcDbEntity
  8
Contour
  6
Continuous
 62
     7
100
AcDbCircle
 10
76.3837
 20
128.1294
 30
0.0
 40
1.49972
100
AcDbArc
 50
108.21135
 51
198.19941
  0
LINE
  5
FB
330
386
100
AcDbEntity
  8
Contour
  6
Continuous
 62
     7
100
AcDbLine
 10
75.915
 20
129.554
 30
0.0
 11
83.119
 21
131.926
 31
0.0
  0
LINE
  5
FC
330
386
100
AcDbEntity
  8
Contour
  6
Continuous
 62
     7
100
AcDbLine
 10
83.119
 20
131.926
 30
0.0
 11
83.128
 21
131.93
 31
0.0
  0
LINE
  5
FD
330
386
100
AcDbEntity
  8
Contour
  6
Continuous
 62
     7
100
AcDbLine
 10
83.128
 20
131.93
 30
0.0
 11
83.198
 21
131.957
 31
0.0
  0
LINE
  5
FE
330
386
100
AcDbEntity
  8
Contour
  6
Continuous
 62
     7
100
AcDbLine
 10
83.198
 20
131.957
 30
0.0
 11
83.254
 21
131.989
 31
0.0
  0
LINE
  5
FF
330
386
100
AcDbEntity
  8
Contour
  6
Continuous
 62
     7
100
AcDbLine
 10
83.254
 20
131.989
 30
0.0
 11
83.254
 21
131.989
 31
0.0
  0
LINE
  5
100
330
386
100
AcDbEntity
  8
Contour
  6
Continuous
 62
     7
100
AcDbLine
 10
83.254
 20
131.989
 30
0.0
 11
83.258
 21
131.991
 31
0.0
  0
LINE
  5
101
330
386
100
AcDbEntity
  8
Contour
  6
Continuous
 62
     7
100
AcDbLine
 10
83.258
 20
131.991
 30
0.0
 11
83.333
 21
132.05
 31
0.0
  0
LINE
  5
102
330
386
100
AcDbEntity
  8
Contour
  6
Continuous
 62
     7
100
AcDbLine
 10
83.333
 20
132.05
 30
0.0
 11
83.413
 21
132.152
 31
0.0
  0
LINE
  5
103
330
386
100
AcDbEntity
  8
Contour
  6
Continuous
 62
     7
100
AcDbLine
 10
83.413
 20
132.152
 30
0.0
 11
83.463
 21
132.271
 31
0.0
  0
LINE
  5
104
330
386
100
AcDbEntity
  8
Contour
  6
Continuous
 62
     7
100
AcDbLine
 10
83.463
 20
132.271
 30
0.0
 11
83.482
 21
132.402
 31
0.0
  0
LINE
  5
105
330
386
100
AcDbEntity
  8
Contour
  6
Continuous
 62
     7
100
AcDbLine
 10
83.482
 20
132.402
 30
0.0
 11
83.482
 21
132.402
 31
0.0
  0
LINE
  5
106
330
386
100
AcDbEntity
  8
Contour
  6
Continuous
 62
     7
100
AcDbLine
 10
83.482
 20
132.402
 30
0.0
 11
83.472
 21
132.497
 31
0.0
  0
LINE
  5
107
330
386
100
AcDbEntity
  8
Contour
  6
Continuous
 62
     7
100
AcDbLine
 10
83.472
 20
132.497
 30
0.0
 11
83.47
 21
132.512
 31
0.0
  0
LINE
  5
108
330
386
100
AcDbEntity
  8
Contour
  6
Continuous
 62
     7
100
AcDbLine
 10
83.47
 20
132.512
 30
0.0
 11
83.458
 21
132.551
 31
0.0
  0
LINE
  5
109
330
386
100
AcDbEntity
  8
Contour
  6
Continuous
 62
     7
100
AcDbLine
 10
83.458
 20
132.551
 30
0.0
 11
78.396
 21
147.937
 31
0.0
  0
LINE
  5
10A
330
386
100
AcDbEntity
  8
Contour
  6
Continuous
 62
     7
100
AcDbLine
 10
78.396
 20
147.937
 30
0.0
 11
78.366
 21
148.015
 31
0.0
  0
LINE
  5
10B
330
386
100
AcDbEntity
  8
Contour
  6
Continuous
 62
     7
100
AcDbLine
 10
78.366
 20
148.015
 30
0.0
 11
78.335
 21
148.069
 31
0.0
  0
LINE
  5
10C
330
386
100
AcDbEntity
  8
Contour
  6
Continuous
 62
     7
100
AcDbLine
 10
78.335
 20
148.069
 30
0.0
 11
78.335
 21
148.069
 31
0.0
  0
LINE
  5
10D
330
386
100
AcDbEntity
  8
Contour
  6
Continuous
 62
     7
100
AcDbLine
 10
78.335
 20
148.069
 30
0.0
 11
78.333
 21
148.073
 31
0.0
  0
LINE
  5
10E
330
386
100
AcDbEntity
  8
Contour
  6
Continuous
 62
     7
100
AcDbLine
 10
78.333
 20
148.073
 30
0.0
 11
78.274
 21
148.148
 31
0.0
  0
LINE
  5
10F
330
386
100
AcDbEntity
  8
Contour
  6
Continuous
 62
     7
100
AcDbLine
 10
78.274
 20
148.148
 30
0.0
 11
78.172
 21
148.228
 31
0.0
  0
LINE
  5
110
330
386
100
AcDbEntity
  8
Contour
  6
Continuous
 62
     7
100
AcDbLine
 10
78.172
 20
148.228
 30
0.0
 11
78.053
 21
148.278
 31
0.0
  0
LINE
  5
111
330
386
100
AcDbEntity
  8
Contour
  6
Continuous
 62
     7
100
AcDbLine
 10
78.053
 20
148.278
 30
0.0
 11
77.922
 21
148.297
 31
0.0
  0
LINE
  5
112
330
386
100
AcDbEntity
  8
Contour
  6
Continuous
 62
     7
100
AcDbLine
 10
77.922
 20
148.297
 30
0.0
 11
77.829
 21
148.286
 31
0.0
  0
LINE
  5
113
330
386
100
AcDbEntity
  8
Contour
  6
Continuous
 62
     7
100
AcDbLine
 10
77.829
 20
148.286
 30
0.0
 11
77.817
 21
148.284
 31
0.0
  0
LINE
  5
114
330
386
100
AcDbEntity
  8
Contour
  6
Continuous
 62
     7
100
AcDbLine
 10
77.817
 20
148.284
 30
0.0
 11
77.817
 21
148.284
 31
0.0
  0
LINE
  5
115
330
386
100
AcDbEntity
  8
Contour
  6
Continuous
 62
     7
100
AcDbLine
 10
77.817
 20
148.284
 30
0.0
 11
77.791
 21
148.278
 31
0.0
  0
LINE
  5
116
330
386
100
AcDbEntity
  8
Contour
  6
Continuous
 62
     7
100
AcDbLine
 10
77.791
 20
148.278
 30
0.0
 11
75.768
 21
147.613
 31
0.0
  0
LINE
  5
117
330
386
100
AcDbEntity
  8
Contour
  6
Continuous
 62
     7
100
AcDbLine
 10
75.768
 20
147.613
 30
0.0
 11
72.064
 21
146.396
 31
0.0
  0
LINE
  5
118
330
386
100
AcDbEntity
  8
Contour
  6
Continuous
 62
     7
100
AcDbLine
 10
72.064
 20
146.396
 30
0.0
 11
70.543
 21
145.896
 31
0.0
  0
LINE
  5
119
330
386
100
AcDbEntity
  8
Contour
  6
Continuous
 62
     7
100
AcDbLine
 10
70.543
 20
145.896
 30
0.0
 11
70.543
 21
145.896
 31
0.0
  0
ARC
  5
11A
330
386
100
AcDbEntity
  8
Contour
  6
Continuous
 62
     7
100
AcDbCircle
 10
70.0754
 20
147.3208
 30
0.0
 40
1.49956
100
AcDbArc
 50
198.21731
 51
288.16908
  0
LINE
  5
11B
330
386
100
AcDbEntity
  8
Contour
  6
Continuous
 62
     7
100
AcDbLine
 10
68.651
 20
146.852
 30
0.0
 11
62.966
 21
164.14
 31
0.0
  0
LINE
  5
11C
330
386
100
AcDbEntity
  8
Contour
  6
Continuous
 62
     7
100
AcDbLine
 10
62.966
 20
164.14
 30
0.0
 11
62.966
 21
164.14
 31
0.0
  0
ARC
  5
11D
330
386
100
AcDbEntity
  8
Contour
  6
Continuous
 62
     7
100
AcDbCircle
 10
64.3907
 20
164.6084
 30
0.0
 40
1.49972
100
AcDbArc
 50
108.21135
 51
198.19941
  0
LINE
  5
11E
330
386
100
AcDbEntity
  8
Contour
  6
Continuous
 62
     7
100
AcDbLine
 10
63.922
 20
166.033
 30
0.0
 11
71.135
 21
168.409
 31
0.0
  0
LINE
  5
11F
330
386
100
AcDbEntity
  8
Contour
  6
Continuous
 62
     7
100
AcDbLine
 10
71.135
 20
168.409
 30
0.0
 11
71.209
 21
168.438
 31
0.0
  0
LINE
  5
120
330
386
100
AcDbEntity
  8
Contour
  6
Continuous
 62
     7
100
AcDbLine
 10
71.209
 20
168.438
 30
0.0
 11
71.209
 21
168.438
 31
0.0
  0
LINE
  5
121
330
386
100
AcDbEntity
  8
Contour
  6
Continuous
 62
     7
100
AcDbLine
 10
71.209
 20
168.438
 30
0.0
 11
71.262
 21
168.469
 31
0.0
  0
LINE
  5
122
330
386
100
AcDbEntity
  8
Contour
  6
Continuous
 62
     7
100
AcDbLine
 10
71.262
 20
168.469
 30
0.0
 11
71.344
 21
168.532
 31
0.0
  0
LINE
  5
123
330
386
100
AcDbEntity
  8
Contour
  6
Continuous
 62
     7
100
AcDbLine
 10
71.344
 20
168.532
 30
0.0
 11
71.42
 21
168.631
 31
0.0
  0
LINE
  5
124
330
386
100
AcDbEntity
  8
Contour
  6
Continuous
 62
     7
100
AcDbLine
 10
71.42
 20
168.631
 30
0.0
 11
71.469
 21
168.748
 31
0.0
  0
LINE
  5
125
330
386
100
AcDbEntity
  8
Contour
  6
Continuous
 62
     7
100
AcDbLine
 10
71.469
 20
168.748
 30
0.0
 11
71.488
 21
168.882
 31
0.0
  0
LINE
  5
126
330
386
100
AcDbEntity
  8
Contour
  6
Continuous
 62
     7
100
AcDbLine
 10
71.488
 20
168.882
 30
0.0
 11
71.488
 21
168.882
 31
0.0
  0
LINE
  5
127
330
386
100
AcDbEntity
  8
Contour
  6
Continuous
 62
     7
100
AcDbLine
 10
71.488
 20
168.882
 30
0.0
 11
71.477
 21
168.977
 31
0.0
  0
LINE
  5
128
330
386
100
AcDbEntity
  8
Contour
  6
Continuous
 62
     7
100
AcDbLine
 10
71.477
 20
168.977
 30
0.0
 11
71.476
 21
168.98
 31
0.0
  0
LINE
  5
129
330
386
100
AcDbEntity
  8
Contour
  6
Continuous
 62
     7
100
AcDbLine
 10
71.476
 20
168.98
 30
0.0
 11
71.463
 21
169.031
 31
0.0
  0
LINE
  5
12A
330
386
100
AcDbEntity
  8
Contour
  6
Continuous
 62
     7
100
AcDbLine
 10
71.463
 20
169.031
 30
0.0
 11
66.403
 21
184.416
 31
0.0
  0
LINE
  5
12B
330
386
100
AcDbEntity
  8
Contour
  6
Continuous
 62
     7
100
AcDbLine
 10
66.403
 20
184.416
 30
0.0
 11
66.403
 21
184.416
 31
0.0
  0
LINE
  5
12C
330
386
100
AcDbEntity
  8
Contour
  6
Continuous
 62
     7
100
AcDbLine
 10
66.403
 20
184.416
 30
0.0
 11
66.373
 21
184.494
 31
0.0
  0
LINE
  5
12D
330
386
100
AcDbEntity
  8
Contour
  6
Continuous
 62
     7
100
AcDbLine
 10
66.373
 20
184.494
 30
0.0
 11
66.372
 21
184.498
 31
0.0
  0
LINE
  5
12E
330
386
100
AcDbEntity
  8
Contour
  6
Continuous
 62
     7
100
AcDbLine
 10
66.372
 20
184.498
 30
0.0
 11
66.328
 21
184.574
 31
0.0
  0
LINE
  5
12F
330
386
100
AcDbEntity
  8
Contour
  6
Continuous
 62
     7
100
AcDbLine
 10
66.328
 20
184.574
 30
0.0
 11
66.228
 21
184.674
 31
0.0
  0
LINE
  5
130
330
386
100
AcDbEntity
  8
Contour
  6
Continuous
 62
     7
100
AcDbLine
 10
66.228
 20
184.674
 30
0.0
 11
66.122
 21
184.736
 31
0.0
  0
LINE
  5
131
330
386
100
AcDbEntity
  8
Contour
  6
Continuous
 62
     7
100
AcDbLine
 10
66.122
 20
184.736
 30
0.0
 11
66.122
 21
184.736
 31
0.0
  0
LINE
  5
132
330
386
100
AcDbEntity
  8
Contour
  6
Continuous
 62
     7
100
AcDbLine
 10
66.122
 20
184.736
 30
0.0
 11
66.035
 21
184.761
 31
0.0
  0
LINE
  5
133
330
386
100
AcDbEntity
  8
Contour
  6
Continuous
 62
     7
100
AcDbLine
 10
66.035
 20
184.761
 30
0.0
 11
65.929
 21
184.776
 31
0.0
  0
LINE
  5
134
330
386
100
AcDbEntity
  8
Contour
  6
Continuous
 62
     7
100
AcDbLine
 10
65.929
 20
184.776
 30
0.0
 11
65.929
 21
184.776
 31
0.0
  0
LINE
  5
135
330
386
100
AcDbEntity
  8
Contour
  6
Continuous
 62
     7
100
AcDbLine
 10
65.929
 20
184.776
 30
0.0
 11
65.839
 21
184.766
 31
0.0
  0
LINE
  5
136
330
386
100
AcDbEntity
  8
Contour
  6
Continuous
 62
     7
100
AcDbLine
 10
65.839
 20
184.766
 30
0.0
 11
65.834
 21
184.765
 31
0.0
  0
LINE
  5
137
330
386
100
AcDbEntity
  8
Contour
  6
Continuous
 62
     7
100
AcDbLine
 10
65.834
 20
184.765
 30
0.0
 11
65.75
 21
184.744
 31
0.0
  0
LINE
  5
138
330
386
100
AcDbEntity
  8
Contour
  6
Continuous
 62
     7
100
AcDbLine
 10
65.75
 20
184.744
 30
0.0
 11
65.735
 21
184.74
 31
0.0
  0
LINE
  5
139
330
386
100
AcDbEntity
  8
Contour
  6
Continuous
 62
     7
100
AcDbLine
 10
65.735
 20
184.74
 30
0.0
 11
58.552
 21
182.375
 31
0.0
  0
LINE
  5
13A
330
386
100
AcDbEntity
  8
Contour
  6
Continuous
 62
     7
100
AcDbLine
 10
58.552
 20
182.375
 30
0.0
 11
58.552
 21
182.375
 31
0.0
  0
ARC
  5
13B
330
386
100
AcDbEntity
  8
Contour
  6
Continuous
 62
     7
100
AcDbCircle
 10
58.0836
 20
183.7997
 30
0.0
 40
1.49972
100
AcDbArc
 50
198.21135
 51
288.19941
  0
LINE
  5
13C
330
386
100
AcDbEntity
  8
Contour
  6
Continuous
 62
     7
100
AcDbLine
 10
56.659
 20
183.331
 30
0.0
 11
50.972
 21
200.619
 31
0.0
  0
LINE
  5
13D
330
386
100
AcDbEntity
  8
Contour
  6
Continuous
 62
     7
100
AcDbLine
 10
50.972
 20
200.619
 30
0.0
 11
50.972
 21
200.619
 31
0.0
  0
ARC
  5
13E
330
386
100
AcDbEntity
  8
Contour
  6
Continuous
 62
     7
100
AcDbCircle
 10
52.3967
 20
201.0874
 30
0.0
 40
1.49972
100
AcDbArc
 50
108.21135
 51
198.19941
  0
LINE
  5
13F
330
386
100
AcDbEntity
  8
Contour
  6
Continuous
 62
     7
100
AcDbLine
 10
51.928
 20
202.512
 30
0.0
 11
59.138
 21
204.886
 31
0.0
  0
LINE
  5
140
330
386
100
AcDbEntity
  8
Contour
  6
Continuous
 62
     7
100
AcDbLine
 10
59.138
 20
204.886
 30
0.0
 11
59.147
 21
204.89
 31
0.0
  0
LINE
  5
141
330
386
100
AcDbEntity
  8
Contour
  6
Continuous
 62
     7
100
AcDbLine
 10
59.147
 20
204.89
 30
0.0
 11
59.218
 21
204.917
 31
0.0
  0
LINE
  5
142
330
386
100
AcDbEntity
  8
Contour
  6
Continuous
 62
     7
100
AcDbLine
 10
59.218
 20
204.917
 30
0.0
 11
59.218
 21
204.917
 31
0.0
  0
LINE
  5
143
330
386
100
AcDbEntity
  8
Contour
  6
Continuous
 62
     7
100
AcDbLine
 10
59.218
 20
204.917
 30
0.0
 11
59.272
 21
204.948
 31
0.0
  0
LINE
  5
144
330
386
100
AcDbEntity
  8
Contour
  6
Continuous
 62
     7
100
AcDbLine
 10
59.272
 20
204.948
 30
0.0
 11
59.356
 21
205.014
 31
0.0
  0
LINE
  5
145
330
386
100
AcDbEntity
  8
Contour
  6
Continuous
 62
     7
100
AcDbLine
 10
59.356
 20
205.014
 30
0.0
 11
59.43
 21
205.111
 31
0.0
  0
LINE
  5
146
330
386
100
AcDbEntity
  8
Contour
  6
Continuous
 62
     7
100
AcDbLine
 10
59.43
 20
205.111
 30
0.0
 11
59.481
 21
205.227
 31
0.0
  0
LINE
  5
147
330
386
100
AcDbEntity
  8
Contour
  6
Continuous
 62
     7
100
AcDbLine
 10
59.481
 20
205.227
 30
0.0
 11
59.5
 21
205.362
 31
0.0
  0
LINE
  5
148
330
386
100
AcDbEntity
  8
Contour
  6
Continuous
 62
     7
100
AcDbLine
 10
59.5
 20
205.362
 30
0.0
 11
59.5
 21
205.362
 31
0.0
  0
LINE
  5
149
330
386
100
AcDbEntity
  8
Contour
  6
Continuous
 62
     7
100
AcDbLine
 10
59.5
 20
205.362
 30
0.0
 11
59.489
 21
205.458
 31
0.0
  0
LINE
  5
14A
330
386
100
AcDbEntity
  8
Contour
  6
Continuous
 62
     7
100
AcDbLine
 10
59.489
 20
205.458
 30
0.0
 11
59.488
 21
205.461
 31
0.0
  0
LINE
  5
14B
330
386
100
AcDbEntity
  8
Contour
  6
Continuous
 62
     7
100
AcDbLine
 10
59.488
 20
205.461
 30
0.0
 11
59.475
 21
205.512
 31
0.0
  0
LINE
  5
14C
330
386
100
AcDbEntity
  8
Contour
  6
Continuous
 62
     7
100
AcDbLine
 10
59.475
 20
205.512
 30
0.0
 11
54.415
 21
220.897
 31
0.0
  0
LINE
  5
14D
330
386
100
AcDbEntity
  8
Contour
  6
Continuous
 62
     7
100
AcDbLine
 10
54.415
 20
220.897
 30
0.0
 11
54.385
 21
220.975
 31
0.0
  0
LINE
  5
14E
330
386
100
AcDbEntity
  8
Contour
  6
Continuous
 62
     7
100
AcDbLine
 10
54.385
 20
220.975
 30
0.0
 11
54.355
 21
221.027
 31
0.0
  0
LINE
  5
14F
330
386
100
AcDbEntity
  8
Contour
  6
Continuous
 62
     7
100
AcDbLine
 10
54.355
 20
221.027
 30
0.0
 11
54.354
 21
221.029
 31
0.0
  0
LINE
  5
150
330
386
100
AcDbEntity
  8
Contour
  6
Continuous
 62
     7
100
AcDbLine
 10
54.354
 20
221.029
 30
0.0
 11
54.354
 21
221.029
 31
0.0
  0
LINE
  5
151
330
386
100
AcDbEntity
  8
Contour
  6
Continuous
 62
     7
100
AcDbLine
 10
54.354
 20
221.029
 30
0.0
 11
54.313
 21
221.082
 31
0.0
  0
LINE
  5
152
330
386
100
AcDbEntity
  8
Contour
  6
Continuous
 62
     7
100
AcDbLine
 10
54.313
 20
221.082
 30
0.0
 11
54.29
 21
221.11
 31
0.0
  0
LINE
  5
153
330
386
100
AcDbEntity
  8
Contour
  6
Continuous
 62
     7
100
AcDbLine
 10
54.29
 20
221.11
 30
0.0
 11
54.29
 21
221.11
 31
0.0
  0
LINE
  5
154
330
386
100
AcDbEntity
  8
Contour
  6
Continuous
 62
     7
100
AcDbLine
 10
54.29
 20
221.11
 30
0.0
 11
54.217
 21
221.168
 31
0.0
  0
LINE
  5
155
330
386
100
AcDbEntity
  8
Contour
  6
Continuous
 62
     7
100
AcDbLine
 10
54.217
 20
221.168
 30
0.0
 11
54.133
 21
221.217
 31
0.0
  0
LINE
  5
156
330
386
100
AcDbEntity
  8
Contour
  6
Continuous
 62
     7
100
AcDbLine
 10
54.133
 20
221.217
 30
0.0
 11
54.133
 21
221.217
 31
0.0
  0
LINE
  5
157
330
386
100
AcDbEntity
  8
Contour
  6
Continuous
 62
     7
100
AcDbLine
 10
54.133
 20
221.217
 30
0.0
 11
54.047
 21
221.242
 31
0.0
  0
LINE
  5
158
330
386
100
AcDbEntity
  8
Contour
  6
Continuous
 62
     7
100
AcDbLine
 10
54.047
 20
221.242
 30
0.0
 11
53.941
 21
221.257
 31
0.0
  0
LINE
  5
159
330
386
100
AcDbEntity
  8
Contour
  6
Continuous
 62
     7
100
AcDbLine
 10
53.941
 20
221.257
 30
0.0
 11
53.941
 21
221.257
 31
0.0
  0
LINE
  5
15A
330
386
100
AcDbEntity
  8
Contour
  6
Continuous
 62
     7
100
AcDbLine
 10
53.941
 20
221.257
 30
0.0
 11
53.851
 21
221.247
 31
0.0
  0
LINE
  5
15B
330
386
100
AcDbEntity
  8
Contour
  6
Continuous
 62
     7
100
AcDbLine
 10
53.851
 20
221.247
 30
0.0
 11
53.846
 21
221.246
 31
0.0
  0
LINE
  5
15C
330
386
100
AcDbEntity
  8
Contour
  6
Continuous
 62
     7
100
AcDbLine
 10
53.846
 20
221.246
 30
0.0
 11
53.762
 21
221.225
 31
0.0
  0
LINE
  5
15D
330
386
100
AcDbEntity
  8
Contour
  6
Continuous
 62
     7
100
AcDbLine
 10
53.762
 20
221.225
 30
0.0
 11
53.747
 21
221.221
 31
0.0
  0
LINE
  5
15E
330
386
100
AcDbEntity
  8
Contour
  6
Continuous
 62
     7
100
AcDbLine
 10
53.747
 20
221.221
 30
0.0
 11
46.597
 21
218.866
 31
0.0
  0
LINE
  5
15F
330
386
100
AcDbEntity
  8
Contour
  6
Continuous
 62
     7
100
AcDbLine
 10
46.597
 20
218.866
 30
0.0
 11
46.597
 21
218.866
 31
0.0
  0
ARC
  5
160
330
386
100
AcDbEntity
  8
Contour
  6
Continuous
 62
     7
100
AcDbCircle
 10
46.1288
 20
220.2906
 30
0.0
 40
1.49956
100
AcDbArc
 50
198.16909
 51
288.19345
  0
LINE
  5
161
330
386
100
AcDbEntity
  8
Contour
  6
Continuous
 62
     7
100
AcDbLine
 10
44.704
 20
219.823
 30
0.0
 11
43.306
 21
224.075
 31
0.0
  0
LINE
  5
162
330
386
100
AcDbEntity
  8
Contour
  6
Continuous
 62
     7
100
AcDbLine
 10
43.306
 20
224.075
 30
0.0
 11
40.42
 21
232.851
 31
0.0
  0
LINE
  5
163
330
386
100
AcDbEntity
  8
Contour
  6
Continuous
 62
     7
100
AcDbLine
 10
40.42
 20
232.851
 30
0.0
 11
39.02
 21
237.104
 31
0.0
  0
LINE
  5
164
330
386
100
AcDbEntity
  8
Contour
  6
Continuous
 62
     7
100
AcDbLine
 10
39.02
 20
237.104
 30
0.0
 11
39.02
 21
237.104
 31
0.0
  0
ARC
  5
165
330
386
100
AcDbEntity
  8
Contour
  6
Continuous
 62
     7
100
AcDbCircle
 10
40.4446
 20
237.5722
 30
0.0
 40
1.49956
100
AcDbArc
 50
108.16909
 51
198.19345
  0
LINE
  5
166
330
386
100
AcDbEntity
  8
Contour
  6
Continuous
 62
     7
100
AcDbLine
 10
39.977
 20
238.997
 30
0.0
 11
48.905
 21
241.928
 31
0.0
  0
LINE
  5
167
330
386
100
AcDbEntity
  8
Contour
  6
Continuous
 62
     7
100
AcDbLine
 10
48.905
 20
241.928
 30
0.0
 11
48.905
 21
241.928
 31
0.0
  0
LINE
  5
168
330
386
100
AcDbEntity
  8
Contour
  6
Continuous
 62
     7
100
AcDbLine
 10
48.905
 20
241.928
 30
0.0
 11
66.366
 21
247.661
 31
0.0
  0
LINE
  5
169
330
386
100
AcDbEntity
  8
Contour
  6
Continuous
 62
     7
100
AcDbLine
 10
66.366
 20
247.661
 30
0.0
 11
75.768
 21
250.749
 31
0.0
  0
LINE
  5
16A
330
386
100
AcDbEntity
  8
Contour
  6
Continuous
 62
     7
100
AcDbLine
 10
75.768
 20
250.749
 30
0.0
 11
148.419
 21
274.661
 31
0.0
  0
LINE
  5
16B
330
386
100
AcDbEntity
  8
Contour
  6
Continuous
 62
     7
100
AcDbLine
 10
148.419
 20
274.661
 30
0.0
 11
148.419
 21
274.661
 31
0.0
  0
ARC
  5
16C
330
386
100
AcDbEntity
  8
Contour
  6
Continuous
 62
     7
100
AcDbCircle
 10
148.8874
 20
273.2363
 30
0.0
 40
1.49972
100
AcDbArc
 50
18.21135
 51
108.19941
  0
LINE
  5
16D
330
386
100
AcDbEntity
  8
Contour
  6
Continuous
 62
     7
100
AcDbLine
 10
150.312
 20
273.705
 30
0.0
 11
155.989
 21
256.456
 31
0.0
  0
LINE
  5
16E
330
386
100
AcDbEntity
  8
Contour
  6
Continuous
 62
     7
100
AcDbLine
 10
155.989
 20
256.456
 30
0.0
 11
156.021
 21
256.376
 31
0.0
  0
LINE
  5
16F
330
386
100
AcDbEntity
  8
Contour
  6
Continuous
 62
     7
100
AcDbLine
 10
156.021
 20
256.376
 30
0.0
 11
156.038
 21
256.346
 31
0.0
  0
LINE
  5
170
330
386
100
AcDbEntity
  8
Contour
  6
Continuous
 62
     7
100
AcDbLine
 10
156.038
 20
256.346
 30
0.0
 11
156.049
 21
256.326
 31
0.0
  0
LINE
  5
171
330
386
100
AcDbEntity
  8
Contour
  6
Continuous
 62
     7
100
AcDbLine
 10
156.049
 20
256.326
 30
0.0
 11
156.111
 21
256.245
 31
0.0
  0
LINE
  5
172
330
386
100
AcDbEntity
  8
Contour
  6
Continuous
 62
     7
100
AcDbLine
 10
156.111
 20
256.245
 30
0.0
 11
156.212
 21
256.168
 31
0.0
  0
LINE
  5
173
330
386
100
AcDbEntity
  8
Contour
  6
Continuous
 62
     7
100
AcDbLine
 10
156.212
 20
256.168
 30
0.0
 11
156.326
 21
256.118
 31
0.0
  0
LINE
  5
174
330
386
100
AcDbEntity
  8
Contour
  6
Continuous
 62
     7
100
AcDbLine
 10
156.326
 20
256.118
 30
0.0
 11
156.461
 21
256.099
 31
0.0
  0
LINE
  5
175
330
386
100
AcDbEntity
  8
Contour
  6
Continuous
 62
     7
100
AcDbLine
 10
156.461
 20
256.099
 30
0.0
 11
156.461
 21
256.099
 31
0.0
  0
LINE
  5
176
330
386
100
AcDbEntity
  8
Contour
  6
Continuous
 62
     7
100
AcDbLine
 10
156.461
 20
256.099
 30
0.0
 11
156.574
 21
256.111
 31
0.0
  0
LINE
  5
177
330
386
100
AcDbEntity
  8
Contour
  6
Continuous
 62
     7
100
AcDbLine
 10
156.574
 20
256.111
 30
0.0
 11
158.616
 21
256.783
 31
0.0
  0
LINE
  5
178
330
386
100
AcDbEntity
  8
Contour
  6
Continuous
 62
     7
100
AcDbLine
 10
158.616
 20
256.783
 30
0.0
 11
162.32
 21
258.0
 31
0.0
  0
LINE
  5
179
330
386
100
AcDbEntity
  8
Contour
  6
Continuous
 62
     7
100
AcDbLine
 10
162.32
 20
258.0
 30
0.0
 11
163.839
 21
258.499
 31
0.0
  0
LINE
  5
17A
330
386
100
AcDbEntity
  8
Contour
  6
Continuous
 62
     7
100
AcDbLine
 10
163.839
 20
258.499
 30
0.0
 11
163.839
 21
258.499
 31
0.0
  0
ARC
  5
17B
330
386
100
AcDbEntity
  8
Contour
  6
Continuous
 62
     7
100
AcDbCircle
 10
164.3066
 20
257.0742
 30
0.0
 40
1.49956
100
AcDbArc
 50
18.21731
 51
108.16908
  0
LINE
  5
17C
330
386
100
AcDbEntity
  8
Contour
  6
Continuous
 62
     7
100
AcDbLine
 10
165.731
 20
257.543
 30
0.0
 11
170.953
 21
241.673
 31
0.0
  0
LINE
  5
17D
330
386
100
AcDbEntity
  8
Contour
  6
Continuous
 62
     7
100
AcDbLine
 10
170.953
 20
241.673
 30
0.0
 11
199.198
 21
250.949
 31
0.0
  0
LINE
  5
17E
330
386
100
AcDbEntity
  8
Contour
  6
Continuous
 62
     7
100
AcDbLine
 10
199.198
 20
250.949
 30
0.0
 11
271.848
 21
274.86
 31
0.0
  0
LINE
  5
17F
330
386
100
AcDbEntity
  8
Contour
  6
Continuous
 62
     7
100
AcDbLine
 10
271.848
 20
274.86
 30
0.0
 11
271.848
 21
274.86
 31
0.0
  0
ARC
  5
180
330
386
100
AcDbEntity
  8
Contour
  6
Continuous
 62
     7
100
AcDbCircle
 10
272.3164
 20
273.4353
 30
0.0
 40
1.49972
100
AcDbArc
 50
18.21135
 51
108.19941
  0
LINE
  5
181
330
386
100
AcDbEntity
  8
Contour
  6
Continuous
 62
     7
100
AcDbLine
 10
273.741
 20
273.904
 30
0.0
 11
279.417
 21
256.658
 31
0.0
  0
LINE
  5
182
330
386
100
AcDbEntity
  8
Contour
  6
Continuous
 62
     7
100
AcDbLine
 10
279.417
 20
256.658
 30
0.0
 11
279.447
 21
256.581
 31
0.0
  0
LINE
  5
183
330
386
100
AcDbEntity
  8
Contour
  6
Continuous
 62
     7
100
AcDbLine
 10
279.447
 20
256.581
 30
0.0
 11
279.448
 21
256.578
 31
0.0
  0
LINE
  5
184
330
386
100
AcDbEntity
  8
Contour
  6
Continuous
 62
     7
100
AcDbLine
 10
279.448
 20
256.578
 30
0.0
 11
279.478
 21
256.526
 31
0.0
  0
LINE
  5
185
330
386
100
AcDbEntity
  8
Contour
  6
Continuous
 62
     7
100
AcDbLine
 10
279.478
 20
256.526
 30
0.0
 11
279.478
 21
256.526
 31
0.0
  0
LINE
  5
186
330
386
100
AcDbEntity
  8
Contour
  6
Continuous
 62
     7
100
AcDbLine
 10
279.478
 20
256.526
 30
0.0
 11
279.48
 21
256.522
 31
0.0
  0
LINE
  5
187
330
386
100
AcDbEntity
  8
Contour
  6
Continuous
 62
     7
100
AcDbLine
 10
279.48
 20
256.522
 30
0.0
 11
279.539
 21
256.447
 31
0.0
  0
LINE
  5
188
330
386
100
AcDbEntity
  8
Contour
  6
Continuous
 62
     7
100
AcDbLine
 10
279.539
 20
256.447
 30
0.0
 11
279.641
 21
256.367
 31
0.0
  0
LINE
  5
189
330
386
100
AcDbEntity
  8
Contour
  6
Continuous
 62
     7
100
AcDbLine
 10
279.641
 20
256.367
 30
0.0
 11
279.76
 21
256.317
 31
0.0
  0
LINE
  5
18A
330
386
100
AcDbEntity
  8
Contour
  6
Continuous
 62
     7
100
AcDbLine
 10
279.76
 20
256.317
 30
0.0
 11
279.892
 21
256.298
 31
0.0
  0
LINE
  5
18B
330
386
100
AcDbEntity
  8
Contour
  6
Continuous
 62
     7
100
AcDbLine
 10
279.892
 20
256.298
 30
0.0
 11
279.892
 21
256.298
 31
0.0
  0
LINE
  5
18C
330
386
100
AcDbEntity
  8
Contour
  6
Continuous
 62
     7
100
AcDbLine
 10
279.892
 20
256.298
 30
0.0
 11
280.003
 21
256.31
 31
0.0
  0
LINE
  5
18D
330
386
100
AcDbEntity
  8
Contour
  6
Continuous
 62
     7
100
AcDbLine
 10
280.003
 20
256.31
 30
0.0
 11
282.045
 21
256.982
 31
0.0
  0
LINE
  5
18E
330
386
100
AcDbEntity
  8
Contour
  6
Continuous
 62
     7
100
AcDbLine
 10
282.045
 20
256.982
 30
0.0
 11
285.749
 21
258.199
 31
0.0
  0
LINE
  5
18F
330
386
100
AcDbEntity
  8
Contour
  6
Continuous
 62
     7
100
AcDbLine
 10
285.749
 20
258.199
 30
0.0
 11
287.271
 21
258.699
 31
0.0
  0
LINE
  5
190
330
386
100
AcDbEntity
  8
Contour
  6
Continuous
 62
     7
100
AcDbLine
 10
287.271
 20
258.699
 30
0.0
 11
287.271
 21
258.699
 31
0.0
  0
ARC
  5
191
330
386
100
AcDbEntity
  8
Contour
  6
Continuous
 62
     7
100
AcDbCircle
 10
287.7384
 20
257.2743
 30
0.0
 40
1.49941
100
AcDbArc
 50
18.17504
 51
108.16311
  0
LINE
  5
192
330
386
100
AcDbEntity
  8
Contour
  6
Continuous
 62
     7
100
AcDbLine
 10
289.163
 20
257.742
 30
0.0
 11
290.404
 21
253.963
 31
0.0
  0
LINE
  5
193
330
386
100
AcDbEntity
  8
Contour
  6
Continuous
 62
     7
100
AcDbLine
 10
290.404
 20
253.963
 30
0.0
 11
290.404
 21
253.963
 31
0.0
  0
LINE
  5
194
330
386
100
AcDbEntity
  8
Contour
  6
Continuous
 62
     7
100
AcDbLine
 10
290.404
 20
253.963
 30
0.0
 11
293.004
 21
246.062
 31
0.0
  0
LINE
  5
195
330
386
100
AcDbEntity
  8
Contour
  6
Continuous
 62
     7
100
AcDbLine
 10
293.004
 20
246.062
 30
0.0
 11
294.403
 21
241.807
 31
0.0
  0
LINE
  5
196
330
386
100
AcDbEntity
  8
Contour
  6
Continuous
 62
     7
100
AcDbLine
 10
294.403
 20
241.807
 30
0.0
 11
322.48
 21
251.027
 31
0.0
  0
LINE
  5
197
330
386
100
AcDbEntity
  8
Contour
  6
Continuous
 62
     7
100
AcDbLine
 10
322.48
 20
251.027
 30
0.0
 11
395.13
 21
274.938
 31
0.0
  0
LINE
  5
198
330
386
100
AcDbEntity
  8
Contour
  6
Continuous
 62
     7
100
AcDbLine
 10
395.13
 20
274.938
 30
0.0
 11
395.13
 21
274.938
 31
0.0
  0
ARC
  5
199
330
386
100
AcDbEntity
  8
Contour
  6
Continuous
 62
     7
100
AcDbCircle
 10
395.5984
 20
273.5133
 30
0.0
 40
1.49972
100
AcDbArc
 50
18.21135
 51
108.19941
  0
LINE
  5
19A
330
386
100
AcDbEntity
  8
Contour
  6
Continuous
 62
     7
100
AcDbLine
 10
397.023
 20
273.982
 30
0.0
 11
402.703
 21
256.726
 31
0.0
  0
LINE
  5
19B
330
386
100
AcDbEntity
  8
Contour
  6
Continuous
 62
     7
100
AcDbLine
 10
402.703
 20
256.726
 30
0.0
 11
402.731
 21
256.654
 31
0.0
  0
LINE
  5
19C
330
386
100
AcDbEntity
  8
Contour
  6
Continuous
 62
     7
100
AcDbLine
 10
402.731
 20
256.654
 30
0.0
 11
402.731
 21
256.654
 31
0.0
  0
LINE
  5
19D
330
386
100
AcDbEntity
  8
Contour
  6
Continuous
 62
     7
100
AcDbLine
 10
402.731
 20
256.654
 30
0.0
 11
402.762
 21
256.6
 31
0.0
  0
LINE
  5
19E
330
386
100
AcDbEntity
  8
Contour
  6
Continuous
 62
     7
100
AcDbLine
 10
402.762
 20
256.6
 30
0.0
 11
402.82
 21
256.524
 31
0.0
  0
LINE
  5
19F
330
386
100
AcDbEntity
  8
Contour
  6
Continuous
 62
     7
100
AcDbLine
 10
402.82
 20
256.524
 30
0.0
 11
402.92
 21
256.448
 31
0.0
  0
LINE
  5
1A0
330
386
100
AcDbEntity
  8
Contour
  6
Continuous
 62
     7
100
AcDbLine
 10
402.92
 20
256.448
 30
0.0
 11
403.045
 21
256.395
 31
0.0
  0
LINE
  5
1A1
330
386
100
AcDbEntity
  8
Contour
  6
Continuous
 62
     7
100
AcDbLine
 10
403.045
 20
256.395
 30
0.0
 11
403.173
 21
256.377
 31
0.0
  0
LINE
  5
1A2
330
386
100
AcDbEntity
  8
Contour
  6
Continuous
 62
     7
100
AcDbLine
 10
403.173
 20
256.377
 30
0.0
 11
403.173
 21
256.377
 31
0.0
  0
LINE
  5
1A3
330
386
100
AcDbEntity
  8
Contour
  6
Continuous
 62
     7
100
AcDbLine
 10
403.173
 20
256.377
 30
0.0
 11
403.285
 21
256.389
 31
0.0
  0
LINE
  5
1A4
330
386
100
AcDbEntity
  8
Contour
  6
Continuous
 62
     7
100
AcDbLine
 10
403.285
 20
256.389
 30
0.0
 11
405.327
 21
257.061
 31
0.0
  0
LINE
  5
1A5
330
386
100
AcDbEntity
  8
Contour
  6
Continuous
 62
     7
100
AcDbLine
 10
405.327
 20
257.061
 30
0.0
 11
409.031
 21
258.278
 31
0.0
  0
LINE
  5
1A6
330
386
100
AcDbEntity
  8
Contour
  6
Continuous
 62
     7
100
AcDbLine
 10
409.031
 20
258.278
 30
0.0
 11
410.553
 21
258.778
 31
0.0
  0
LINE
  5
1A7
330
386
100
AcDbEntity
  8
Contour
  6
Continuous
 62
     7
100
AcDbLine
 10
410.553
 20
258.778
 30
0.0
 11
410.553
 21
258.778
 31
0.0
  0
ARC
  5
1A8
330
386
100
AcDbEntity
  8
Contour
  6
Continuous
 62
     7
100
AcDbCircle
 10
411.0204
 20
257.3533
 30
0.0
 40
1.49941
100
AcDbArc
 50
18.17504
 51
108.16311
  0
LINE
  5
1A9
330
386
100
AcDbEntity
  8
Contour
  6
Continuous
 62
     7
100
AcDbLine
 10
412.445
 20
257.821
 30
0.0
 11
413.683
 21
254.051
 31
0.0
  0
LINE
  5
1AA
330
386
100
AcDbEntity
  8
Contour
  6
Continuous
 62
     7
100
AcDbLine
 10
413.683
 20
254.051
 30
0.0
 11
413.683
 21
254.051
 31
0.0
  0
LINE
  5
1AB
330
386
100
AcDbEntity
  8
Contour
  6
Continuous
 62
     7
100
AcDbLine
 10
413.683
 20
254.051
 30
0.0
 11
416.277
 21
246.168
 31
0.0
  0
LINE
  5
1AC
330
386
100
AcDbEntity
  8
Contour
  6
Continuous
 62
     7
100
AcDbLine
 10
416.277
 20
246.168
 30
0.0
 11
417.673
 21
241.923
 31
0.0
  0
LINE
  5
1AD
330
386
100
AcDbEntity
  8
Contour
  6
Continuous
 62
     7
100
AcDbLine
 10
417.673
 20
241.923
 30
0.0
 11
445.803
 21
251.161
 31
0.0
  0
LINE
  5
1AE
330
386
100
AcDbEntity
  8
Contour
  6
Continuous
 62
     7
100
AcDbLine
 10
445.803
 20
251.161
 30
0.0
 11
518.453
 21
275.072
 31
0.0
  0
LINE
  5
1AF
330
386
100
AcDbEntity
  8
Contour
  6
Continuous
 62
     7
100
AcDbLine
 10
518.453
 20
275.072
 30
0.0
 11
518.453
 21
275.072
 31
0.0
  0
ARC
  5
1B0
330
386
100
AcDbEntity
  8
Contour
  6
Continuous
 62
     7
100
AcDbCircle
 10
518.9214
 20
273.6473
 30
0.0
 40
1.49972
100
AcDbArc
 50
18.21135
 51
108.19941
  0
LINE
  5
1B1
330
386
100
AcDbEntity
  8
Contour
  6
Continuous
 62
     7
100
AcDbLine
 10
520.346
 20
274.116
 30
0.0
 11
526.022
 21
256.87
 31
0.0
  0
LINE
  5
1B2
330
386
100
AcDbEntity
  8
Contour
  6
Continuous
 62
     7
100
AcDbLine
 10
526.022
 20
256.87
 30
0.0
 11
526.022
 21
256.87
 31
0.0
  0
LINE
  5
1B3
330
386
100
AcDbEntity
  8
Contour
  6
Continuous
 62
     7
100
AcDbLine
 10
526.022
 20
256.87
 30
0.0
 11
526.052
 21
256.793
 31
0.0
  0
LINE
  5
1B4
330
386
100
AcDbEntity
  8
Contour
  6
Continuous
 62
     7
100
AcDbLine
 10
526.052
 20
256.793
 30
0.0
 11
526.055
 21
256.786
 31
0.0
  0
LINE
  5
1B5
330
386
100
AcDbEntity
  8
Contour
  6
Continuous
 62
     7
100
AcDbLine
 10
526.055
 20
256.786
 30
0.0
 11
526.097
 21
256.712
 31
0.0
  0
LINE
  5
1B6
330
386
100
AcDbEntity
  8
Contour
  6
Continuous
 62
     7
100
AcDbLine
 10
526.097
 20
256.712
 30
0.0
 11
526.196
 21
256.613
 31
0.0
  0
LINE
  5
1B7
330
386
100
AcDbEntity
  8
Contour
  6
Continuous
 62
     7
100
AcDbLine
 10
526.196
 20
256.613
 30
0.0
 11
526.305
 21
256.551
 31
0.0
  0
LINE
  5
1B8
330
386
100
AcDbEntity
  8
Contour
  6
Continuous
 62
     7
100
AcDbLine
 10
526.305
 20
256.551
 30
0.0
 11
526.305
 21
256.551
 31
0.0
  0
LINE
  5
1B9
330
386
100
AcDbEntity
  8
Contour
  6
Continuous
 62
     7
100
AcDbLine
 10
526.305
 20
256.551
 30
0.0
 11
526.395
 21
256.525
 31
0.0
  0
LINE
  5
1BA
330
386
100
AcDbEntity
  8
Contour
  6
Continuous
 62
     7
100
AcDbLine
 10
526.395
 20
256.525
 30
0.0
 11
526.498
 21
256.51
 31
0.0
  0
LINE
  5
1BB
330
386
100
AcDbEntity
  8
Contour
  6
Continuous
 62
     7
100
AcDbLine
 10
526.498
 20
256.51
 30
0.0
 11
526.498
 21
256.51
 31
0.0
  0
LINE
  5
1BC
330
386
100
AcDbEntity
  8
Contour
  6
Continuous
 62
     7
100
AcDbLine
 10
526.498
 20
256.51
 30
0.0
 11
526.586
 21
256.52
 31
0.0
  0
LINE
  5
1BD
330
386
100
AcDbEntity
  8
Contour
  6
Continuous
 62
     7
100
AcDbLine
 10
526.586
 20
256.52
 30
0.0
 11
526.591
 21
256.521
 31
0.0
  0
LINE
  5
1BE
330
386
100
AcDbEntity
  8
Contour
  6
Continuous
 62
     7
100
AcDbLine
 10
526.591
 20
256.521
 30
0.0
 11
526.675
 21
256.542
 31
0.0
  0
LINE
  5
1BF
330
386
100
AcDbEntity
  8
Contour
  6
Continuous
 62
     7
100
AcDbLine
 10
526.675
 20
256.542
 30
0.0
 11
526.69
 21
256.546
 31
0.0
  0
LINE
  5
1C0
330
386
100
AcDbEntity
  8
Contour
  6
Continuous
 62
     7
100
AcDbLine
 10
526.69
 20
256.546
 30
0.0
 11
533.877
 21
258.911
 31
0.0
  0
LINE
  5
1C1
330
386
100
AcDbEntity
  8
Contour
  6
Continuous
 62
     7
100
AcDbLine
 10
533.877
 20
258.911
 30
0.0
 11
533.877
 21
258.911
 31
0.0
  0
ARC
  5
1C2
330
386
100
AcDbEntity
  8
Contour
  6
Continuous
 62
     7
100
AcDbCircle
 10
534.3444
 20
257.4863
 30
0.0
 40
1.49941
100
AcDbArc
 50
18.17504
 51
108.16311
  0
LINE
  5
1C3
330
386
100
AcDbEntity
  8
Contour
  6
Continuous
 62
     7
100
AcDbLine
 10
535.769
 20
257.954
 30
0.0
 11
537.006
 21
254.19
 31
0.0
  0
LINE
  5
1C4
330
386
100
AcDbEntity
  8
Contour
  6
Continuous
 62
     7
100
AcDbLine
 10
537.006
 20
254.19
 30
0.0
 11
537.006
 21
254.19
 31
0.0
  0
LINE
  5
1C5
330
386
100
AcDbEntity
  8
Contour
  6
Continuous
 62
     7
100
AcDbLine
 10
537.006
 20
254.19
 30
0.0
 11
539.595
 21
246.315
 31
0.0
  0
LINE
  5
1C6
330
386
100
AcDbEntity
  8
Contour
  6
Continuous
 62
     7
100
AcDbLine
 10
539.595
 20
246.315
 30
0.0
 11
540.99
 21
242.075
 31
0.0
  0
LINE
  5
1C7
330
386
100
AcDbEntity
  8
Contour
  6
Continuous
 62
     7
100
AcDbLine
 10
540.99
 20
242.075
 30
0.0
 11
569.082
 21
251.301
 31
0.0
  0
LINE
  5
1C8
330
386
100
AcDbEntity
  8
Contour
  6
Continuous
 62
     7
100
AcDbLine
 10
569.082
 20
251.301
 30
0.0
 11
641.732
 21
275.212
 31
0.0
  0
LINE
  5
1C9
330
386
100
AcDbEntity
  8
Contour
  6
Continuous
 62
     7
100
AcDbLine
 10
641.732
 20
275.212
 30
0.0
 11
641.732
 21
275.212
 31
0.0
  0
ARC
  5
1CA
330
386
100
AcDbEntity
  8
Contour
  6
Continuous
 62
     7
100
AcDbCircle
 10
642.2004
 20
273.7873
 30
0.0
 40
1.49972
100
AcDbArc
 50
18.21135
 51
108.19941
  0
LINE
  5
1CB
330
386
100
AcDbEntity
  8
Contour
  6
Continuous
 62
     7
100
AcDbLine
 10
643.625
 20
274.256
 30
0.0
 11
649.301
 21
257.01
 31
0.0
  0
LINE
  5
1CC
330
386
100
AcDbEntity
  8
Contour
  6
Continuous
 62
     7
100
AcDbLine
 10
649.301
 20
257.01
 30
0.0
 11
649.301
 21
257.01
 31
0.0
  0
LINE
  5
1CD
330
386
100
AcDbEntity
  8
Contour
  6
Continuous
 62
     7
100
AcDbLine
 10
649.301
 20
257.01
 30
0.0
 11
649.331
 21
256.933
 31
0.0
  0
LINE
  5
1CE
330
386
100
AcDbEntity
  8
Contour
  6
Continuous
 62
     7
100
AcDbLine
 10
649.331
 20
256.933
 30
0.0
 11
649.334
 21
256.926
 31
0.0
  0
LINE
  5
1CF
330
386
100
AcDbEntity
  8
Contour
  6
Continuous
 62
     7
100
AcDbLine
 10
649.334
 20
256.926
 30
0.0
 11
649.376
 21
256.852
 31
0.0
  0
LINE
  5
1D0
330
386
100
AcDbEntity
  8
Contour
  6
Continuous
 62
     7
100
AcDbLine
 10
649.376
 20
256.852
 30
0.0
 11
649.475
 21
256.753
 31
0.0
  0
LINE
  5
1D1
330
386
100
AcDbEntity
  8
Contour
  6
Continuous
 62
     7
100
AcDbLine
 10
649.475
 20
256.753
 30
0.0
 11
649.584
 21
256.691
 31
0.0
  0
LINE
  5
1D2
330
386
100
AcDbEntity
  8
Contour
  6
Continuous
 62
     7
100
AcDbLine
 10
649.584
 20
256.691
 30
0.0
 11
649.584
 21
256.691
 31
0.0
  0
LINE
  5
1D3
330
386
100
AcDbEntity
  8
Contour
  6
Continuous
 62
     7
100
AcDbLine
 10
649.584
 20
256.691
 30
0.0
 11
649.674
 21
256.665
 31
0.0
  0
LINE
  5
1D4
330
386
100
AcDbEntity
  8
Contour
  6
Continuous
 62
     7
100
AcDbLine
 10
649.674
 20
256.665
 30
0.0
 11
649.777
 21
256.65
 31
0.0
  0
LINE
  5
1D5
330
386
100
AcDbEntity
  8
Contour
  6
Continuous
 62
     7
100
AcDbLine
 10
649.777
 20
256.65
 30
0.0
 11
649.777
 21
256.65
 31
0.0
  0
LINE
  5
1D6
330
386
100
AcDbEntity
  8
Contour
  6
Continuous
 62
     7
100
AcDbLine
 10
649.777
 20
256.65
 30
0.0
 11
649.871
 21
256.661
 31
0.0
  0
LINE
  5
1D7
330
386
100
AcDbEntity
  8
Contour
  6
Continuous
 62
     7
100
AcDbLine
 10
649.871
 20
256.661
 30
0.0
 11
649.886
 21
256.662
 31
0.0
  0
LINE
  5
1D8
330
386
100
AcDbEntity
  8
Contour
  6
Continuous
 62
     7
100
AcDbLine
 10
649.886
 20
256.662
 30
0.0
 11
649.925
 21
256.674
 31
0.0
  0
LINE
  5
1D9
330
386
100
AcDbEntity
  8
Contour
  6
Continuous
 62
     7
100
AcDbLine
 10
649.925
 20
256.674
 30
0.0
 11
657.152
 21
259.051
 31
0.0
  0
LINE
  5
1DA
330
386
100
AcDbEntity
  8
Contour
  6
Continuous
 62
     7
100
AcDbLine
 10
657.152
 20
259.051
 30
0.0
 11
657.152
 21
259.051
 31
0.0
  0
ARC
  5
1DB
330
386
100
AcDbEntity
  8
Contour
  6
Continuous
 62
     7
100
AcDbCircle
 10
657.6204
 20
257.6263
 30
0.0
 40
1.49972
100
AcDbArc
 50
18.21135
 51
108.19941
  0
LINE
  5
1DC
330
386
100
AcDbEntity
  8
Contour
  6
Continuous
 62
     7
100
AcDbLine
 10
659.045
 20
258.095
 30
0.0
 11
664.132
 21
242.631
 31
0.0
  0
LINE
  5
1DD
330
386
100
AcDbEntity
  8
Contour
  6
Continuous
 62
     7
100
AcDbLine
 10
664.132
 20
242.631
 30
0.0
 11
664.132
 21
242.631
 31
0.0
  0
ARC
  5
1DE
330
386
100
AcDbEntity
  8
Contour
  6
Continuous
 62
     7
100
AcDbCircle
 10
662.7073
 20
242.1626
 30
0.0
 40
1.49972
100
AcDbArc
 50
288.21135
 51
18.19941
  0
LINE
  5
1DF
330
386
100
AcDbEntity
  8
Contour
  6
Continuous
 62
     7
100
AcDbLine
 10
663.176
 20
240.738
 30
0.0
 11
655.967
 21
238.364
 31
0.0
  0
LINE
  5
1E0
330
386
100
AcDbEntity
  8
Contour
  6
Continuous
 62
     7
100
AcDbLine
 10
655.967
 20
238.364
 30
0.0
 11
655.89
 21
238.333
 31
0.0
  0
LINE
  5
1E1
330
386
100
AcDbEntity
  8
Contour
  6
Continuous
 62
     7
100
AcDbLine
 10
655.89
 20
238.333
 30
0.0
 11
655.839
 21
238.304
 31
0.0
  0
LINE
  5
1E2
330
386
100
AcDbEntity
  8
Contour
  6
Continuous
 62
     7
100
AcDbLine
 10
655.839
 20
238.304
 30
0.0
 11
655.756
 21
238.241
 31
0.0
  0
LINE
  5
1E3
330
386
100
AcDbEntity
  8
Contour
  6
Continuous
 62
     7
100
AcDbLine
 10
655.756
 20
238.241
 30
0.0
 11
655.679
 21
238.14
 31
0.0
  0
LINE
  5
1E4
330
386
100
AcDbEntity
  8
Contour
  6
Continuous
 62
     7
100
AcDbLine
 10
655.679
 20
238.14
 30
0.0
 11
655.629
 21
238.027
 31
0.0
  0
LINE
  5
1E5
330
386
100
AcDbEntity
  8
Contour
  6
Continuous
 62
     7
100
AcDbLine
 10
655.629
 20
238.027
 30
0.0
 11
655.61
 21
237.892
 31
0.0
  0
LINE
  5
1E6
330
386
100
AcDbEntity
  8
Contour
  6
Continuous
 62
     7
100
AcDbLine
 10
655.61
 20
237.892
 30
0.0
 11
655.62
 21
237.805
 31
0.0
  0
LINE
  5
1E7
330
386
100
AcDbEntity
  8
Contour
  6
Continuous
 62
     7
100
AcDbLine
 10
655.62
 20
237.805
 30
0.0
 11
655.624
 21
237.785
 31
0.0
  0
LINE
  5
1E8
330
386
100
AcDbEntity
  8
Contour
  6
Continuous
 62
     7
100
AcDbLine
 10
655.624
 20
237.785
 30
0.0
 11
655.624
 21
237.785
 31
0.0
  0
LINE
  5
1E9
330
386
100
AcDbEntity
  8
Contour
  6
Continuous
 62
     7
100
AcDbLine
 10
655.624
 20
237.785
 30
0.0
 11
655.629
 21
237.759
 31
0.0
  0
LINE
  5
1EA
330
386
100
AcDbEntity
  8
Contour
  6
Continuous
 62
     7
100
AcDbLine
 10
655.629
 20
237.759
 30
0.0
 11
657.106
 21
233.268
 31
0.0
  0
LINE
  5
1EB
330
386
100
AcDbEntity
  8
Contour
  6
Continuous
 62
     7
100
AcDbLine
 10
657.106
 20
233.268
 30
0.0
 11
659.831
 21
224.98
 31
0.0
  0
LINE
  5
1EC
330
386
100
AcDbEntity
  8
Contour
  6
Continuous
 62
     7
100
AcDbLine
 10
659.831
 20
224.98
 30
0.0
 11
661.295
 21
220.531
 31
0.0
  0
LINE
  5
1ED
330
386
100
AcDbEntity
  8
Contour
  6
Continuous
 62
     7
100
AcDbLine
 10
661.295
 20
220.531
 30
0.0
 11
661.325
 21
220.454
 31
0.0
  0
LINE
  5
1EE
330
386
100
AcDbEntity
  8
Contour
  6
Continuous
 62
     7
100
AcDbLine
 10
661.325
 20
220.454
 30
0.0
 11
661.326
 21
220.451
 31
0.0
  0
LINE
  5
1EF
330
386
100
AcDbEntity
  8
Contour
  6
Continuous
 62
     7
100
AcDbLine
 10
661.326
 20
220.451
 30
0.0
 11
661.356
 21
220.399
 31
0.0
  0
LINE
  5
1F0
330
386
100
AcDbEntity
  8
Contour
  6
Continuous
 62
     7
100
AcDbLine
 10
661.356
 20
220.399
 30
0.0
 11
661.356
 21
220.399
 31
0.0
  0
LINE
  5
1F1
330
386
100
AcDbEntity
  8
Contour
  6
Continuous
 62
     7
100
AcDbLine
 10
661.356
 20
220.399
 30
0.0
 11
661.358
 21
220.395
 31
0.0
  0
LINE
  5
1F2
330
386
100
AcDbEntity
  8
Contour
  6
Continuous
 62
     7
100
AcDbLine
 10
661.358
 20
220.395
 30
0.0
 11
661.417
 21
220.32
 31
0.0
  0
LINE
  5
1F3
330
386
100
AcDbEntity
  8
Contour
  6
Continuous
 62
     7
100
AcDbLine
 10
661.417
 20
220.32
 30
0.0
 11
661.519
 21
220.24
 31
0.0
  0
LINE
  5
1F4
330
386
100
AcDbEntity
  8
Contour
  6
Continuous
 62
     7
100
AcDbLine
 10
661.519
 20
220.24
 30
0.0
 11
661.638
 21
220.19
 31
0.0
  0
LINE
  5
1F5
330
386
100
AcDbEntity
  8
Contour
  6
Continuous
 62
     7
100
AcDbLine
 10
661.638
 20
220.19
 30
0.0
 11
661.769
 21
220.171
 31
0.0
  0
LINE
  5
1F6
330
386
100
AcDbEntity
  8
Contour
  6
Continuous
 62
     7
100
AcDbLine
 10
661.769
 20
220.171
 30
0.0
 11
661.853
 21
220.18
 31
0.0
  0
LINE
  5
1F7
330
386
100
AcDbEntity
  8
Contour
  6
Continuous
 62
     7
100
AcDbLine
 10
661.853
 20
220.18
 30
0.0
 11
661.874
 21
220.185
 31
0.0
  0
LINE
  5
1F8
330
386
100
AcDbEntity
  8
Contour
  6
Continuous
 62
     7
100
AcDbLine
 10
661.874
 20
220.185
 30
0.0
 11
661.874
 21
220.185
 31
0.0
  0
LINE
  5
1F9
330
386
100
AcDbEntity
  8
Contour
  6
Continuous
 62
     7
100
AcDbLine
 10
661.874
 20
220.185
 30
0.0
 11
661.9
 21
220.19
 31
0.0
  0
LINE
  5
1FA
330
386
100
AcDbEntity
  8
Contour
  6
Continuous
 62
     7
100
AcDbLine
 10
661.9
 20
220.19
 30
0.0
 11
663.923
 21
220.855
 31
0.0
  0
LINE
  5
1FB
330
386
100
AcDbEntity
  8
Contour
  6
Continuous
 62
     7
100
AcDbLine
 10
663.923
 20
220.855
 30
0.0
 11
667.627
 21
222.072
 31
0.0
  0
LINE
  5
1FC
330
386
100
AcDbEntity
  8
Contour
  6
Continuous
 62
     7
100
AcDbLine
 10
667.627
 20
222.072
 30
0.0
 11
669.146
 21
222.571
 31
0.0
  0
LINE
  5
1FD
330
386
100
AcDbEntity
  8
Contour
  6
Continuous
 62
     7
100
AcDbLine
 10
669.146
 20
222.571
 30
0.0
 11
669.146
 21
222.571
 31
0.0
  0
ARC
  5
1FE
330
386
100
AcDbEntity
  8
Contour
  6
Continuous
 62
     7
100
AcDbCircle
 10
669.6136
 20
221.1462
 30
0.0
 40
1.49956
100
AcDbArc
 50
18.21731
 51
108.16908
  0
LINE
  5
1FF
330
386
100
AcDbEntity
  8
Contour
  6
Continuous
 62
     7
100
AcDbLine
 10
671.038
 20
221.615
 30
0.0
 11
672.283
 21
217.836
 31
0.0
  0
LINE
  5
200
330
386
100
AcDbEntity
  8
Contour
  6
Continuous
 62
     7
100
AcDbLine
 10
672.283
 20
217.836
 30
0.0
 11
674.882
 21
209.932
 31
0.0
  0
LINE
  5
201
330
386
100
AcDbEntity
  8
Contour
  6
Continuous
 62
     7
100
AcDbLine
 10
674.882
 20
209.932
 30
0.0
 11
676.126
 21
206.15
 31
0.0
  0
LINE
  5
202
330
386
100
AcDbEntity
  8
Contour
  6
Continuous
 62
     7
100
AcDbLine
 10
676.126
 20
206.15
 30
0.0
 11
676.126
 21
206.15
 31
0.0
  0
ARC
  5
203
330
386
100
AcDbEntity
  8
Contour
  6
Continuous
 62
     7
100
AcDbCircle
 10
674.7013
 20
205.6816
 30
0.0
 40
1.49972
100
AcDbArc
 50
288.21135
 51
18.19941
  0
LINE
  5
204
330
386
100
AcDbEntity
  8
Contour
  6
Continuous
 62
     7
100
AcDbLine
 10
675.17
 20
204.257
 30
0.0
 11
667.961
 21
201.884
 31
0.0
  0
LINE
  5
205
330
386
100
AcDbEntity
  8
Contour
  6
Continuous
 62
     7
100
AcDbLine
 10
667.961
 20
201.884
 30
0.0
 11
667.881
 21
201.852
 31
0.0
  0
LINE
  5
206
330
386
100
AcDbEntity
  8
Contour
  6
Continuous
 62
     7
100
AcDbLine
 10
667.881
 20
201.852
 30
0.0
 11
667.851
 21
201.835
 31
0.0
  0
LINE
  5
207
330
386
100
AcDbEntity
  8
Contour
  6
Continuous
 62
     7
100
AcDbLine
 10
667.851
 20
201.835
 30
0.0
 11
667.831
 21
201.824
 31
0.0
  0
LINE
  5
208
330
386
100
AcDbEntity
  8
Contour
  6
Continuous
 62
     7
100
AcDbLine
 10
667.831
 20
201.824
 30
0.0
 11
667.75
 21
201.762
 31
0.0
  0
LINE
  5
209
330
386
100
AcDbEntity
  8
Contour
  6
Continuous
 62
     7
100
AcDbLine
 10
667.75
 20
201.762
 30
0.0
 11
667.673
 21
201.661
 31
0.0
  0
LINE
  5
20A
330
386
100
AcDbEntity
  8
Contour
  6
Continuous
 62
     7
100
AcDbLine
 10
667.673
 20
201.661
 30
0.0
 11
667.623
 21
201.548
 31
0.0
  0
LINE
  5
20B
330
386
100
AcDbEntity
  8
Contour
  6
Continuous
 62
     7
100
AcDbLine
 10
667.623
 20
201.548
 30
0.0
 11
667.604
 21
201.413
 31
0.0
  0
LINE
  5
20C
330
386
100
AcDbEntity
  8
Contour
  6
Continuous
 62
     7
100
AcDbLine
 10
667.604
 20
201.413
 30
0.0
 11
667.614
 21
201.326
 31
0.0
  0
LINE
  5
20D
330
386
100
AcDbEntity
  8
Contour
  6
Continuous
 62
     7
100
AcDbLine
 10
667.614
 20
201.326
 30
0.0
 11
667.618
 21
201.306
 31
0.0
  0
LINE
  5
20E
330
386
100
AcDbEntity
  8
Contour
  6
Continuous
 62
     7
100
AcDbLine
 10
667.618
 20
201.306
 30
0.0
 11
667.618
 21
201.306
 31
0.0
  0
LINE
  5
20F
330
386
100
AcDbEntity
  8
Contour
  6
Continuous
 62
     7
100
AcDbLine
 10
667.618
 20
201.306
 30
0.0
 11
667.623
 21
201.28
 31
0.0
  0
LINE
  5
210
330
386
100
AcDbEntity
  8
Contour
  6
Continuous
 62
     7
100
AcDbLine
 10
667.623
 20
201.28
 30
0.0
 11
669.1
 21
196.789
 31
0.0
  0
LINE
  5
211
330
386
100
AcDbEntity
  8
Contour
  6
Continuous
 62
     7
100
AcDbLine
 10
669.1
 20
196.789
 30
0.0
 11
671.825
 21
188.501
 31
0.0
  0
LINE
  5
212
330
386
100
AcDbEntity
  8
Contour
  6
Continuous
 62
     7
100
AcDbLine
 10
671.825
 20
188.501
 30
0.0
 11
673.289
 21
184.052
 31
0.0
  0
LINE
  5
213
330
386
100
AcDbEntity
  8
Contour
  6
Continuous
 62
     7
100
AcDbLine
 10
673.289
 20
184.052
 30
0.0
 11
673.319
 21
183.975
 31
0.0
  0
LINE
  5
214
330
386
100
AcDbEntity
  8
Contour
  6
Continuous
 62
     7
100
AcDbLine
 10
673.319
 20
183.975
 30
0.0
 11
673.32
 21
183.972
 31
0.0
  0
LINE
  5
215
330
386
100
AcDbEntity
  8
Contour
  6
Continuous
 62
     7
100
AcDbLine
 10
673.32
 20
183.972
 30
0.0
 11
673.35
 21
183.92
 31
0.0
  0
LINE
  5
216
330
386
100
AcDbEntity
  8
Contour
  6
Continuous
 62
     7
100
AcDbLine
 10
673.35
 20
183.92
 30
0.0
 11
673.35
 21
183.92
 31
0.0
  0
LINE
  5
217
330
386
100
AcDbEntity
  8
Contour
  6
Continuous
 62
     7
100
AcDbLine
 10
673.35
 20
183.92
 30
0.0
 11
673.352
 21
183.916
 31
0.0
  0
LINE
  5
218
330
386
100
AcDbEntity
  8
Contour
  6
Continuous
 62
     7
100
AcDbLine
 10
673.352
 20
183.916
 30
0.0
 11
673.411
 21
183.841
 31
0.0
  0
LINE
  5
219
330
386
100
AcDbEntity
  8
Contour
  6
Continuous
 62
     7
100
AcDbLine
 10
673.411
 20
183.841
 30
0.0
 11
673.513
 21
183.761
 31
0.0
  0
LINE
  5
21A
330
386
100
AcDbEntity
  8
Contour
  6
Continuous
 62
     7
100
AcDbLine
 10
673.513
 20
183.761
 30
0.0
 11
673.632
 21
183.711
 31
0.0
  0
LINE
  5
21B
330
386
100
AcDbEntity
  8
Contour
  6
Continuous
 62
     7
100
AcDbLine
 10
673.632
 20
183.711
 30
0.0
 11
673.763
 21
183.692
 31
0.0
  0
LINE
  5
21C
330
386
100
AcDbEntity
  8
Contour
  6
Continuous
 62
     7
100
AcDbLine
 10
673.763
 20
183.692
 30
0.0
 11
673.847
 21
183.701
 31
0.0
  0
LINE
  5
21D
330
386
100
AcDbEntity
  8
Contour
  6
Continuous
 62
     7
100
AcDbLine
 10
673.847
 20
183.701
 30
0.0
 11
673.868
 21
183.706
 31
0.0
  0
LINE
  5
21E
330
386
100
AcDbEntity
  8
Contour
  6
Continuous
 62
     7
100
AcDbLine
 10
673.868
 20
183.706
 30
0.0
 11
673.868
 21
183.706
 31
0.0
  0
LINE
  5
21F
330
386
100
AcDbEntity
  8
Contour
  6
Continuous
 62
     7
100
AcDbLine
 10
673.868
 20
183.706
 30
0.0
 11
673.894
 21
183.711
 31
0.0
  0
LINE
  5
220
330
386
100
AcDbEntity
  8
Contour
  6
Continuous
 62
     7
100
AcDbLine
 10
673.894
 20
183.711
 30
0.0
 11
675.917
 21
184.376
 31
0.0
  0
LINE
  5
221
330
386
100
AcDbEntity
  8
Contour
  6
Continuous
 62
     7
100
AcDbLine
 10
675.917
 20
184.376
 30
0.0
 11
679.621
 21
185.593
 31
0.0
  0
LINE
  5
222
330
386
100
AcDbEntity
  8
Contour
  6
Continuous
 62
     7
100
AcDbLine
 10
679.621
 20
185.593
 30
0.0
 11
681.14
 21
186.092
 31
0.0
  0
LINE
  5
223
330
386
100
AcDbEntity
  8
Contour
  6
Continuous
 62
     7
100
AcDbLine
 10
681.14
 20
186.092
 30
0.0
 11
681.14
 21
186.092
 31
0.0
  0
ARC
  5
224
330
386
100
AcDbEntity
  8
Contour
  6
Continuous
 62
     7
100
AcDbCircle
 10
681.6076
 20
184.6672
 30
0.0
 40
1.49956
100
AcDbArc
 50
18.21731
 51
108.16908
  0
LINE
  5
225
330
386
100
AcDbEntity
  8
Contour
  6
Continuous
 62
     7
100
AcDbLine
 10
683.032
 20
185.136
 30
0.0
 11
684.276
 21
181.357
 31
0.0
  0
LINE
  5
226
330
386
100
AcDbEntity
  8
Contour
  6
Continuous
 62
     7
100
AcDbLine
 10
684.276
 20
181.357
 30
0.0
 11
686.876
 21
173.454
 31
0.0
  0
LINE
  5
227
330
386
100
AcDbEntity
  8
Contour
  6
Continuous
 62
     7
100
AcDbLine
 10
686.876
 20
173.454
 30
0.0
 11
688.119
 21
169.671
 31
0.0
  0
LINE
  5
228
330
386
100
AcDbEntity
  8
Contour
  6
Continuous
 62
     7
100
AcDbLine
 10
688.119
 20
169.671
 30
0.0
 11
688.119
 21
169.671
 31
0.0
  0
ARC
  5
229
330
386
100
AcDbEntity
  8
Contour
  6
Continuous
 62
     7
100
AcDbCircle
 10
686.6942
 20
169.2034
 30
0.0
 40
1.49956
100
AcDbArc
 50
288.21731
 51
18.16908
  0
LINE
  5
22A
330
386
100
AcDbEntity
  8
Contour
  6
Continuous
 62
     7
100
AcDbLine
 10
687.163
 20
167.779
 30
0.0
 11
679.994
 21
165.42
 31
0.0
  0
LINE
  5
22B
330
386
100
AcDbEntity
  8
Contour
  6
Continuous
 62
     7
100
AcDbLine
 10
679.994
 20
165.42
 30
0.0
 11
679.917
 21
165.39
 31
0.0
  0
LINE
  5
22C
330
386
100
AcDbEntity
  8
Contour
  6
Continuous
 62
     7
100
AcDbLine
 10
679.917
 20
165.39
 30
0.0
 11
679.913
 21
165.389
 31
0.0
  0
LINE
  5
22D
330
386
100
AcDbEntity
  8
Contour
  6
Continuous
 62
     7
100
AcDbLine
 10
679.913
 20
165.389
 30
0.0
 11
679.867
 21
165.362
 31
0.0
  0
LINE
  5
22E
330
386
100
AcDbEntity
  8
Contour
  6
Continuous
 62
     7
100
AcDbLine
 10
679.867
 20
165.362
 30
0.0
 11
679.863
 21
165.36
 31
0.0
  0
LINE
  5
22F
330
386
100
AcDbEntity
  8
Contour
  6
Continuous
 62
     7
100
AcDbLine
 10
679.863
 20
165.36
 30
0.0
 11
679.863
 21
165.36
 31
0.0
  0
LINE
  5
230
330
386
100
AcDbEntity
  8
Contour
  6
Continuous
 62
     7
100
AcDbLine
 10
679.863
 20
165.36
 30
0.0
 11
679.812
 21
165.32
 31
0.0
  0
LINE
  5
231
330
386
100
AcDbEntity
  8
Contour
  6
Continuous
 62
     7
100
AcDbLine
 10
679.812
 20
165.32
 30
0.0
 11
679.782
 21
165.296
 31
0.0
  0
LINE
  5
232
330
386
100
AcDbEntity
  8
Contour
  6
Continuous
 62
     7
100
AcDbLine
 10
679.782
 20
165.296
 30
0.0
 11
679.704
 21
165.197
 31
0.0
  0
LINE
  5
233
330
386
100
AcDbEntity
  8
Contour
  6
Continuous
 62
     7
100
AcDbLine
 10
679.704
 20
165.197
 30
0.0
 11
679.653
 21
165.077
 31
0.0
  0
LINE
  5
234
330
386
100
AcDbEntity
  8
Contour
  6
Continuous
 62
     7
100
AcDbLine
 10
679.653
 20
165.077
 30
0.0
 11
679.634
 21
164.945
 31
0.0
  0
LINE
  5
235
330
386
100
AcDbEntity
  8
Contour
  6
Continuous
 62
     7
100
AcDbLine
 10
679.634
 20
164.945
 30
0.0
 11
679.634
 21
164.945
 31
0.0
  0
LINE
  5
236
330
386
100
AcDbEntity
  8
Contour
  6
Continuous
 62
     7
100
AcDbLine
 10
679.634
 20
164.945
 30
0.0
 11
679.637
 21
164.921
 31
0.0
  0
LINE
  5
237
330
386
100
AcDbEntity
  8
Contour
  6
Continuous
 62
     7
100
AcDbLine
 10
679.637
 20
164.921
 30
0.0
 11
679.646
 21
164.837
 31
0.0
  0
LINE
  5
238
330
386
100
AcDbEntity
  8
Contour
  6
Continuous
 62
     7
100
AcDbLine
 10
679.646
 20
164.837
 30
0.0
 11
679.646
 21
164.837
 31
0.0
  0
LINE
  5
239
330
386
100
AcDbEntity
  8
Contour
  6
Continuous
 62
     7
100
AcDbLine
 10
679.646
 20
164.837
 30
0.0
 11
679.646
 21
164.836
 31
0.0
  0
LINE
  5
23A
330
386
100
AcDbEntity
  8
Contour
  6
Continuous
 62
     7
100
AcDbLine
 10
679.646
 20
164.836
 30
0.0
 11
679.654
 21
164.812
 31
0.0
  0
LINE
  5
23B
330
386
100
AcDbEntity
  8
Contour
  6
Continuous
 62
     7
100
AcDbLine
 10
679.654
 20
164.812
 30
0.0
 11
685.289
 21
147.564
 31
0.0
  0
LINE
  5
23C
330
386
100
AcDbEntity
  8
Contour
  6
Continuous
 62
     7
100
AcDbLine
 10
685.289
 20
147.564
 30
0.0
 11
685.289
 21
147.564
 31
0.0
  0
LINE
  5
23D
330
386
100
AcDbEntity
  8
Contour
  6
Continuous
 62
     7
100
AcDbLine
 10
685.289
 20
147.564
 30
0.0
 11
685.315
 21
147.497
 31
0.0
  0
LINE
  5
23E
330
386
100
AcDbEntity
  8
Contour
  6
Continuous
 62
     7
100
AcDbLine
 10
685.315
 20
147.497
 30
0.0
 11
685.316
 21
147.493
 31
0.0
  0
LINE
  5
23F
330
386
100
AcDbEntity
  8
Contour
  6
Continuous
 62
     7
100
AcDbLine
 10
685.316
 20
147.493
 30
0.0
 11
685.36
 21
147.416
 31
0.0
  0
LINE
  5
240
330
386
100
AcDbEntity
  8
Contour
  6
Continuous
 62
     7
100
AcDbLine
 10
685.36
 20
147.416
 30
0.0
 11
685.459
 21
147.317
 31
0.0
  0
LINE
  5
241
330
386
100
AcDbEntity
  8
Contour
  6
Continuous
 62
     7
100
AcDbLine
 10
685.459
 20
147.317
 30
0.0
 11
685.565
 21
147.255
 31
0.0
  0
LINE
  5
242
330
386
100
AcDbEntity
  8
Contour
  6
Continuous
 62
     7
100
AcDbLine
 10
685.565
 20
147.255
 30
0.0
 11
685.654
 21
147.229
 31
0.0
  0
LINE
  5
243
330
386
100
AcDbEntity
  8
Contour
  6
Continuous
 62
     7
100
AcDbLine
 10
685.654
 20
147.229
 30
0.0
 11
685.75
 21
147.214
 31
0.0
  0
LINE
  5
244
330
386
100
AcDbEntity
  8
Contour
  6
Continuous
 62
     7
100
AcDbLine
 10
685.75
 20
147.214
 30
0.0
 11
685.856
 21
147.225
 31
0.0
  0
LINE
  5
245
330
386
100
AcDbEntity
  8
Contour
  6
Continuous
 62
     7
100
AcDbLine
 10
685.856
 20
147.225
 30
0.0
 11
685.913
 21
147.24
 31
0.0
  0
LINE
  5
246
330
386
100
AcDbEntity
  8
Contour
  6
Continuous
 62
     7
100
AcDbLine
 10
685.913
 20
147.24
 30
0.0
 11
693.173
 21
149.627
 31
0.0
  0
LINE
  5
247
330
386
100
AcDbEntity
  8
Contour
  6
Continuous
 62
     7
100
AcDbLine
 10
693.173
 20
149.627
 30
0.0
 11
693.173
 21
149.627
 31
0.0
  0
ARC
  5
248
330
386
100
AcDbEntity
  8
Contour
  6
Continuous
 62
     7
100
AcDbCircle
 10
693.6414
 20
148.2023
 30
0.0
 40
1.49972
100
AcDbArc
 50
18.21135
 51
108.19941
  0
LINE
  5
249
330
386
100
AcDbEntity
  8
Contour
  6
Continuous
 62
     7
100
AcDbLine
 10
695.066
 20
148.671
 30
0.0
 11
700.153
 21
133.207
 31
0.0
  0
LINE
  5
24A
330
386
100
AcDbEntity
  8
Contour
  6
Continuous
 62
     7
100
AcDbLine
 10
700.153
 20
133.207
 30
0.0
 11
700.153
 21
133.207
 31
0.0
  0
ARC
  5
24B
330
386
100
AcDbEntity
  8
Contour
  6
Continuous
 62
     7
100
AcDbCircle
 10
698.7283
 20
132.7386
 30
0.0
 40
1.49972
100
AcDbArc
 50
288.21135
 51
18.19941
  0
LINE
  5
24C
330
386
100
AcDbEntity
  8
Contour
  6
Continuous
 62
     7
100
AcDbLine
 10
699.197
 20
131.314
 30
0.0
 11
691.948
 21
128.927
 31
0.0
  0
LINE
  5
24D
330
386
100
AcDbEntity
  8
Contour
  6
Continuous
 62
     7
100
AcDbLine
 10
691.948
 20
128.927
 30
0.0
 11
691.871
 21
128.896
 31
0.0
  0
LINE
  5
24E
330
386
100
AcDbEntity
  8
Contour
  6
Continuous
 62
     7
100
AcDbLine
 10
691.871
 20
128.896
 30
0.0
 11
691.82
 21
128.867
 31
0.0
  0
LINE
  5
24F
330
386
100
AcDbEntity
  8
Contour
  6
Continuous
 62
     7
100
AcDbLine
 10
691.82
 20
128.867
 30
0.0
 11
691.737
 21
128.804
 31
0.0
  0
LINE
  5
250
330
386
100
AcDbEntity
  8
Contour
  6
Continuous
 62
     7
100
AcDbLine
 10
691.737
 20
128.804
 30
0.0
 11
691.66
 21
128.703
 31
0.0
  0
LINE
  5
251
330
386
100
AcDbEntity
  8
Contour
  6
Continuous
 62
     7
100
AcDbLine
 10
691.66
 20
128.703
 30
0.0
 11
691.61
 21
128.59
 31
0.0
  0
LINE
  5
252
330
386
100
AcDbEntity
  8
Contour
  6
Continuous
 62
     7
100
AcDbLine
 10
691.61
 20
128.59
 30
0.0
 11
691.591
 21
128.455
 31
0.0
  0
LINE
  5
253
330
386
100
AcDbEntity
  8
Contour
  6
Continuous
 62
     7
100
AcDbLine
 10
691.591
 20
128.455
 30
0.0
 11
691.591
 21
128.455
 31
0.0
  0
LINE
  5
254
330
386
100
AcDbEntity
  8
Contour
  6
Continuous
 62
     7
100
AcDbLine
 10
691.591
 20
128.455
 30
0.0
 11
691.602
 21
128.358
 31
0.0
  0
LINE
  5
255
330
386
100
AcDbEntity
  8
Contour
  6
Continuous
 62
     7
100
AcDbLine
 10
691.602
 20
128.358
 30
0.0
 11
691.603
 21
128.343
 31
0.0
  0
LINE
  5
256
330
386
100
AcDbEntity
  8
Contour
  6
Continuous
 62
     7
100
AcDbLine
 10
691.603
 20
128.343
 30
0.0
 11
691.615
 21
128.304
 31
0.0
  0
LINE
  5
257
330
386
100
AcDbEntity
  8
Contour
  6
Continuous
 62
     7
100
AcDbLine
 10
691.615
 20
128.304
 30
0.0
 11
697.277
 21
111.092
 31
0.0
  0
LINE
  5
258
330
386
100
AcDbEntity
  8
Contour
  6
Continuous
 62
     7
100
AcDbLine
 10
697.277
 20
111.092
 30
0.0
 11
697.309
 21
111.012
 31
0.0
  0
LINE
  5
259
330
386
100
AcDbEntity
  8
Contour
  6
Continuous
 62
     7
100
AcDbLine
 10
697.309
 20
111.012
 30
0.0
 11
697.326
 21
110.982
 31
0.0
  0
LINE
  5
25A
330
386
100
AcDbEntity
  8
Contour
  6
Continuous
 62
     7
100
AcDbLine
 10
697.326
 20
110.982
 30
0.0
 11
697.337
 21
110.962
 31
0.0
  0
LINE
  5
25B
330
386
100
AcDbEntity
  8
Contour
  6
Continuous
 62
     7
100
AcDbLine
 10
697.337
 20
110.962
 30
0.0
 11
697.399
 21
110.881
 31
0.0
  0
LINE
  5
25C
330
386
100
AcDbEntity
  8
Contour
  6
Continuous
 62
     7
100
AcDbLine
 10
697.399
 20
110.881
 30
0.0
 11
697.5
 21
110.804
 31
0.0
  0
LINE
  5
25D
330
386
100
AcDbEntity
  8
Contour
  6
Continuous
 62
     7
100
AcDbLine
 10
697.5
 20
110.804
 30
0.0
 11
697.613
 21
110.754
 31
0.0
  0
LINE
  5
25E
330
386
100
AcDbEntity
  8
Contour
  6
Continuous
 62
     7
100
AcDbLine
 10
697.613
 20
110.754
 30
0.0
 11
697.745
 21
110.735
 31
0.0
  0
LINE
  5
25F
330
386
100
AcDbEntity
  8
Contour
  6
Continuous
 62
     7
100
AcDbLine
 10
697.745
 20
110.735
 30
0.0
 11
697.859
 21
110.747
 31
0.0
  0
LINE
  5
260
330
386
100
AcDbEntity
  8
Contour
  6
Continuous
 62
     7
100
AcDbLine
 10
697.859
 20
110.747
 30
0.0
 11
697.882
 21
110.754
 31
0.0
  0
LINE
  5
261
330
386
100
AcDbEntity
  8
Contour
  6
Continuous
 62
     7
100
AcDbLine
 10
697.882
 20
110.754
 30
0.0
 11
705.166
 21
113.149
 31
0.0
  0
LINE
  5
262
330
386
100
AcDbEntity
  8
Contour
  6
Continuous
 62
     7
100
AcDbLine
 10
705.166
 20
113.149
 30
0.0
 11
705.166
 21
113.149
 31
0.0
  0
ARC
  5
263
330
386
100
AcDbEntity
  8
Contour
  6
Continuous
 62
     7
100
AcDbCircle
 10
705.6344
 20
111.7243
 30
0.0
 40
1.49972
100
AcDbArc
 50
18.21135
 51
108.19941
  0
LINE
  5
264
330
386
100
AcDbEntity
  8
Contour
  6
Continuous
 62
     7
100
AcDbLine
 10
707.059
 20
112.193
 30
0.0
 11
712.146
 21
96.73
 31
0.0
  0
LINE
  5
265
330
386
100
AcDbEntity
  8
Contour
  6
Continuous
 62
     7
100
AcDbLine
 10
712.146
 20
96.73
 30
0.0
 11
712.146
 21
96.73
 31
0.0
  0
ARC
  5
266
330
386
100
AcDbEntity
  8
Contour
  6
Continuous
 62
     7
100
AcDbCircle
 10
710.7213
 20
96.2616
 30
0.0
 40
1.49972
100
AcDbArc
 50
288.21135
 51
18.19941
  0
LINE
  5
267
330
386
100
AcDbEntity
  8
Contour
  6
Continuous
 62
     7
100
AcDbLine
 10
711.19
 20
94.837
 30
0.0
 11
703.984
 21
92.464
 31
0.0
  0
LINE
  5
268
330
386
100
AcDbEntity
  8
Contour
  6
Continuous
 62
     7
100
AcDbLine
 10
703.984
 20
92.464
 30
0.0
 11
703.975
 21
92.461
 31
0.0
  0
LINE
  5
269
330
386
100
AcDbEntity
  8
Contour
  6
Continuous
 62
     7
100
AcDbLine
 10
703.975
 20
92.461
 30
0.0
 11
703.905
 21
92.433
 31
0.0
  0
LINE
  5
26A
330
386
100
AcDbEntity
  8
Contour
  6
Continuous
 62
     7
100
AcDbLine
 10
703.905
 20
92.433
 30
0.0
 11
703.849
 21
92.401
 31
0.0
  0
LINE
  5
26B
330
386
100
AcDbEntity
  8
Contour
  6
Continuous
 62
     7
100
AcDbLine
 10
703.849
 20
92.401
 30
0.0
 11
703.849
 21
92.401
 31
0.0
  0
LINE
  5
26C
330
386
100
AcDbEntity
  8
Contour
  6
Continuous
 62
     7
100
AcDbLine
 10
703.849
 20
92.401
 30
0.0
 11
703.845
 21
92.399
 31
0.0
  0
LINE
  5
26D
330
386
100
AcDbEntity
  8
Contour
  6
Continuous
 62
     7
100
AcDbLine
 10
703.845
 20
92.399
 30
0.0
 11
703.765
 21
92.336
 31
0.0
  0
LINE
  5
26E
330
386
100
AcDbEntity
  8
Contour
  6
Continuous
 62
     7
100
AcDbLine
 10
703.765
 20
92.336
 30
0.0
 11
703.69
 21
92.238
 31
0.0
  0
LINE
  5
26F
330
386
100
AcDbEntity
  8
Contour
  6
Continuous
 62
     7
100
AcDbLine
 10
703.69
 20
92.238
 30
0.0
 11
703.64
 21
92.121
 31
0.0
  0
LINE
  5
270
330
386
100
AcDbEntity
  8
Contour
  6
Continuous
 62
     7
100
AcDbLine
 10
703.64
 20
92.121
 30
0.0
 11
703.621
 21
91.997
 31
0.0
  0
LINE
  5
271
330
386
100
AcDbEntity
  8
Contour
  6
Continuous
 62
     7
100
AcDbLine
 10
703.621
 20
91.997
 30
0.0
 11
703.621
 21
91.997
 31
0.0
  0
LINE
  5
272
330
386
100
AcDbEntity
  8
Contour
  6
Continuous
 62
     7
100
AcDbLine
 10
703.621
 20
91.997
 30
0.0
 11
703.632
 21
91.895
 31
0.0
  0
LINE
  5
273
330
386
100
AcDbEntity
  8
Contour
  6
Continuous
 62
     7
100
AcDbLine
 10
703.632
 20
91.895
 30
0.0
 11
703.632
 21
91.894
 31
0.0
  0
LINE
  5
274
330
386
100
AcDbEntity
  8
Contour
  6
Continuous
 62
     7
100
AcDbLine
 10
703.632
 20
91.894
 30
0.0
 11
703.65
 21
91.822
 31
0.0
  0
LINE
  5
275
330
386
100
AcDbEntity
  8
Contour
  6
Continuous
 62
     7
100
AcDbLine
 10
703.65
 20
91.822
 30
0.0
 11
703.662
 21
91.774
 31
0.0
  0
LINE
  5
276
330
386
100
AcDbEntity
  8
Contour
  6
Continuous
 62
     7
100
AcDbLine
 10
703.662
 20
91.774
 30
0.0
 11
709.283
 21
74.571
 31
0.0
  0
LINE
  5
277
330
386
100
AcDbEntity
  8
Contour
  6
Continuous
 62
     7
100
AcDbLine
 10
709.283
 20
74.571
 30
0.0
 11
709.283
 21
74.571
 31
0.0
  0
ARC
  5
278
330
386
100
AcDbEntity
  8
Contour
  6
Continuous
 62
     7
100
AcDbCircle
 10
707.85731
 20
74.10561
 30
0.0
 40
1.49973
100
AcDbArc
 50
288.2110200000001
 51
18.0783
  0
LINE
  5
279
330
386
100
AcDbEntity
  8
Contour
  6
Continuous
 62
     7
100
AcDbLine
 10
708.326
 20
72.681
 30
0.0
 11
599.841
 21
37.011
 31
0.0
  0
LINE
  5
27A
330
386
100
AcDbEntity
  8
Contour
  6
Continuous
 62
     7
100
AcDbLine
 10
599.841
 20
37.011
 30
0.0
 11
599.841
 21
37.011
 31
0.0
  0
ARC
  5
27B
330
386
100
AcDbEntity
  8
Contour
  6
Continuous
 62
     7
100
AcDbCircle
 10
599.3726
 20
38.4357
 30
0.0
 40
1.49972
100
AcDbArc
 50
198.21135
 51
288.19941
  0
LINE
  5
27C
330
386
100
AcDbEntity
  8
Contour
  6
Continuous
 62
     7
100
AcDbLine
 10
597.948
 20
37.967
 30
0.0
 11
592.26
 21
55.255
 31
0.0
  0
LINE
  5
27D
330
386
100
AcDbEntity
  8
Contour
  6
Continuous
 62
     7
100
AcDbLine
 10
592.26
 20
55.255
 30
0.0
 11
592.26
 21
55.255
 31
0.0
  0
ARC
  5
27E
330
386
100
AcDbEntity
  8
Contour
  6
Continuous
 62
     7
100
AcDbCircle
 10
593.6847
 20
55.7234
 30
0.0
 40
1.49972
100
AcDbArc
 50
108.21135
 51
198.19941
  0
LINE
  5
27F
330
386
100
AcDbEntity
  8
Contour
  6
Continuous
 62
     7
100
AcDbLine
 10
593.216
 20
57.148
 30
0.0
 11
600.42
 21
59.52
 31
0.0
  0
LINE
  5
280
330
386
100
AcDbEntity
  8
Contour
  6
Continuous
 62
     7
100
AcDbLine
 10
600.42
 20
59.52
 30
0.0
 11
600.429
 21
59.524
 31
0.0
  0
LINE
  5
281
330
386
100
AcDbEntity
  8
Contour
  6
Continuous
 62
     7
100
AcDbLine
 10
600.429
 20
59.524
 30
0.0
 11
600.499
 21
59.551
 31
0.0
  0
LINE
  5
282
330
386
100
AcDbEntity
  8
Contour
  6
Continuous
 62
     7
100
AcDbLine
 10
600.499
 20
59.551
 30
0.0
 11
600.555
 21
59.583
 31
0.0
  0
LINE
  5
283
330
386
100
AcDbEntity
  8
Contour
  6
Continuous
 62
     7
100
AcDbLine
 10
600.555
 20
59.583
 30
0.0
 11
600.555
 21
59.583
 31
0.0
  0
LINE
  5
284
330
386
100
AcDbEntity
  8
Contour
  6
Continuous
 62
     7
100
AcDbLine
 10
600.555
 20
59.583
 30
0.0
 11
600.559
 21
59.585
 31
0.0
  0
LINE
  5
285
330
386
100
AcDbEntity
  8
Contour
  6
Continuous
 62
     7
100
AcDbLine
 10
600.559
 20
59.585
 30
0.0
 11
600.634
 21
59.644
 31
0.0
  0
LINE
  5
286
330
386
100
AcDbEntity
  8
Contour
  6
Continuous
 62
     7
100
AcDbLine
 10
600.634
 20
59.644
 30
0.0
 11
600.714
 21
59.746
 31
0.0
  0
LINE
  5
287
330
386
100
AcDbEntity
  8
Contour
  6
Continuous
 62
     7
100
AcDbLine
 10
600.714
 20
59.746
 30
0.0
 11
600.764
 21
59.865
 31
0.0
  0
LINE
  5
288
330
386
100
AcDbEntity
  8
Contour
  6
Continuous
 62
     7
100
AcDbLine
 10
600.764
 20
59.865
 30
0.0
 11
600.783
 21
59.996
 31
0.0
  0
LINE
  5
289
330
386
100
AcDbEntity
  8
Contour
  6
Continuous
 62
     7
100
AcDbLine
 10
600.783
 20
59.996
 30
0.0
 11
600.783
 21
59.996
 31
0.0
  0
LINE
  5
28A
330
386
100
AcDbEntity
  8
Contour
  6
Continuous
 62
     7
100
AcDbLine
 10
600.783
 20
59.996
 30
0.0
 11
600.773
 21
60.091
 31
0.0
  0
LINE
  5
28B
330
386
100
AcDbEntity
  8
Contour
  6
Continuous
 62
     7
100
AcDbLine
 10
600.773
 20
60.091
 30
0.0
 11
600.771
 21
60.106
 31
0.0
  0
LINE
  5
28C
330
386
100
AcDbEntity
  8
Contour
  6
Continuous
 62
     7
100
AcDbLine
 10
600.771
 20
60.106
 30
0.0
 11
600.759
 21
60.145
 31
0.0
  0
LINE
  5
28D
330
386
100
AcDbEntity
  8
Contour
  6
Continuous
 62
     7
100
AcDbLine
 10
600.759
 20
60.145
 30
0.0
 11
595.697
 21
75.531
 31
0.0
  0
LINE
  5
28E
330
386
100
AcDbEntity
  8
Contour
  6
Continuous
 62
     7
100
AcDbLine
 10
595.697
 20
75.531
 30
0.0
 11
595.667
 21
75.609
 31
0.0
  0
LINE
  5
28F
330
386
100
AcDbEntity
  8
Contour
  6
Continuous
 62
     7
100
AcDbLine
 10
595.667
 20
75.609
 30
0.0
 11
595.636
 21
75.663
 31
0.0
  0
LINE
  5
290
330
386
100
AcDbEntity
  8
Contour
  6
Continuous
 62
     7
100
AcDbLine
 10
595.636
 20
75.663
 30
0.0
 11
595.636
 21
75.663
 31
0.0
  0
LINE
  5
291
330
386
100
AcDbEntity
  8
Contour
  6
Continuous
 62
     7
100
AcDbLine
 10
595.636
 20
75.663
 30
0.0
 11
595.634
 21
75.667
 31
0.0
  0
LINE
  5
292
330
386
100
AcDbEntity
  8
Contour
  6
Continuous
 62
     7
100
AcDbLine
 10
595.634
 20
75.667
 30
0.0
 11
595.575
 21
75.742
 31
0.0
  0
LINE
  5
293
330
386
100
AcDbEntity
  8
Contour
  6
Continuous
 62
     7
100
AcDbLine
 10
595.575
 20
75.742
 30
0.0
 11
595.473
 21
75.822
 31
0.0
  0
LINE
  5
294
330
386
100
AcDbEntity
  8
Contour
  6
Continuous
 62
     7
100
AcDbLine
 10
595.473
 20
75.822
 30
0.0
 11
595.354
 21
75.872
 31
0.0
  0
LINE
  5
295
330
386
100
AcDbEntity
  8
Contour
  6
Continuous
 62
     7
100
AcDbLine
 10
595.354
 20
75.872
 30
0.0
 11
595.223
 21
75.891
 31
0.0
  0
LINE
  5
296
330
386
100
AcDbEntity
  8
Contour
  6
Continuous
 62
     7
100
AcDbLine
 10
595.223
 20
75.891
 30
0.0
 11
595.13
 21
75.88
 31
0.0
  0
LINE
  5
297
330
386
100
AcDbEntity
  8
Contour
  6
Continuous
 62
     7
100
AcDbLine
 10
595.13
 20
75.88
 30
0.0
 11
595.118
 21
75.878
 31
0.0
  0
LINE
  5
298
330
386
100
AcDbEntity
  8
Contour
  6
Continuous
 62
     7
100
AcDbLine
 10
595.118
 20
75.878
 30
0.0
 11
595.118
 21
75.878
 31
0.0
  0
LINE
  5
299
330
386
100
AcDbEntity
  8
Contour
  6
Continuous
 62
     7
100
AcDbLine
 10
595.118
 20
75.878
 30
0.0
 11
595.092
 21
75.872
 31
0.0
  0
LINE
  5
29A
330
386
100
AcDbEntity
  8
Contour
  6
Continuous
 62
     7
100
AcDbLine
 10
595.092
 20
75.872
 30
0.0
 11
593.069
 21
75.207
 31
0.0
  0
LINE
  5
29B
330
386
100
AcDbEntity
  8
Contour
  6
Continuous
 62
     7
100
AcDbLine
 10
593.069
 20
75.207
 30
0.0
 11
589.365
 21
73.99
 31
0.0
  0
LINE
  5
29C
330
386
100
AcDbEntity
  8
Contour
  6
Continuous
 62
     7
100
AcDbLine
 10
589.365
 20
73.99
 30
0.0
 11
587.393
 21
73.342
 31
0.0
  0
VIEWPORT
  5
434
330
382
100
AcDbEntity
 67
     1
  8
0
100
AcDbViewport
 10
128.5
 20
97.5
 30
0.0
 40
314.226
 41
222.18
 68
     1
 69
     1
 12
128.5
 22
97.5
 13
0.0
 23
0.0
 14
10.0
 24
10.0
 15
10.0
 25
10.0
 16
0.0
 26
0.0
 36
1.0
 17
0.0
 27
0.0
 37
0.0
 42
50.0
 43
0.0
 44
0.0
 45
222.18
 50
0.0
 51
0.0
 72
   100
 90
   557152
  1

281
     0
 71
     1
 74
     0
110
0.0
120
0.0
130
0.0
111
1.0
121
0.0
131
0.0
112
0.0
122
1.0
132
0.0
 79
     0
146
0.0
170
     0
 61
     5
348
396
292
     1
282
     1
141
0.0
142
0.0
 63
   256
361
435
  0
ENDSEC
  0
SECTION
  2
OBJECTS
  0
DICTIONARY
  5
374
330
0
100
AcDbDictionary
281
     1
  3
ACAD_DETAILVIEWSTYLE
350
43D
  3
ACAD_GROUP
350
375
  3
ACAD_IMAGE_VARS
350
3FD
  3
ACAD_LAYOUT
350
381
  3
ACAD_MATERIAL
350
3AA
  3
ACAD_MLEADERSTYLE
350
3C2
  3
ACAD_MLINESTYLE
350
37E
  3
ACAD_PLOTSETTINGS
350
380
  3
ACAD_PLOTSTYLENAME
350
376
  3
ACAD_SCALELIST
350
3AE
  3
ACAD_SECTIONVIEWSTYLE
350
43E
  3
ACAD_TABLESTYLE
350
3C0
  3
ACAD_VISUALSTYLE
350
391
  3
ACDB_RECOMPOSE_DATA
350
43A
  3
AcDbVariableDictionary
350
436
  3
QCAD_OBJECTS
350
3C6
  0
SUN
  5
3C4
330
390
100
AcDbSun
 90
        1
290
     0
 63
     7
421
 16777215
 40
1.0
291
     1
 91
  2455826
 92
 54000000
292
     0
 70
     2
 71
   256
280
     1
  0
SUN
  5
435
330
434
100
AcDbSun
 90
        1
290
     0
 63
     7
421
 16777215
 40
1.0
291
     1
 91
  2455826
 92
 54000000
292
     0
 70
     2
 71
   256
280
     1
  0
DICTIONARY
  5
43D
102
{ACAD_REACTORS
330
374
102
}
330
374
100
AcDbDictionary
281
     1
  0
DICTIONARY
  5
375
102
{ACAD_REACTORS
330
374
102
}
330
374
100
AcDbDictionary
281
     1
  0
RASTERVARIABLES
  5
3FD
102
{ACAD_REACTORS
330
374
102
}
330
374
100
AcDbRasterVariables
 90
        0
 70
     1
 71
     1
 72
     1
  0
DICTIONARY
  5
381
102
{ACAD_REACTORS
330
374
102
}
330
374
100
AcDbDictionary
281
     1
  3
Layout1
350
385
  3
Model
350
389
  0
DICTIONARY
  5
3AA
102
{ACAD_REACTORS
330
374
102
}
330
374
100
AcDbDictionary
281
     1
  3
ByBlock
350
3AC
  3
ByLayer
350
3AB
  3
Global
350
3AD
  0
DICTIONARY
  5
3C2
102
{ACAD_REACTORS
330
374
102
}
330
374
100
AcDbDictionary
281
     1
  3
Standard
350
3C3
  0
DICTIONARY
  5
37E
102
{ACAD_REACTORS
330
374
102
}
330
374
100
AcDbDictionary
281
     1
  3
Standard
350
37F
  0
DICTIONARY
  5
380
102
{ACAD_REACTORS
330
374
102
}
330
374
100
AcDbDictionary
281
     1
  0
ACDBDICTIONARYWDFLT
  5
376
102
{ACAD_REACTORS
330
374
102
}
330
374
100
AcDbDictionary
281
     1
  3
Normal
350
377
100
AcDbDictionaryWithDefault
340
377
  0
DICTIONARY
  5
3AE
102
{ACAD_REACTORS
330
374
102
}
330
374
100
AcDbDictionary
281
     1
  3
A0
350
3AF
  3
A1
350
3B0
  3
A2
350
3B1
  3
A3
350
3B2
  3
A4
350
3B3
  3
A5
350
3B4
  3
A6
350
3B5
  3
A7
350
3B6
  3
A8
350
3B7
  3
A9
350
3B8
  3
B1
350
3B9
  3
B2
350
3BA
  3
B3
350
3BB
  3
B4
350
3BC
  3
B5
350
3BD
  3
B6
350
3BE
  3
B7
350
3BF
  0
DICTIONARY
  5
43E
102
{ACAD_REACTORS
330
374
102
}
330
374
100
AcDbDictionary
281
     1
  0
DICTIONARY
  5
3C0
102
{ACAD_REACTORS
330
374
102
}
330
374
100
AcDbDictionary
281
     1
  3
Standard
350
3C1
  0
DICTIONARY
  5
391
102
{ACAD_REACTORS
330
374
102
}
330
374
100
AcDbDictionary
281
     1
  3
2dWireframe
350
396
  3
Basic
350
399
  3
Brighten
350
39D
  3
ColorChange
350
3A1
  3
Conceptual
350
39B
  3
Dim
350
39C
  3
EdgeColorOff
350
3A4
  3
Facepattern
350
3A0
  3
Flat
350
392
  3
FlatWithEdges
350
393
  3
Gouraud
350
394
  3
GouraudWithEdges
350
395
  3
Hidden
350
398
  3
JitterOff
350
3A2
  3
Linepattern
350
39F
  3
OverhangOff
350
3A3
  3
Realistic
350
39A
  3
Shaded
350
3A9
  3
Shaded with edges
350
3A8
  3
Shades of Gray
350
3A5
  3
Sketchy
350
3A6
  3
Thicken
350
39E
  3
Wireframe
350
397
  3
X-Ray
350
3A7
  0
XRECORD
  5
43A
102
{ACAD_REACTORS
330
374
102
}
330
374
100
AcDbXrecord
280
     1
 90
        1
330
3C1
  0
DICTIONARY
  5
436
102
{ACAD_REACTORS
330
374
102
}
330
374
100
AcDbDictionary
281
     1
  3
CANNOSCALE
350
437
  3
CMLEADERSTYLE
350
43C
  3
CTABLESTYLE
350
43B
  0
DICTIONARY
  5
3C6
102
{ACAD_REACTORS
330
374
102
}
330
374
100
AcDbDictionary
281
     1
  3
ColorSettings/BackgroundColor
350
3C8
  3
ColorSettings/ColorMode
350
3C9
  3
Grid/DisplayGrid00
350
3CA
  3
Grid/DisplayGrid01
350
3CB
  3
Grid/DisplayGrid02
350
3CC
  3
Grid/DisplayGrid03
350
3CD
  3
Grid/GridSpacingX00
350
3CE
  3
Grid/GridSpacingX01
350
3CF
  3
Grid/GridSpacingX02
350
3D0
  3
Grid/GridSpacingX03
350
3D1
  3
Grid/GridSpacingY00
350
3D2
  3
Grid/GridSpacingY01
350
3D3
  3
Grid/GridSpacingY02
350
3D4
  3
Grid/GridSpacingY03
350
3D5
  3
Grid/IsometricGrid00
350
3D6
  3
Grid/IsometricGrid01
350
3D7
  3
Grid/IsometricGrid02
350
3D8
  3
Grid/IsometricGrid03
350
3D9
  3
Grid/IsometricProjection00
350
3DA
  3
Grid/IsometricProjection01
350
3DB
  3
Grid/IsometricProjection02
350
3DC
  3
Grid/IsometricProjection03
350
3DD
  3
Grid/MetaGridSpacingX00
350
3DE
  3
Grid/MetaGridSpacingX01
350
3DF
  3
Grid/MetaGridSpacingX02
350
3E0
  3
Grid/MetaGridSpacingX03
350
3E1
  3
Grid/MetaGridSpacingY00
350
3E2
  3
Grid/MetaGridSpacingY01
350
3E3
  3
Grid/MetaGridSpacingY02
350
3E4
  3
Grid/MetaGridSpacingY03
350
3E5
  3
MultiPageSettings/Columns
350
3E6
  3
MultiPageSettings/GlueMarginsBottom
350
3E7
  3
MultiPageSettings/GlueMarginsLeft
350
3E8
  3
MultiPageSettings/GlueMarginsRight
350
3E9
  3
MultiPageSettings/GlueMarginsTop
350
3EA
  3
MultiPageSettings/PrintCropMarks
350
3EB
  3
MultiPageSettings/Rows
350
3EC
  3
PageSettings/OffsetX
350
3ED
  3
PageSettings/OffsetY
350
3EE
  3
PageSettings/PageOrientation
350
3EF
  3
PageSettings/PaperHeight
350
3F0
  3
PageSettings/PaperWidth
350
3F1
  3
PageSettings/Scale
350
3F2
  3
PageSettings/ShowPaperBorders
350
3F3
  3
PageTagSettings/EnablePageTags
350
3F4
  3
PageTagSettings/TagAlignment
350
3F5
  3
PageTagSettings/TagFont
350
3F6
  3
PageTagSettings/TagPosition
350
3F7
  3
QCADVersion
350
3F8
  3
UnitSettings/PaperUnit
350
3F9
  3
ViewportCenter
350
3FA
  3
ViewportHeight
350
3FB
  3
ViewportWidth
350
3FC
  0
LAYOUT
  5
385
102
{ACAD_REACTORS
330
381
102
}
330
381
100
AcDbPlotSettings
  1

  2
none_device
  4
ISO_A4_(210.00_x_297.00_MM)
  6

 40
7.5
 41
20.0
 42
7.5
 43
20.0
 44
210.0
 45
297.0
 46
0.0
 47
0.0
 48
0.0
 49
0.0
140
0.0
141
0.0
142
1.0
143
1.0
 70
   688
 72
     1
 73
     1
 74
     5
  7

 75
    16
 76
     0
 77
     2
 78
   300
147
1.0
148
0.0
149
0.0
100
AcDbLayout
  1
Layout1
 70
     1
 71
     1
 10
-20.0
 20
-7.5
 11
277.0
 21
202.5
 12
0.0
 22
0.0
 32
0.0
 14
1.000000000000000E+20
 24
1.000000000000000E+20
 34
1.000000000000000E+20
 15
-1.000000000000000E+20
 25
-1.000000000000000E+20
 35
-1.000000000000000E+20
146
0.0
 13
0.0
 23
0.0
 33
0.0
 16
1.0
 26
0.0
 36
0.0
 17
0.0
 27
1.0
 37
0.0
 76
     0
330
382
331
434
  0
LAYOUT
  5
389
102
{ACAD_REACTORS
330
381
102
}
330
381
100
AcDbPlotSettings
  1

  2
none_device
  4
Letter_(8.50_x_11.00_Inches)
  6

 40
6.35
 41
6.35
 42
6.35000508
 43
6.35000508
 44
215.9
 45
279.4
 46
0.0
 47
0.0
 48
0.0
 49
0.0
140
0.0
141
0.0
142
1.0
143
1.0
 70
  1712
 72
     0
 73
     0
 74
     0
  7

 75
     0
 76
     0
 77
     2
 78
   300
147
1.0
148
0.0
149
0.0
100
AcDbLayout
  1
Model
 70
     1
 71
     0
 10
0.0
 20
0.0
 11
12.0
 21
9.0
 12
0.0
 22
0.0
 32
0.0
 14
0.0
 24
0.0
 34
0.0
 15
748.7
 25
313.25
 35
0.0
146
0.0
 13
0.0
 23
0.0
 33
0.0
 16
1.0
 26
0.0
 36
0.0
 17
0.0
 27
1.0
 37
0.0
 76
     0
330
386
331
390
  0
MATERIAL
  5
3AC
102
{ACAD_REACTORS
330
3AA
102
}
330
3AA
100
AcDbMaterial
  1
ByBlock
 72
     1
 94
      127
  0
MATERIAL
  5
3AB
102
{ACAD_REACTORS
330
3AA
102
}
330
3AA
100
AcDbMaterial
  1
ByLayer
 72
     1
 94
      127
  0
MATERIAL
  5
3AD
102
{ACAD_REACTORS
330
3AA
102
}
330
3AA
100
AcDbMaterial
  1
Global
 72
     1
 94
      127
  0
MLEADERSTYLE
  5
3C3
102
{ACAD_REACTORS
330
3C2
102
}
330
3C2
100
AcDbMLeaderStyle
179
     2
170
     2
171
     1
172
     0
 90
        2
 40
0.0
 41
0.0
173
     1
 91
-1056964608
340
37B
 92
       -2
290
     1
 42
0.09
291
     1
 43
0.36
  3
Standard
341
0
 44
0.18
300

342
379
174
     1
178
     6
175
     1
176
     0
 93
-1056964608
 45
0.18
292
     0
297
     0
 46
0.18
343
0
 94
-1056964608
 47
1.0
 49
1.0
140
1.0
293
     1
141
0.0
294
     1
177
     0
142
1.0
295
     0
296
     0
143
0.125
271
     0
272
     9
273
     9
298
     0
  0
MLINESTYLE
  5
37F
102
{ACAD_REACTORS
330
37E
102
}
330
37E
100
AcDbMlineStyle
  2
Standard
 70
     0
  3

 62
   256
 51
90.0
 52
90.0
 71
     2
 49
0.5
 62
   256
  6
BYLAYER
 49
-0.5
 62
   256
  6
BYLAYER
  0
ACDBPLACEHOLDER
  5
377
102
{ACAD_REACTORS
330
376
102
}
330
376
  0
SCALE
  5
3AF
102
{ACAD_REACTORS
330
3AE
102
}
330
3AE
100
AcDbScale
 70
     0
300
1:1
140
1.0
141
1.0
290
     1
  0
SCALE
  5
3B0
102
{ACAD_REACTORS
330
3AE
102
}
330
3AE
100
AcDbScale
 70
     0
300
1/128" = 1'-0"
140
0.0078125
141
12.0
290
     0
  0
SCALE
  5
3B1
102
{ACAD_REACTORS
330
3AE
102
}
330
3AE
100
AcDbScale
 70
     0
300
1/64" = 1'-0"
140
0.015625
141
12.0
290
     0
  0
SCALE
  5
3B2
102
{ACAD_REACTORS
330
3AE
102
}
330
3AE
100
AcDbScale
 70
     0
300
1/32" = 1'-0"
140
0.03125
141
12.0
290
     0
  0
SCALE
  5
3B3
102
{ACAD_REACTORS
330
3AE
102
}
330
3AE
100
AcDbScale
 70
     0
300
1/16" = 1'-0"
140
0.0625
141
12.0
290
     0
  0
SCALE
  5
3B4
102
{ACAD_REACTORS
330
3AE
102
}
330
3AE
100
AcDbScale
 70
     0
300
3/32" = 1'-0"
140
0.09375
141
12.0
290
     0
  0
SCALE
  5
3B5
102
{ACAD_REACTORS
330
3AE
102
}
330
3AE
100
AcDbScale
 70
     0
300
1/8" = 1'-0"
140
0.125
141
12.0
290
     0
  0
SCALE
  5
3B6
102
{ACAD_REACTORS
330
3AE
102
}
330
3AE
100
AcDbScale
 70
     0
300
3/16" = 1'-0"
140
0.1875
141
12.0
290
     0
  0
SCALE
  5
3B7
102
{ACAD_REACTORS
330
3AE
102
}
330
3AE
100
AcDbScale
 70
     0
300
1/4" = 1'-0"
140
0.25
141
12.0
290
     0
  0
SCALE
  5
3B8
102
{ACAD_REACTORS
330
3AE
102
}
330
3AE
100
AcDbScale
 70
     0
300
3/8" = 1'-0"
140
0.375
141
12.0
290
     0
  0
SCALE
  5
3B9
102
{ACAD_REACTORS
330
3AE
102
}
330
3AE
100
AcDbScale
 70
     0
300
1/2" = 1'-0"
140
0.5
141
12.0
290
     0
  0
SCALE
  5
3BA
102
{ACAD_REACTORS
330
3AE
102
}
330
3AE
100
AcDbScale
 70
     0
300
3/4" = 1'-0"
140
0.75
141
12.0
290
     0
  0
SCALE
  5
3BB
102
{ACAD_REACTORS
330
3AE
102
}
330
3AE
100
AcDbScale
 70
     0
300
1" = 1'-0"
140
1.0
141
12.0
290
     0
  0
SCALE
  5
3BC
102
{ACAD_REACTORS
330
3AE
102
}
330
3AE
100
AcDbScale
 70
     0
300
1-1/2" = 1'-0"
140
1.5
141
12.0
290
     0
  0
SCALE
  5
3BD
102
{ACAD_REACTORS
330
3AE
102
}
330
3AE
100
AcDbScale
 70
     0
300
3" = 1'-0"
140
3.0
141
12.0
290
     0
  0
SCALE
  5
3BE
102
{ACAD_REACTORS
330
3AE
102
}
330
3AE
100
AcDbScale
 70
     0
300
6" = 1'-0"
140
6.0
141
12.0
290
     0
  0
SCALE
  5
3BF
102
{ACAD_REACTORS
330
3AE
102
}
330
3AE
100
AcDbScale
 70
     0
300
1'-0" = 1'-0"
140
12.0
141
12.0
290
     0
  0
TABLESTYLE
  5
3C1
102
{ACAD_REACTORS
330
3C0
102
}
102
{ACAD_XDICTIONARY
360
438
102
}
330
3C0
100
AcDbTableStyle
  3
Standard
 70
     0
 71
     0
 40
0.06
 41
0.06
280
     0
281
     0
  7
Standard
140
0.18
170
     2
 62
     0
 63
   257
283
     0
 90
        4
 91
        0
  1

274
    -2
284
     1
 64
     0
275
    -2
285
     1
 65
     0
276
    -2
286
     1
 66
     0
277
    -2
287
     1
 67
     0
278
    -2
288
     1
 68
     0
279
    -2
289
     1
 69
     0
  7
Standard
140
0.25
170
     5
 62
     0
 63
   257
283
     0
 90
        4
 91
        0
  1

274
    -2
284
     1
 64
     0
275
    -2
285
     1
 65
     0
276
    -2
286
     1
 66
     0
277
    -2
287
     1
 67
     0
278
    -2
288
     1
 68
     0
279
    -2
289
     1
 69
     0
  7
Standard
140
0.18
170
     5
 62
     0
 63
   257
283
     0
 90
        4
 91
        0
  1

274
    -2
284
     1
 64
     0
275
    -2
285
     1
 65
     0
276
    -2
286
     1
 66
     0
277
    -2
287
     1
 67
     0
278
    -2
288
     1
 68
     0
279
    -2
289
     1
 69
     0
  0
VISUALSTYLE
  5
396
102
{ACAD_REACTORS
330
391
102
}
330
391
100
AcDbVisualStyle
  2
2dWireframe
 70
     4
177
     3
291
     0
 70
    58
 90
        0
176
     1
 90
        2
176
     1
 90
        0
176
     1
 90
        0
176
     1
 40
0.6
176
     1
 40
30.0
176
     1
 62
     7
420
 16777215
176
     1
 90
        1
176
     1
 90
        4
176
     1
 62
     7
176
     1
 62
   257
176
     1
 90
        1
176
     1
 90
        1
176
     1
 40
1.0
176
     1
 90
        0
176
     1
 62
   257
176
     1
 40
1.0
176
     1
 90
        1
176
     1
 90
        6
176
     1
 90
        2
176
     1
 62
     7
176
     1
 90
        5
176
     1
 90
        0
176
     1
 90
        0
176
     1
290
     0
176
     1
 90
        1
176
     1
 40
0.0
176
     1
 90
        0
176
     1
290
     1
176
     1
290
     1
176
     1
290
     0
176
     1
290
     0
176
     1
290
     0
176
     1
290
     0
176
     1
290
     0
176
     1
290
     0
176
     1
290
     0
176
     1
 90
       50
176
     1
 40
0.0
176
     1
 40
1.0
176
     1
 90
        0
176
     1
 62
    18
420
        0
176
     1
 90
       50
176
     1
 90
        3
176
     1
 62
     5
420
      255
176
     1
290
     0
176
     1
 90
       50
176
     1
 90
       50
176
     1
 90
       50
176
     1
290
     0
176
     1
 90
       50
176
     1
 62
   256
176
     0
 40
1.0
176
     0
 90
        2
176
     1
  1
strokes_ogs.tif
176
     1
290
     0
176
     1
 40
1.0
176
     1
 40
1.0
176
     1
  0
VISUALSTYLE
  5
399
102
{ACAD_REACTORS
330
391
102
}
330
391
100
AcDbVisualStyle
  2
Basic
 70
     7
177
     3
291
     1
 70
    58
 90
        1
176
     1
 90
        0
176
     1
 90
        1
176
     1
 90
        0
176
     1
 40
0.6
176
     1
 40
30.0
176
     1
 62
     7
420
 16777215
176
     1
 90
        0
176
     1
 90
        4
176
     1
 62
     7
176
     1
 62
   257
176
     1
 90
        1
176
     1
 90
        1
176
     1
 40
1.0
176
     1
 90
        8
176
     1
 62
     7
176
     1
 40
1.0
176
     1
 90
        1
176
     1
 90
        6
176
     1
 90
        2
176
     1
 62
     7
176
     1
 90
        5
176
     1
 90
        0
176
     1
 90
        0
176
     1
290
     0
176
     1
 90
        1
176
     1
 40
0.0
176
     1
 90
        0
176
     1
290
     0
176
     1
290
     1
176
     1
290
     1
176
     1
290
     0
176
     1
290
     0
176
     1
290
     0
176
     1
290
     0
176
     1
290
     0
176
     1
290
     0
176
     1
 90
       50
176
     1
 40
0.0
176
     1
 40
1.0
176
     1
 90
        0
176
     1
 62
    18
420
        0
176
     1
 90
       50
176
     1
 90
        3
176
     1
 62
     5
420
      255
176
     1
290
     0
176
     1
 90
       50
176
     1
 90
       50
176
     1
 90
       50
176
     1
290
     0
176
     1
 90
       50
176
     1
 62
   256
176
     0
 40
1.0
176
     0
 90
        2
176
     1
  1
strokes_ogs.tif
176
     1
290
     0
176
     1
 40
1.0
176
     1
 40
1.0
176
     1
  0
VISUALSTYLE
  5
39D
102
{ACAD_REACTORS
330
391
102
}
330
391
100
AcDbVisualStyle
  2
Brighten
 70
    12
177
     3
291
     1
 70
    58
 90
        2
176
     1
 90
        2
176
     1
 90
        0
176
     1
 90
        0
176
     1
 40
0.6
176
     1
 40
30.0
176
     1
 62
     7
420
 16777215
176
     1
 90
        1
176
     1
 90
        4
176
     1
 62
     7
176
     1
 62
   257
176
     1
 90
        1
176
     1
 90
        1
176
     1
 40
1.0
176
     1
 90
        8
176
     1
 62
     7
176
     1
 40
1.0
176
     1
 90
        1
176
     1
 90
        6
176
     1
 90
        2
176
     1
 62
     7
176
     1
 90
        5
176
     1
 90
        0
176
     1
 90
        0
176
     1
290
     0
176
     1
 90
        1
176
     1
 40
50.0
176
     1
 90
        0
176
     1
290
     0
176
     1
290
     1
176
     1
290
     1
176
     1
290
     0
176
     1
290
     0
176
     1
290
     0
176
     1
290
     0
176
     1
290
     0
176
     1
290
     0
176
     1
 90
       50
176
     1
 40
0.0
176
     1
 40
1.0
176
     1
 90
        0
176
     1
 62
    18
420
        0
176
     1
 90
       50
176
     1
 90
        3
176
     1
 62
     5
420
      255
176
     1
290
     0
176
     1
 90
       50
176
     1
 90
       50
176
     1
 90
       50
176
     1
290
     0
176
     1
 90
       50
176
     1
 62
   256
176
     0
 40
1.0
176
     0
 90
        2
176
     1
  1
strokes_ogs.tif
176
     1
290
     0
176
     1
 40
1.0
176
     1
 40
1.0
176
     1
  0
VISUALSTYLE
  5
3A1
102
{ACAD_REACTORS
330
391
102
}
330
391
100
AcDbVisualStyle
  2
ColorChange
 70
    16
177
     3
291
     1
 70
    58
 90
        2
176
     1
 90
        2
176
     1
 90
        3
176
     1
 90
        0
176
     1
 40
0.6
176
     1
 40
30.0
176
     1
 62
     8
420
  8421504
176
     1
 90
        1
176
     1
 90
        4
176
     1
 62
     7
176
     1
 62
   257
176
     1
 90
        1
176
     1
 90
        1
176
     1
 40
1.0
176
     1
 90
        8
176
     1
 62
     8
420
  8421504
176
     1
 40
1.0
176
     1
 90
        1
176
     1
 90
        6
176
     1
 90
        2
176
     1
 62
     7
176
     1
 90
        5
176
     1
 90
        0
176
     1
 90
        0
176
     1
290
     0
176
     1
 90
        1
176
     1
 40
0.0
176
     1
 90
        0
176
     1
290
     0
176
     1
290
     1
176
     1
290
     1
176
     1
290
     0
176
     1
290
     0
176
     1
290
     0
176
     1
290
     0
176
     1
290
     0
176
     1
290
     0
176
     1
 90
       50
176
     1
 40
0.0
176
     1
 40
1.0
176
     1
 90
        0
176
     1
 62
    18
420
        0
176
     1
 90
       50
176
     1
 90
        3
176
     1
 62
     5
420
      255
176
     1
290
     0
176
     1
 90
       50
176
     1
 90
       50
176
     1
 90
       50
176
     1
290
     0
176
     1
 90
       50
176
     1
 62
   256
176
     0
 40
1.0
176
     0
 90
        2
176
     1
  1
strokes_ogs.tif
176
     1
290
     0
176
     1
 40
1.0
176
     1
 40
1.0
176
     1
  0
VISUALSTYLE
  5
39B
102
{ACAD_REACTORS
330
391
102
}
330
391
100
AcDbVisualStyle
  2
Conceptual
 70
     9
177
     3
291
     0
 70
    58
 90
        3
176
     1
 90
        2
176
     1
 90
        0
176
     1
 90
        0
176
     1
 40
0.6
176
     1
 40
30.0
176
     1
 62
     7
420
 16777215
176
     1
 90
        2
176
     1
 90
        2
176
     1
 62
     7
176
     1
 62
   257
176
     1
 90
        1
176
     1
 90
        1
176
     1
 40
179.0
176
     1
 90
        8
176
     1
 62
     7
176
     1
 40
1.0
176
     1
 90
        1
176
     1
 90
        6
176
     1
 90
        2
176
     1
 62
     7
176
     1
 90
        3
176
     1
 90
        0
176
     1
 90
        0
176
     1
290
     0
176
     1
 90
        1
176
     1
 40
0.0
176
     1
 90
        0
176
     1
290
     0
176
     1
290
     1
176
     1
290
     1
176
     1
290
     0
176
     1
290
     0
176
     1
290
     0
176
     1
290
     0
176
     1
290
     0
176
     1
290
     0
176
     1
 90
       50
176
     1
 40
0.0
176
     1
 40
1.0
176
     1
 90
        0
176
     1
 62
    18
420
        0
176
     1
 90
       50
176
     1
 90
        3
176
     1
 62
     5
420
      255
176
     1
290
     0
176
     1
 90
       50
176
     1
 90
       50
176
     1
 90
       50
176
     1
290
     0
176
     1
 90
       50
176
     1
 62
   256
176
     0
 40
1.0
176
     0
 90
        2
176
     1
  1
strokes_ogs.tif
176
     1
290
     0
176
     1
 40
1.0
176
     1
 40
1.0
176
     1
  0
VISUALSTYLE
  5
39C
102
{ACAD_REACTORS
330
391
102
}
330
391
100
AcDbVisualStyle
  2
Dim
 70
    11
177
     3
291
     1
 70
    58
 90
        2
176
     1
 90
        2
176
     1
 90
        0
176
     1
 90
        0
176
     1
 40
0.6
176
     1
 40
30.0
176
     1
 62
     7
420
 16777215
176
     1
 90
        1
176
     1
 90
        4
176
     1
 62
     7
176
     1
 62
   257
176
     1
 90
        1
176
     1
 90
        1
176
     1
 40
1.0
176
     1
 90
        8
176
     1
 62
     7
176
     1
 40
1.0
176
     1
 90
        1
176
     1
 90
        6
176
     1
 90
        2
176
     1
 62
     7
176
     1
 90
        5
176
     1
 90
        0
176
     1
 90
        0
176
     1
290
     0
176
     1
 90
        1
176
     1
 40
-50.0
176
     1
 90
        0
176
     1
290
     0
176
     1
290
     1
176
     1
290
     1
176
     1
290
     0
176
     1
290
     0
176
     1
290
     0
176
     1
290
     0
176
     1
290
     0
176
     1
290
     0
176
     1
 90
       50
176
     1
 40
0.0
176
     1
 40
1.0
176
     1
 90
        0
176
     1
 62
    18
420
        0
176
     1
 90
       50
176
     1
 90
        3
176
     1
 62
     5
420
      255
176
     1
290
     0
176
     1
 90
       50
176
     1
 90
       50
176
     1
 90
       50
176
     1
290
     0
176
     1
 90
       50
176
     1
 62
   256
176
     0
 40
1.0
176
     0
 90
        2
176
     1
  1
strokes_ogs.tif
176
     1
290
     0
176
     1
 40
1.0
176
     1
 40
1.0
176
     1
  0
VISUALSTYLE
  5
3A4
102
{ACAD_REACTORS
330
391
102
}
330
391
100
AcDbVisualStyle
  2
EdgeColorOff
 70
    22
177
     3
291
     1
 70
    58
 90
        2
176
     0
 90
        2
176
     0
 90
        0
176
     0
 90
        0
176
     0
 40
0.6
176
     0
 40
30.0
176
     0
 62
     7
420
 16777215
176
     0
 90
        1
176
     0
 90
        4
176
     0
 62
     7
176
     0
 62
   257
176
     0
 90
        1
176
     0
 90
        1
176
     0
 40
1.0
176
     0
 90
        8
176
     2
 62
     7
176
     0
 40
1.0
176
     0
 90
        1
176
     0
 90
        6
176
     0
 90
        2
176
     0
 62
     7
176
     0
 90
        5
176
     0
 90
        0
176
     0
 90
        0
176
     0
290
     0
176
     0
 90
        1
176
     0
 40
0.0
176
     0
 90
        0
176
     0
290
     0
176
     0
290
     1
176
     0
290
     1
176
     0
290
     0
176
     0
290
     0
176
     0
290
     0
176
     0
290
     0
176
     0
290
     0
176
     0
290
     0
176
     0
 90
       50
176
     0
 40
0.0
176
     0
 40
1.0
176
     0
 90
        0
176
     0
 62
    18
420
        0
176
     0
 90
       50
176
     0
 90
        3
176
     0
 62
     5
420
      255
176
     0
290
     0
176
     0
 90
       50
176
     0
 90
       50
176
     0
 90
       50
176
     0
290
     0
176
     0
 90
       50
176
     0
 62
   256
176
     0
 40
1.0
176
     0
 90
        2
176
     0
  1
strokes_ogs.tif
176
     0
290
     0
176
     0
 40
1.0
176
     0
 40
1.0
176
     0
  0
VISUALSTYLE
  5
3A0
102
{ACAD_REACTORS
330
391
102
}
330
391
100
AcDbVisualStyle
  2
Facepattern
 70
    15
177
     3
291
     1
 70
    58
 90
        2
176
     1
 90
        2
176
     1
 90
        0
176
     1
 90
        0
176
     1
 40
0.6
176
     1
 40
30.0
176
     1
 62
     7
420
 16777215
176
     1
 90
        1
176
     1
 90
        4
176
     1
 62
     7
176
     1
 62
   257
176
     1
 90
        1
176
     1
 90
        1
176
     1
 40
1.0
176
     1
 90
        8
176
     1
 62
     7
176
     1
 40
1.0
176
     1
 90
        1
176
     1
 90
        6
176
     1
 90
        2
176
     1
 62
     7
176
     1
 90
        5
176
     1
 90
        0
176
     1
 90
        0
176
     1
290
     0
176
     1
 90
        1
176
     1
 40
0.0
176
     1
 90
        0
176
     1
290
     0
176
     1
290
     1
176
     1
290
     1
176
     1
290
     0
176
     1
290
     0
176
     1
290
     0
176
     1
290
     0
176
     1
290
     0
176
     1
290
     0
176
     1
 90
       50
176
     1
 40
0.0
176
     1
 40
1.0
176
     1
 90
        0
176
     1
 62
    18
420
        0
176
     1
 90
       50
176
     1
 90
        3
176
     1
 62
     5
420
      255
176
     1
290
     0
176
     1
 90
       50
176
     1
 90
       50
176
     1
 90
       50
176
     1
290
     0
176
     1
 90
       50
176
     1
 62
   256
176
     0
 40
1.0
176
     0
 90
        2
176
     1
  1
strokes_ogs.tif
176
     1
290
     0
176
     1
 40
1.0
176
     1
 40
1.0
176
     1
  0
VISUALSTYLE
  5
392
102
{ACAD_REACTORS
330
391
102
}
330
391
100
AcDbVisualStyle
  2
Flat
 70
     0
177
     3
291
     1
 70
    58
 90
        2
176
     1
 90
        1
176
     1
 90
        1
176
     1
 90
        2
176
     1
 40
0.6
176
     1
 40
30.0
176
     1
 62
     7
420
 16777215
176
     1
 90
        0
176
     1
 90
        0
176
     1
 62
     7
176
     1
 62
   257
176
     1
 90
        1
176
     1
 90
        1
176
     1
 40
1.0
176
     1
 90
        8
176
     1
 62
     7
176
     1
 40
1.0
176
     1
 90
        1
176
     1
 90
        6
176
     1
 90
        2
176
     1
 62
     7
176
     1
 90
        5
176
     1
 90
        0
176
     1
 90
        0
176
     1
290
     0
176
     1
 90
       13
176
     1
 40
0.0
176
     1
 90
        0
176
     1
290
     0
176
     1
290
     1
176
     1
290
     1
176
     1
290
     0
176
     1
290
     0
176
     1
290
     0
176
     1
290
     0
176
     1
290
     0
176
     1
290
     0
176
     1
 90
       50
176
     1
 40
0.0
176
     1
 40
1.0
176
     1
 90
        0
176
     1
 62
    18
420
        0
176
     1
 90
       50
176
     1
 90
        3
176
     1
 62
     5
420
      255
176
     1
290
     0
176
     1
 90
       50
176
     1
 90
       50
176
     1
 90
       50
176
     1
290
     0
176
     1
 90
       50
176
     1
 62
   256
176
     0
 40
1.0
176
     0
 90
        2
176
     1
  1
strokes_ogs.tif
176
     1
290
     0
176
     1
 40
1.0
176
     1
 40
1.0
176
     1
  0
VISUALSTYLE
  5
393
102
{ACAD_REACTORS
330
391
102
}
330
391
100
AcDbVisualStyle
  2
FlatWithEdges
 70
     1
177
     3
291
     1
 70
    58
 90
        2
176
     1
 90
        1
176
     1
 90
        1
176
     1
 90
        2
176
     1
 40
0.6
176
     1
 40
30.0
176
     1
 62
     7
420
 16777215
176
     1
 90
        1
176
     1
 90
        0
176
     1
 62
     7
176
     1
 62
   257
176
     1
 90
        1
176
     1
 90
        1
176
     1
 40
1.0
176
     1
 90
        0
176
     1
 62
   257
176
     1
 40
1.0
176
     1
 90
        1
176
     1
 90
        6
176
     1
 90
        2
176
     1
 62
     7
176
     1
 90
        5
176
     1
 90
        0
176
     1
 90
        0
176
     1
290
     0
176
     1
 90
       13
176
     1
 40
0.0
176
     1
 90
        0
176
     1
290
     0
176
     1
290
     1
176
     1
290
     1
176
     1
290
     0
176
     1
290
     0
176
     1
290
     0
176
     1
290
     0
176
     1
290
     0
176
     1
290
     0
176
     1
 90
       50
176
     1
 40
0.0
176
     1
 40
1.0
176
     1
 90
        0
176
     1
 62
    18
420
        0
176
     1
 90
       50
176
     1
 90
        3
176
     1
 62
     5
420
      255
176
     1
290
     0
176
     1
 90
       50
176
     1
 90
       50
176
     1
 90
       50
176
     1
290
     0
176
     1
 90
       50
176
     1
 62
   256
176
     0
 40
1.0
176
     0
 90
        2
176
     1
  1
strokes_ogs.tif
176
     1
290
     0
176
     1
 40
1.0
176
     1
 40
1.0
176
     1
  0
VISUALSTYLE
  5
394
102
{ACAD_REACTORS
330
391
102
}
330
391
100
AcDbVisualStyle
  2
Gouraud
 70
     2
177
     3
291
     1
 70
    58
 90
        2
176
     1
 90
        2
176
     1
 90
        1
176
     1
 90
        2
176
     1
 40
0.6
176
     1
 40
30.0
176
     1
 62
     7
420
 16777215
176
     1
 90
        0
176
     1
 90
        0
176
     1
 62
     7
176
     1
 62
   257
176
     1
 90
        1
176
     1
 90
        1
176
     1
 40
1.0
176
     1
 90
        0
176
     1
 62
     7
176
     1
 40
1.0
176
     1
 90
        1
176
     1
 90
        6
176
     1
 90
        2
176
     1
 62
     7
176
     1
 90
        5
176
     1
 90
        0
176
     1
 90
        0
176
     1
290
     0
176
     1
 90
       13
176
     1
 40
0.0
176
     1
 90
        0
176
     1
290
     0
176
     1
290
     1
176
     1
290
     1
176
     1
290
     0
176
     1
290
     0
176
     1
290
     0
176
     1
290
     0
176
     1
290
     0
176
     1
290
     0
176
     1
 90
       50
176
     1
 40
0.0
176
     1
 40
1.0
176
     1
 90
        0
176
     1
 62
    18
420
        0
176
     1
 90
       50
176
     1
 90
        3
176
     1
 62
     5
420
      255
176
     1
290
     0
176
     1
 90
       50
176
     1
 90
       50
176
     1
 90
       50
176
     1
290
     0
176
     1
 90
       50
176
     1
 62
   256
176
     0
 40
1.0
176
     0
 90
        2
176
     1
  1
strokes_ogs.tif
176
     1
290
     0
176
     1
 40
1.0
176
     1
 40
1.0
176
     1
  0
VISUALSTYLE
  5
395
102
{ACAD_REACTORS
330
391
102
}
330
391
100
AcDbVisualStyle
  2
GouraudWithEdges
 70
     3
177
     3
291
     1
 70
    58
 90
        2
176
     1
 90
        2
176
     1
 90
        1
176
     1
 90
        2
176
     1
 40
0.6
176
     1
 40
30.0
176
     1
 62
     7
420
 16777215
176
     1
 90
        1
176
     1
 90
        0
176
     1
 62
     7
176
     1
 62
   257
176
     1
 90
        1
176
     1
 90
        1
176
     1
 40
1.0
176
     1
 90
        0
176
     1
 62
   257
176
     1
 40
1.0
176
     1
 90
        1
176
     1
 90
        6
176
     1
 90
        2
176
     1
 62
     7
176
     1
 90
        5
176
     1
 90
        0
176
     1
 90
        0
176
     1
290
     0
176
     1
 90
       13
176
     1
 40
0.0
176
     1
 90
        0
176
     1
290
     0
176
     1
290
     1
176
     1
290
     1
176
     1
290
     0
176
     1
290
     0
176
     1
290
     0
176
     1
290
     0
176
     1
290
     0
176
     1
290
     0
176
     1
 90
       50
176
     1
 40
0.0
176
     1
 40
1.0
176
     1
 90
        0
176
     1
 62
    18
420
        0
176
     1
 90
       50
176
     1
 90
        3
176
     1
 62
     5
420
      255
176
     1
290
     0
176
     1
 90
       50
176
     1
 90
       50
176
     1
 90
       50
176
     1
290
     0
176
     1
 90
       50
176
     1
 62
   256
176
     0
 40
1.0
176
     0
 90
        2
176
     1
  1
strokes_ogs.tif
176
     1
290
     0
176
     1
 40
1.0
176
     1
 40
1.0
176
     1
  0
VISUALSTYLE
  5
398
102
{ACAD_REACTORS
330
391
102
}
330
391
100
AcDbVisualStyle
  2
Hidden
 70
     6
177
     3
291
     0
 70
    58
 90
        1
176
     1
 90
        2
176
     1
 90
        2
176
     1
 90
        0
176
     1
 40
0.6
176
     1
 40
30.0
176
     1
 62
     7
420
 16777215
176
     1
 90
        2
176
     1
 90
        2
176
     1
 62
     7
176
     1
 62
   257
176
     1
 90
        2
176
     1
 90
        1
176
     1
 40
40.0
176
     1
 90
        0
176
     1
 62
   257
176
     1
 40
1.0
176
     1
 90
        1
176
     1
 90
        6
176
     1
 90
        2
176
     1
 62
     7
176
     1
 90
        3
176
     1
 90
        0
176
     1
 90
        0
176
     1
290
     0
176
     1
 90
        1
176
     1
 40
0.0
176
     1
 90
        0
176
     1
290
     0
176
     1
290
     1
176
     1
290
     1
176
     1
290
     0
176
     1
290
     0
176
     1
290
     0
176
     1
290
     0
176
     1
290
     0
176
     1
290
     0
176
     1
 90
       50
176
     1
 40
0.0
176
     1
 40
1.0
176
     1
 90
        0
176
     1
 62
    18
420
        0
176
     1
 90
       50
176
     1
 90
        3
176
     1
 62
     5
420
      255
176
     1
290
     0
176
     1
 90
       50
176
     1
 90
       50
176
     1
 90
       50
176
     1
290
     0
176
     1
 90
       50
176
     1
 62
   256
176
     0
 40
1.0
176
     0
 90
        2
176
     1
  1
strokes_ogs.tif
176
     1
290
     0
176
     1
 40
1.0
176
     1
 40
1.0
176
     1
  0
VISUALSTYLE
  5
3A2
102
{ACAD_REACTORS
330
391
102
}
330
391
100
AcDbVisualStyle
  2
JitterOff
 70
    20
177
     3
291
     1
 70
    58
 90
        2
176
     0
 90
        2
176
     0
 90
        0
176
     0
 90
        0
176
     0
 40
0.6
176
     0
 40
30.0
176
     0
 62
     7
420
 16777215
176
     0
 90
        1
176
     0
 90
        4
176
     0
 62
     7
176
     0
 62
   257
176
     0
 90
        1
176
     0
 90
        1
176
     0
 40
1.0
176
     0
 90
       10
176
     2
 62
     7
176
     0
 40
1.0
176
     0
 90
        1
176
     0
 90
        6
176
     0
 90
        2
176
     0
 62
     7
176
     0
 90
        5
176
     0
 90
        0
176
     0
 90
        0
176
     0
290
     0
176
     0
 90
        1
176
     0
 40
0.0
176
     0
 90
        0
176
     0
290
     0
176
     0
290
     1
176
     0
290
     1
176
     0
290
     0
176
     0
290
     0
176
     0
290
     0
176
     0
290
     0
176
     0
290
     0
176
     0
290
     0
176
     0
 90
       50
176
     0
 40
0.0
176
     0
 40
1.0
176
     0
 90
        0
176
     0
 62
    18
420
        0
176
     0
 90
       50
176
     0
 90
        3
176
     0
 62
     5
420
      255
176
     0
290
     0
176
     0
 90
       50
176
     0
 90
       50
176
     0
 90
       50
176
     0
290
     0
176
     0
 90
       50
176
     0
 62
   256
176
     0
 40
1.0
176
     0
 90
        2
176
     0
  1
strokes_ogs.tif
176
     0
290
     0
176
     0
 40
1.0
176
     0
 40
1.0
176
     0
  0
VISUALSTYLE
  5
39F
102
{ACAD_REACTORS
330
391
102
}
330
391
100
AcDbVisualStyle
  2
Linepattern
 70
    14
177
     3
291
     1
 70
    58
 90
        2
176
     1
 90
        2
176
     1
 90
        0
176
     1
 90
        0
176
     1
 40
0.6
176
     1
 40
30.0
176
     1
 62
     7
420
 16777215
176
     1
 90
        1
176
     1
 90
        4
176
     1
 62
     7
176
     1
 62
   257
176
     1
 90
        7
176
     1
 90
        7
176
     1
 40
1.0
176
     1
 90
        8
176
     1
 62
     7
176
     1
 40
1.0
176
     1
 90
        1
176
     1
 90
        6
176
     1
 90
        2
176
     1
 62
     7
176
     1
 90
        5
176
     1
 90
        0
176
     1
 90
        0
176
     1
290
     0
176
     1
 90
        1
176
     1
 40
0.0
176
     1
 90
        0
176
     1
290
     0
176
     1
290
     1
176
     1
290
     1
176
     1
290
     0
176
     1
290
     0
176
     1
290
     0
176
     1
290
     0
176
     1
290
     0
176
     1
290
     0
176
     1
 90
       50
176
     1
 40
0.0
176
     1
 40
1.0
176
     1
 90
        0
176
     1
 62
    18
420
        0
176
     1
 90
       50
176
     1
 90
        3
176
     1
 62
     5
420
      255
176
     1
290
     0
176
     1
 90
       50
176
     1
 90
       50
176
     1
 90
       50
176
     1
290
     0
176
     1
 90
       50
176
     1
 62
   256
176
     0
 40
1.0
176
     0
 90
        2
176
     1
  1
strokes_ogs.tif
176
     1
290
     0
176
     1
 40
1.0
176
     1
 40
1.0
176
     1
  0
VISUALSTYLE
  5
3A3
102
{ACAD_REACTORS
330
391
102
}
330
391
100
AcDbVisualStyle
  2
OverhangOff
 70
    21
177
     3
291
     1
 70
    58
 90
        2
176
     0
 90
        2
176
     0
 90
        0
176
     0
 90
        0
176
     0
 40
0.6
176
     0
 40
30.0
176
     0
 62
     7
420
 16777215
176
     0
 90
        1
176
     0
 90
        4
176
     0
 62
     7
176
     0
 62
   257
176
     0
 90
        1
176
     0
 90
        1
176
     0
 40
1.0
176
     0
 90
        9
176
     2
 62
     7
176
     0
 40
1.0
176
     0
 90
        1
176
     0
 90
        6
176
     0
 90
        2
176
     0
 62
     7
176
     0
 90
        5
176
     0
 90
        0
176
     0
 90
        0
176
     0
290
     0
176
     0
 90
        1
176
     0
 40
0.0
176
     0
 90
        0
176
     0
290
     0
176
     0
290
     1
176
     0
290
     1
176
     0
290
     0
176
     0
290
     0
176
     0
290
     0
176
     0
290
     0
176
     0
290
     0
176
     0
290
     0
176
     0
 90
       50
176
     0
 40
0.0
176
     0
 40
1.0
176
     0
 90
        0
176
     0
 62
    18
420
        0
176
     0
 90
       50
176
     0
 90
        3
176
     0
 62
     5
420
      255
176
     0
290
     0
176
     0
 90
       50
176
     0
 90
       50
176
     0
 90
       50
176
     0
290
     0
176
     0
 90
       50
176
     0
 62
   256
176
     0
 40
1.0
176
     0
 90
        2
176
     0
  1
strokes_ogs.tif
176
     0
290
     0
176
     0
 40
1.0
176
     0
 40
1.0
176
     0
  0
VISUALSTYLE
  5
39A
102
{ACAD_REACTORS
330
391
102
}
330
391
100
AcDbVisualStyle
  2
Realistic
 70
     8
177
     3
291
     0
 70
    58
 90
        2
176
     1
 90
        3
176
     1
 90
        0
176
     1
 90
        2
176
     1
 40
0.6
176
     1
 40
30.0
176
     1
 62
     7
420
 16777215
176
     1
 90
        0
176
     1
 90
        0
176
     1
 62
     7
176
     1
 62
   257
176
     1
 90
        1
176
     1
 90
        1
176
     1
 40
1.0
176
     1
 90
        8
176
     1
 62
   257
176
     1
 40
1.0
176
     1
 90
        1
176
     1
 90
        6
176
     1
 90
        2
176
     1
 62
     7
176
     1
 90
        3
176
     1
 90
        0
176
     1
 90
        0
176
     1
290
     0
176
     1
 90
       13
176
     1
 40
0.0
176
     1
 90
        0
176
     1
290
     0
176
     1
290
     1
176
     1
290
     1
176
     1
290
     0
176
     1
290
     0
176
     1
290
     0
176
     1
290
     0
176
     1
290
     0
176
     1
290
     0
176
     1
 90
       50
176
     1
 40
0.0
176
     1
 40
1.0
176
     1
 90
        0
176
     1
 62
    18
420
        0
176
     1
 90
       50
176
     1
 90
        3
176
     1
 62
     5
420
      255
176
     1
290
     0
176
     1
 90
       50
176
     1
 90
       50
176
     1
 90
       50
176
     1
290
     0
176
     1
 90
       50
176
     1
 62
   256
176
     0
 40
1.0
176
     0
 90
        2
176
     1
  1
strokes_ogs.tif
176
     1
290
     0
176
     1
 40
1.0
176
     1
 40
1.0
176
     1
  0
VISUALSTYLE
  5
3A9
102
{ACAD_REACTORS
330
391
102
}
330
391
100
AcDbVisualStyle
  2
Shaded
 70
    27
177
     3
291
     0
 70
    58
 90
        2
176
     1
 90
        2
176
     1
 90
        1
176
     1
 90
        2
176
     1
 40
0.6
176
     1
 40
30.0
176
     1
 62
     7
420
 16777215
176
     1
 90
        0
176
     1
 90
        4
176
     1
 62
     7
176
     1
 62
   257
176
     1
 90
        1
176
     1
 90
        1
176
     1
 40
1.0
176
     1
 90
        8
176
     1
 62
   257
176
     1
 40
1.0
176
     1
 90
        1
176
     1
 90
        6
176
     1
 90
        2
176
     1
 62
     8
420
  7895160
176
     1
 90
        3
176
     1
 90
        0
176
     1
 90
        0
176
     1
290
     0
176
     1
 90
        5
176
     1
 40
0.0
176
     1
 90
        0
176
     1
290
     0
176
     1
290
     1
176
     1
290
     1
176
     1
290
     0
176
     1
290
     0
176
     1
290
     0
176
     1
290
     0
176
     1
290
     0
176
     1
290
     0
176
     1
 90
       50
176
     1
 40
0.0
176
     1
 40
1.0
176
     1
 90
        0
176
     1
 62
    18
420
        0
176
     1
 90
       50
176
     1
 90
        3
176
     1
 62
     5
420
      255
176
     1
290
     0
176
     1
 90
       50
176
     1
 90
       50
176
     1
 90
       50
176
     1
290
     0
176
     1
 90
       50
176
     1
 62
   256
176
     0
 40
1.0
176
     0
 90
        2
176
     1
  1
strokes_ogs.tif
176
     1
290
     0
176
     1
 40
1.0
176
     1
 40
1.0
176
     1
  0
VISUALSTYLE
  5
3A8
102
{ACAD_REACTORS
330
391
102
}
330
391
100
AcDbVisualStyle
  2
Shaded with edges
 70
    26
177
     3
291
     0
 70
    58
 90
        2
176
     1
 90
        2
176
     1
 90
        1
176
     1
 90
        2
176
     1
 40
0.6
176
     1
 40
30.0
176
     1
 62
     7
420
 16777215
176
     1
 90
        1
176
     1
 90
       10
176
     1
 62
     7
176
     1
 62
   257
176
     1
 90
        2
176
     1
 90
        1
176
     1
 40
1.0
176
     1
 90
        8
176
     1
 62
   257
176
     1
 40
1.0
176
     1
 90
        1
176
     1
 90
        6
176
     1
 90
        2
176
     1
 62
     7
176
     1
 90
        3
176
     1
 90
        0
176
     1
 90
        0
176
     1
290
     0
176
     1
 90
        5
176
     1
 40
0.0
176
     1
 90
        0
176
     1
290
     0
176
     1
290
     1
176
     1
290
     1
176
     1
290
     0
176
     1
290
     0
176
     1
290
     0
176
     1
290
     0
176
     1
290
     0
176
     1
290
     0
176
     1
 90
       50
176
     1
 40
0.0
176
     1
 40
1.0
176
     1
 90
        0
176
     1
 62
    18
420
        0
176
     1
 90
       50
176
     1
 90
        3
176
     1
 62
     5
420
      255
176
     1
290
     0
176
     1
 90
       50
176
     1
 90
       50
176
     1
 90
       50
176
     1
290
     0
176
     1
 90
       50
176
     1
 62
   256
176
     0
 40
1.0
176
     0
 90
        2
176
     1
  1
strokes_ogs.tif
176
     1
290
     0
176
     1
 40
1.0
176
     1
 40
1.0
176
     1
  0
VISUALSTYLE
  5
3A5
102
{ACAD_REACTORS
330
391
102
}
330
391
100
AcDbVisualStyle
  2
Shades of Gray
 70
    23
177
     3
291
     0
 70
    58
 90
        2
176
     1
 90
        2
176
     1
 90
        3
176
     1
 90
        0
176
     1
 40
0.6
176
     1
 40
30.0
176
     1
 62
     7
420
 16777215
176
     1
 90
        2
176
     1
 90
        2
176
     1
 62
     7
176
     1
 62
     7
176
     1
 90
        1
176
     1
 90
        1
176
     1
 40
40.0
176
     1
 90
        8
176
     1
 62
     7
176
     1
 40
1.0
176
     1
 90
        1
176
     1
 90
        6
176
     1
 90
        2
176
     1
 62
     7
176
     1
 90
        3
176
     1
 90
        0
176
     1
 90
        0
176
     1
290
     0
176
     1
 90
        1
176
     1
 40
0.0
176
     1
 90
        0
176
     1
290
     0
176
     1
290
     1
176
     1
290
     1
176
     1
290
     0
176
     1
290
     0
176
     1
290
     0
176
     1
290
     0
176
     1
290
     0
176
     1
290
     0
176
     1
 90
       50
176
     1
 40
0.0
176
     1
 40
1.0
176
     1
 90
        0
176
     1
 62
    18
420
        0
176
     1
 90
       50
176
     1
 90
        3
176
     1
 62
     5
420
      255
176
     1
290
     0
176
     1
 90
       50
176
     1
 90
       50
176
     1
 90
       50
176
     1
290
     0
176
     1
 90
       50
176
     1
 62
   256
176
     0
 40
1.0
176
     0
 90
        2
176
     1
  1
strokes_ogs.tif
176
     1
290
     0
176
     1
 40
1.0
176
     1
 40
1.0
176
     1
  0
VISUALSTYLE
  5
3A6
102
{ACAD_REACTORS
330
391
102
}
330
391
100
AcDbVisualStyle
  2
Sketchy
 70
    24
177
     3
291
     0
 70
    58
 90
        1
176
     1
 90
        2
176
     1
 90
        2
176
     1
 90
        0
176
     1
 40
0.6
176
     1
 40
30.0
176
     1
 62
     7
420
 16777215
176
     1
 90
        2
176
     1
 90
        2
176
     1
 62
     7
176
     1
 62
     7
176
     1
 90
        1
176
     1
 90
        1
176
     1
 40
40.0
176
     1
 90
       11
176
     1
 62
     7
176
     1
 40
1.0
176
     1
 90
        1
176
     1
 90
        6
176
     1
 90
        2
176
     1
 62
     7
176
     1
 90
        6
176
     1
 90
        0
176
     1
 90
        0
176
     1
290
     0
176
     1
 90
        1
176
     1
 40
0.0
176
     1
 90
        0
176
     1
290
     0
176
     1
290
     1
176
     1
290
     1
176
     1
290
     0
176
     1
290
     0
176
     1
290
     0
176
     1
290
     0
176
     1
290
     0
176
     1
290
     0
176
     1
 90
       50
176
     1
 40
0.0
176
     1
 40
1.0
176
     1
 90
        0
176
     1
 62
    18
420
        0
176
     1
 90
       50
176
     1
 90
        3
176
     1
 62
     5
420
      255
176
     1
290
     0
176
     1
 90
       50
176
     1
 90
       50
176
     1
 90
       50
176
     1
290
     0
176
     1
 90
       50
176
     1
 62
   256
176
     0
 40
1.0
176
     0
 90
        2
176
     1
  1
strokes_ogs.tif
176
     1
290
     0
176
     1
 40
1.0
176
     1
 40
1.0
176
     1
  0
VISUALSTYLE
  5
39E
102
{ACAD_REACTORS
330
391
102
}
330
391
100
AcDbVisualStyle
  2
Thicken
 70
    13
177
     3
291
     1
 70
    58
 90
        2
176
     1
 90
        2
176
     1
 90
        0
176
     1
 90
        0
176
     1
 40
0.6
176
     1
 40
30.0
176
     1
 62
     7
420
 16777215
176
     1
 90
        1
176
     1
 90
        4
176
     1
 62
     7
176
     1
 62
   257
176
     1
 90
        1
176
     1
 90
        1
176
     1
 40
1.0
176
     1
 90
       12
176
     1
 62
     7
176
     1
 40
1.0
176
     1
 90
        1
176
     1
 90
        6
176
     1
 90
        2
176
     1
 62
     7
176
     1
 90
        5
176
     1
 90
        0
176
     1
 90
        0
176
     1
290
     0
176
     1
 90
        1
176
     1
 40
0.0
176
     1
 90
        0
176
     1
290
     0
176
     1
290
     1
176
     1
290
     1
176
     1
290
     0
176
     1
290
     0
176
     1
290
     0
176
     1
290
     0
176
     1
290
     0
176
     1
290
     0
176
     1
 90
       50
176
     1
 40
0.0
176
     1
 40
1.0
176
     1
 90
        0
176
     1
 62
    18
420
        0
176
     1
 90
       50
176
     1
 90
        3
176
     1
 62
     5
420
      255
176
     1
290
     0
176
     1
 90
       50
176
     1
 90
       50
176
     1
 90
       50
176
     1
290
     0
176
     1
 90
       50
176
     1
 62
   256
176
     0
 40
1.0
176
     0
 90
        2
176
     1
  1
strokes_ogs.tif
176
     1
290
     0
176
     1
 40
1.0
176
     1
 40
1.0
176
     1
  0
VISUALSTYLE
  5
397
102
{ACAD_REACTORS
330
391
102
}
330
391
100
AcDbVisualStyle
  2
Wireframe
 70
     5
177
     3
291
     0
 70
    58
 90
        0
176
     1
 90
        2
176
     1
 90
        0
176
     1
 90
        0
176
     1
 40
0.6
176
     1
 40
30.0
176
     1
 62
     7
420
 16777215
176
     1
 90
        1
176
     1
 90
        4
176
     1
 62
     7
176
     1
 62
   257
176
     1
 90
        1
176
     1
 90
        1
176
     1
 40
1.0
176
     1
 90
        0
176
     1
 62
   257
176
     1
 40
1.0
176
     1
 90
        1
176
     1
 90
        6
176
     1
 90
        2
176
     1
 62
     7
176
     1
 90
        3
176
     1
 90
        0
176
     1
 90
        0
176
     1
290
     0
176
     1
 90
        1
176
     1
 40
0.0
176
     1
 90
        0
176
     1
290
     0
176
     1
290
     1
176
     1
290
     1
176
     1
290
     0
176
     1
290
     0
176
     1
290
     0
176
     1
290
     0
176
     1
290
     0
176
     1
290
     0
176
     1
 90
       50
176
     1
 40
0.0
176
     1
 40
1.0
176
     1
 90
        0
176
     1
 62
    18
420
        0
176
     1
 90
       50
176
     1
 90
        3
176
     1
 62
     5
420
      255
176
     1
290
     0
176
     1
 90
       50
176
     1
 90
       50
176
     1
 90
       50
176
     1
290
     0
176
     1
 90
       50
176
     1
 62
   256
176
     0
 40
1.0
176
     0
 90
        2
176
     1
  1
strokes_ogs.tif
176
     1
290
     0
176
     1
 40
1.0
176
     1
 40
1.0
176
     1
  0
VISUALSTYLE
  5
3A7
102
{ACAD_REACTORS
330
391
102
}
330
391
100
AcDbVisualStyle
  2
X-Ray
 70
    25
177
     3
291
     0
 70
    58
 90
        2
176
     1
 90
        2
176
     1
 90
        1
176
     1
 90
        1
176
     1
 40
0.5
176
     1
 40
30.0
176
     1
 62
     7
420
 16777215
176
     1
 90
        1
176
     1
 90
        0
176
     1
 62
     7
176
     1
 62
   257
176
     1
 90
        1
176
     1
 90
        1
176
     1
 40
1.0
176
     1
 90
        8
176
     1
 62
     7
176
     1
 40
1.0
176
     1
 90
        1
176
     1
 90
        6
176
     1
 90
        2
176
     1
 62
     7
176
     1
 90
        3
176
     1
 90
        0
176
     1
 90
        0
176
     1
290
     0
176
     1
 90
       13
176
     1
 40
0.0
176
     1
 90
        0
176
     1
290
     0
176
     1
290
     1
176
     1
290
     1
176
     1
290
     0
176
     1
290
     0
176
     1
290
     0
176
     1
290
     0
176
     1
290
     0
176
     1
290
     0
176
     1
 90
       50
176
     1
 40
0.0
176
     1
 40
1.0
176
     1
 90
        0
176
     1
 62
    18
420
        0
176
     1
 90
       50
176
     1
 90
        3
176
     1
 62
     5
420
      255
176
     1
290
     0
176
     1
 90
       50
176
     1
 90
       50
176
     1
 90
       50
176
     1
290
     0
176
     1
 90
       50
176
     1
 62
   256
176
     0
 40
1.0
176
     0
 90
        2
176
     1
  1
strokes_ogs.tif
176
     1
290
     0
176
     1
 40
1.0
176
     1
 40
1.0
176
     1
  0
DICTIONARYVAR
  5
437
102
{ACAD_REACTORS
330
436
102
}
330
436
100
DictionaryVariables
280
     0
  1
1:1
  0
DICTIONARYVAR
  5
43C
102
{ACAD_REACTORS
330
436
102
}
330
436
100
DictionaryVariables
280
     0
  1
Standard
  0
DICTIONARYVAR
  5
43B
102
{ACAD_REACTORS
330
436
102
}
330
436
100
DictionaryVariables
280
     0
  1
Standard
  0
XRECORD
  5
3C8
102
{ACAD_REACTORS
330
3C6
102
}
330
3C6
100
AcDbXrecord
280
     1
1000
#ffffff
  0
XRECORD
  5
3C9
102
{ACAD_REACTORS
330
3C6
102
}
330
3C6
100
AcDbXrecord
280
     1
1000
FullColor
  0
XRECORD
  5
3CA
102
{ACAD_REACTORS
330
3C6
102
}
330
3C6
100
AcDbXrecord
280
     1
290
     1
  0
XRECORD
  5
3CB
102
{ACAD_REACTORS
330
3C6
102
}
330
3C6
100
AcDbXrecord
280
     1
290
     1
  0
XRECORD
  5
3CC
102
{ACAD_REACTORS
330
3C6
102
}
330
3C6
100
AcDbXrecord
280
     1
290
     1
  0
XRECORD
  5
3CD
102
{ACAD_REACTORS
330
3C6
102
}
330
3C6
100
AcDbXrecord
280
     1
290
     1
  0
XRECORD
  5
3CE
102
{ACAD_REACTORS
330
3C6
102
}
330
3C6
100
AcDbXrecord
280
     1
1000
auto
  0
XRECORD
  5
3CF
102
{ACAD_REACTORS
330
3C6
102
}
330
3C6
100
AcDbXrecord
280
     1
1000
auto
  0
XRECORD
  5
3D0
102
{ACAD_REACTORS
330
3C6
102
}
330
3C6
100
AcDbXrecord
280
     1
1000
auto
  0
XRECORD
  5
3D1
102
{ACAD_REACTORS
330
3C6
102
}
330
3C6
100
AcDbXrecord
280
     1
1000
auto
  0
XRECORD
  5
3D2
102
{ACAD_REACTORS
330
3C6
102
}
330
3C6
100
AcDbXrecord
280
     1
1000
auto
  0
XRECORD
  5
3D3
102
{ACAD_REACTORS
330
3C6
102
}
330
3C6
100
AcDbXrecord
280
     1
1000
auto
  0
XRECORD
  5
3D4
102
{ACAD_REACTORS
330
3C6
102
}
330
3C6
100
AcDbXrecord
280
     1
1000
auto
  0
XRECORD
  5
3D5
102
{ACAD_REACTORS
330
3C6
102
}
330
3C6
100
AcDbXrecord
280
     1
1000
auto
  0
XRECORD
  5
3D6
102
{ACAD_REACTORS
330
3C6
102
}
330
3C6
100
AcDbXrecord
280
     1
290
     0
  0
XRECORD
  5
3D7
102
{ACAD_REACTORS
330
3C6
102
}
330
3C6
100
AcDbXrecord
280
     1
290
     0
  0
XRECORD
  5
3D8
102
{ACAD_REACTORS
330
3C6
102
}
330
3C6
100
AcDbXrecord
280
     1
290
     0
  0
XRECORD
  5
3D9
102
{ACAD_REACTORS
330
3C6
102
}
330
3C6
100
AcDbXrecord
280
     1
290
     0
  0
XRECORD
  5
3DA
102
{ACAD_REACTORS
330
3C6
102
}
330
3C6
100
AcDbXrecord
280
     1
 90
    65537
  0
XRECORD
  5
3DB
102
{ACAD_REACTORS
330
3C6
102
}
330
3C6
100
AcDbXrecord
280
     1
 90
    65537
  0
XRECORD
  5
3DC
102
{ACAD_REACTORS
330
3C6
102
}
330
3C6
100
AcDbXrecord
280
     1
 90
    65537
  0
XRECORD
  5
3DD
102
{ACAD_REACTORS
330
3C6
102
}
330
3C6
100
AcDbXrecord
280
     1
 90
    65537
  0
XRECORD
  5
3DE
102
{ACAD_REACTORS
330
3C6
102
}
330
3C6
100
AcDbXrecord
280
     1
1000
auto
  0
XRECORD
  5
3DF
102
{ACAD_REACTORS
330
3C6
102
}
330
3C6
100
AcDbXrecord
280
     1
1000
auto
  0
XRECORD
  5
3E0
102
{ACAD_REACTORS
330
3C6
102
}
330
3C6
100
AcDbXrecord
280
     1
1000
auto
  0
XRECORD
  5
3E1
102
{ACAD_REACTORS
330
3C6
102
}
330
3C6
100
AcDbXrecord
280
     1
1000
auto
  0
XRECORD
  5
3E2
102
{ACAD_REACTORS
330
3C6
102
}
330
3C6
100
AcDbXrecord
280
     1
1000
auto
  0
XRECORD
  5
3E3
102
{ACAD_REACTORS
330
3C6
102
}
330
3C6
100
AcDbXrecord
280
     1
1000
auto
  0
XRECORD
  5
3E4
102
{ACAD_REACTORS
330
3C6
102
}
330
3C6
100
AcDbXrecord
280
     1
1000
auto
  0
XRECORD
  5
3E5
102
{ACAD_REACTORS
330
3C6
102
}
330
3C6
100
AcDbXrecord
280
     1
1000
auto
  0
XRECORD
  5
3E6
102
{ACAD_REACTORS
330
3C6
102
}
330
3C6
100
AcDbXrecord
280
     1
 90
        1
  0
XRECORD
  5
3E7
102
{ACAD_REACTORS
330
3C6
102
}
330
3C6
100
AcDbXrecord
280
     1
 40
10.0
  0
XRECORD
  5
3E8
102
{ACAD_REACTORS
330
3C6
102
}
330
3C6
100
AcDbXrecord
280
     1
 40
10.0
  0
XRECORD
  5
3E9
102
{ACAD_REACTORS
330
3C6
102
}
330
3C6
100
AcDbXrecord
280
     1
 40
10.0
  0
XRECORD
  5
3EA
102
{ACAD_REACTORS
330
3C6
102
}
330
3C6
100
AcDbXrecord
280
     1
 40
10.0
  0
XRECORD
  5
3EB
102
{ACAD_REACTORS
330
3C6
102
}
330
3C6
100
AcDbXrecord
280
     1
290
     0
  0
XRECORD
  5
3EC
102
{ACAD_REACTORS
330
3C6
102
}
330
3C6
100
AcDbXrecord
280
     1
 90
        1
  0
XRECORD
  5
3ED
102
{ACAD_REACTORS
330
3C6
102
}
330
3C6
100
AcDbXrecord
280
     1
 40
0.0
  0
XRECORD
  5
3EE
102
{ACAD_REACTORS
330
3C6
102
}
330
3C6
100
AcDbXrecord
280
     1
 40
0.0
  0
XRECORD
  5
3EF
102
{ACAD_REACTORS
330
3C6
102
}
330
3C6
100
AcDbXrecord
280
     1
1000
Portrait
  0
XRECORD
  5
3F0
102
{ACAD_REACTORS
330
3C6
102
}
330
3C6
100
AcDbXrecord
280
     1
 40
279.4
  0
XRECORD
  5
3F1
102
{ACAD_REACTORS
330
3C6
102
}
330
3C6
100
AcDbXrecord
280
     1
 40
215.9
  0
XRECORD
  5
3F2
102
{ACAD_REACTORS
330
3C6
102
}
330
3C6
100
AcDbXrecord
280
     1
1000
1:1
  0
XRECORD
  5
3F3
102
{ACAD_REACTORS
330
3C6
102
}
330
3C6
100
AcDbXrecord
280
     1
290
     1
  0
XRECORD
  5
3F4
102
{ACAD_REACTORS
330
3C6
102
}
330
3C6
100
AcDbXrecord
280
     1
290
     0
  0
XRECORD
  5
3F5
102
{ACAD_REACTORS
330
3C6
102
}
330
3C6
100
AcDbXrecord
280
     1
1000
Inside
  0
XRECORD
  5
3F6
102
{ACAD_REACTORS
330
3C6
102
}
330
3C6
100
AcDbXrecord
280
     1
1000
Arial,10,-1,5,50,0,0,0,0,0
  0
XRECORD
  5
3F7
102
{ACAD_REACTORS
330
3C6
102
}
330
3C6
100
AcDbXrecord
280
     1
1000
TopLeft
  0
XRECORD
  5
3F8
102
{ACAD_REACTORS
330
3C6
102
}
330
3C6
100
AcDbXrecord
280
     1
1000
3.31.1
  0
XRECORD
  5
3F9
102
{ACAD_REACTORS
330
3C6
102
}
330
3C6
100
AcDbXrecord
280
     1
 90
        4
  0
XRECORD
  5
3FA
102
{ACAD_REACTORS
330
3C6
102
}
330
3C6
100
AcDbXrecord
280
     1
  0
XRECORD
  5
3FB
102
{ACAD_REACTORS
330
3C6
102
}
330
3C6
100
AcDbXrecord
280
     1
 40
429.2138377641446
  0
XRECORD
  5
3FC
102
{ACAD_REACTORS
330
3C6
102
}
330
3C6
100
AcDbXrecord
280
     1
 40
774.2180640763463
  0
DICTIONARY
  5
438
330
3C1
100
AcDbDictionary
280
     1
281
     1
  3
ACAD_ROUNDTRIP_2008_TABLESTYLE_CELLSTYLEMAP
360
439
  0
CELLSTYLEMAP
  5
439
102
{ACAD_REACTORS
330
438
102
}
330
438
100
AcDbCellStyleMap
 90
        3
300
CELLSTYLE
  1
TABLEFORMAT_BEGIN
 90
        5
170
     1
 91
        0
 92
    32768
 62
   257
 93
        1
300
CONTENTFORMAT
  1
CONTENTFORMAT_BEGIN
 90
        0
 91
        0
 92
        4
 93
        0
300

 40
0.0
140
1.0
 94
        5
 62
     0
340
379
144
0.25
309
CONTENTFORMAT_END
171
     1
301
MARGIN
  1
CELLMARGIN_BEGIN
 40
0.06
 40
0.06
 40
0.06
 40
0.06
 40
0.06
 40
0.06
309
CELLMARGIN_END
 94
        6
 95
        1
302
GRIDFORMAT
  1
GRIDFORMAT_BEGIN
 90
        0
 91
        1
 62
     0
 92
       -2
340
37B
 93
        0
 40
0.045
309
GRIDFORMAT_END
 95
        2
302
GRIDFORMAT
  1
GRIDFORMAT_BEGIN
 90
        0
 91
        1
 62
     0
 92
       -2
340
37B
 93
        0
 40
0.045
309
GRIDFORMAT_END
 95
        4
302
GRIDFORMAT
  1
GRIDFORMAT_BEGIN
 90
        0
 91
        1
 62
     0
 92
       -2
340
37B
 93
        0
 40
0.045
309
GRIDFORMAT_END
 95
        8
302
GRIDFORMAT
  1
GRIDFORMAT_BEGIN
 90
        0
 91
        1
 62
     0
 92
       -2
340
37B
 93
        0
 40
0.045
309
GRIDFORMAT_END
 95
       16
302
GRIDFORMAT
  1
GRIDFORMAT_BEGIN
 90
        0
 91
        1
 62
     0
 92
       -2
340
37B
 93
        0
 40
0.045
309
GRIDFORMAT_END
 95
       32
302
GRIDFORMAT
  1
GRIDFORMAT_BEGIN
 90
        0
 91
        1
 62
     0
 92
       -2
340
37B
 93
        0
 40
0.045
309
GRIDFORMAT_END
309
TABLEFORMAT_END
  1
CELLSTYLE_BEGIN
 90
        1
 91
        1
300
_TITLE
309
CELLSTYLE_END
300
CELLSTYLE
  1
TABLEFORMAT_BEGIN
 90
        5
170
     1
 91
        0
 92
        0
 62
   257
 93
        1
300
CONTENTFORMAT
  1
CONTENTFORMAT_BEGIN
 90
        0
 91
        0
 92
        4
 93
        0
300

 40
0.0
140
1.0
 94
        5
 62
     0
340
379
144
0.18
309
CONTENTFORMAT_END
171
     1
301
MARGIN
  1
CELLMARGIN_BEGIN
 40
0.06
 40
0.06
 40
0.06
 40
0.06
 40
0.06
 40
0.06
309
CELLMARGIN_END
 94
        6
 95
        1
302
GRIDFORMAT
  1
GRIDFORMAT_BEGIN
 90
        0
 91
        1
 62
     0
 92
       -2
340
37B
 93
        0
 40
0.045
309
GRIDFORMAT_END
 95
        2
302
GRIDFORMAT
  1
GRIDFORMAT_BEGIN
 90
        0
 91
        1
 62
     0
 92
       -2
340
37B
 93
        0
 40
0.045
309
GRIDFORMAT_END
 95
        4
302
GRIDFORMAT
  1
GRIDFORMAT_BEGIN
 90
        0
 91
        1
 62
     0
 92
       -2
340
37B
 93
        0
 40
0.045
309
GRIDFORMAT_END
 95
        8
302
GRIDFORMAT
  1
GRIDFORMAT_BEGIN
 90
        0
 91
        1
 62
     0
 92
       -2
340
37B
 93
        0
 40
0.045
309
GRIDFORMAT_END
 95
       16
302
GRIDFORMAT
  1
GRIDFORMAT_BEGIN
 90
        0
 91
        1
 62
     0
 92
       -2
340
37B
 93
        0
 40
0.045
309
GRIDFORMAT_END
 95
       32
302
GRIDFORMAT
  1
GRIDFORMAT_BEGIN
 90
        0
 91
        1
 62
     0
 92
       -2
340
37B
 93
        0
 40
0.045
309
GRIDFORMAT_END
309
TABLEFORMAT_END
  1
CELLSTYLE_BEGIN
 90
        2
 91
        1
300
_HEADER
309
CELLSTYLE_END
300
CELLSTYLE
  1
TABLEFORMAT_BEGIN
 90
        5
170
     1
 91
        0
 92
        0
 62
   257
 93
        1
300
CONTENTFORMAT
  1
CONTENTFORMAT_BEGIN
 90
        0
 91
        0
 92
        4
 93
        0
300

 40
0.0
140
1.0
 94
        2
 62
     0
340
379
144
0.18
309
CONTENTFORMAT_END
171
     1
301
MARGIN
  1
CELLMARGIN_BEGIN
 40
0.06
 40
0.06
 40
0.06
 40
0.06
 40
0.06
 40
0.06
309
CELLMARGIN_END
 94
        6
 95
        1
302
GRIDFORMAT
  1
GRIDFORMAT_BEGIN
 90
        0
 91
        1
 62
     0
 92
       -2
340
37B
 93
        0
 40
0.045
309
GRIDFORMAT_END
 95
        2
302
GRIDFORMAT
  1
GRIDFORMAT_BEGIN
 90
        0
 91
        1
 62
     0
 92
       -2
340
37B
 93
        0
 40
0.045
309
GRIDFORMAT_END
 95
        4
302
GRIDFORMAT
  1
GRIDFORMAT_BEGIN
 90
        0
 91
        1
 62
     0
 92
       -2
340
37B
 93
        0
 40
0.045
309
GRIDFORMAT_END
 95
        8
302
GRIDFORMAT
  1
GRIDFORMAT_BEGIN
 90
        0
 91
        1
 62
     0
 92
       -2
340
37B
 93
        0
 40
0.045
309
GRIDFORMAT_END
 95
       16
302
GRIDFORMAT
  1
GRIDFORMAT_BEGIN
 90
        0
 91
        1
 62
     0
 92
       -2
340
37B
 93
        0
 40
0.045
309
GRIDFORMAT_END
 95
       32
302
GRIDFORMAT
  1
GRIDFORMAT_BEGIN
 90
        0
 91
        1
 62
     0
 92
       -2
340
37B
 93
        0
 40
0.045
309
GRIDFORMAT_END
309
TABLEFORMAT_END
  1
CELLSTYLE_BEGIN
 90
        3
 91
        2
300
_DATA
309
CELLSTYLE_END
  0
ENDSEC
  0
EOF
