  0
SECTION
  2
HEADER
  9
$MEASUREMENT
  70
  1
  9
$INSUNITS
  70
  4
  0
ENDSEC
  0
SECTION
  2
TABLES
  0
TABLE
  2
LTYPE
 70
     1
  0
LTYPE
  2
CONTINUOUS
 70
    64
  3
Ausgezogene Linie
 72
    65
 73
     0
 40
0.0
  0
ENDTAB
  0
TABLE
  2
LAYER
 70
     3
  0
LAYER
  2
Contour
 70
    64
 62
     7
  6
CONTINUOUS
  0
LAYER
  2
Engraving
 70
    64
 62
     7
  6
CONTINUOUS
  0
LAYER
  2
Reference_points
 70
    64
 62
     1
  6
CONTINUOUS
  0
ENDTAB
  0
TABLE
  2
STYLE
 70
     1
  0
STYLE
  2
TXT
 70
    64
 40
0.0
 41
1.0
 50
0.0
 71
     0
 42
3.500000
  3
TXT
  0
ENDTAB
  0
ENDSEC
  0
SECTION
  2
BLOCKS
  0
ENDSEC
  0
SECTION
  2
ENTITIES
  0
LINE
  8
Contour
 62
   7
 39
0.100
  6
CONTINUOUS
 10
124.79900
 20
191.03100
 30
 0
 11
124.80000
 21
173.75200
  0
LINE
  8
Contour
 62
   7
 39
0.100
  6
CONTINUOUS
 10
124.80000
 20
173.75200
 30
 0
 11
116.70000
 21
173.75000
  0
ARC
  8
Contour
 62
   7
 39
0.100
  6
CONTINUOUS
 10
116.70000
 20
172.25000
 30
 0
 40
1.50000
 50
89.99999
 51
179.96180
  0
LINE
  8
Contour
 62
   7
 39
0.100
  6
CONTINUOUS
 10
115.20000
 20
172.25100
 30
 0
 11
115.20000
 21
172.25100
  0
LINE
  8
Contour
 62
   7
 39
0.100
  6
CONTINUOUS
 10
115.20000
 20
172.25100
 30
 0
 11
115.20100
 21
154.13100
  0
ARC
  8
Contour
 62
   7
 39
0.100
  6
CONTINUOUS
 10
116.70050
 20
154.13050
 30
 0
 40
1.49950
 50
179.98091
 51
269.98088
  0
LINE
  8
Contour
 62
   7
 39
0.100
  6
CONTINUOUS
 10
116.70000
 20
152.63100
 30
 0
 11
116.70000
 21
152.63100
  0
LINE
  8
Contour
 62
   7
 39
0.100
  6
CONTINUOUS
 10
116.70000
 20
152.63100
 30
 0
 11
124.79900
 21
152.63100
  0
LINE
  8
Contour
 62
   7
 39
0.100
  6
CONTINUOUS
 10
124.79900
 20
152.63100
 30
 0
 11
124.80000
 21
135.35200
  0
LINE
  8
Contour
 62
   7
 39
0.100
  6
CONTINUOUS
 10
124.80000
 20
135.35200
 30
 0
 11
116.70000
 21
135.35000
  0
ARC
  8
Contour
 62
   7
 39
0.100
  6
CONTINUOUS
 10
116.69950
 20
133.85050
 30
 0
 40
1.49950
 50
89.98090
 51
179.98090
  0
LINE
  8
Contour
 62
   7
 39
0.100
  6
CONTINUOUS
 10
115.20000
 20
133.85100
 30
 0
 11
115.20000
 21
133.85100
  0
LINE
  8
Contour
 62
   7
 39
0.100
  6
CONTINUOUS
 10
115.20000
 20
133.85100
 30
 0
 11
115.20100
 21
115.73100
  0
ARC
  8
Contour
 62
   7
 39
0.100
  6
CONTINUOUS
 10
116.70100
 20
115.73100
 30
 0
 40
1.50000
 50
179.99999
 51
269.96180
  0
LINE
  8
Contour
 62
   7
 39
0.100
  6
CONTINUOUS
 10
116.70000
 20
114.23100
 30
 0
 11
116.70000
 21
114.23100
  0
LINE
  8
Contour
 62
   7
 39
0.100
  6
CONTINUOUS
 10
116.70000
 20
114.23100
 30
 0
 11
124.79900
 21
114.23100
  0
LINE
  8
Contour
 62
   7
 39
0.100
  6
CONTINUOUS
 10
124.79900
 20
114.23100
 30
 0
 11
124.80000
 21
96.95200
  0
LINE
  8
Contour
 62
   7
 39
0.100
  6
CONTINUOUS
 10
124.80000
 20
96.95200
 30
 0
 11
116.73900
 21
96.95000
  0
ARC
  8
Contour
 62
   7
 39
0.100
  6
CONTINUOUS
 10
116.73850
 20
95.45050
 30
 0
 40
1.49950
 50
89.98085
 51
179.86616
  0
LINE
  8
Contour
 62
   7
 39
0.100
  6
CONTINUOUS
 10
115.23900
 20
95.45400
 30
 0
 11
115.23900
 21
95.45400
  0
LINE
  8
Contour
 62
   7
 39
0.100
  6
CONTINUOUS
 10
115.23900
 20
95.45400
 30
 0
 11
115.20400
 21
77.33400
  0
ARC
  8
Contour
 62
   7
 39
0.100
  6
CONTINUOUS
 10
116.70350
 20
77.33050
 30
 0
 40
1.49950
 50
179.86632
 51
269.98099
  0
LINE
  8
Contour
 62
   7
 39
0.100
  6
CONTINUOUS
 10
116.70300
 20
75.83100
 30
 0
 11
116.70300
 21
75.83100
  0
LINE
  8
Contour
 62
   7
 39
0.100
  6
CONTINUOUS
 10
116.70300
 20
75.83100
 30
 0
 11
124.84100
 21
75.83100
  0
LINE
  8
Contour
 62
   7
 39
0.100
  6
CONTINUOUS
 10
124.84100
 20
75.83100
 30
 0
 11
124.84200
 21
58.55200
  0
LINE
  8
Contour
 62
   7
 39
0.100
  6
CONTINUOUS
 10
124.84200
 20
58.55200
 30
 0
 11
116.70000
 21
58.55000
  0
ARC
  8
Contour
 62
   7
 39
0.100
  6
CONTINUOUS
 10
116.70000
 20
57.05000
 30
 0
 40
1.50000
 50
89.99999
 51
179.96180
  0
LINE
  8
Contour
 62
   7
 39
0.100
  6
CONTINUOUS
 10
115.20000
 20
57.05100
 30
 0
 11
115.20000
 21
57.05100
  0
LINE
  8
Contour
 62
   7
 39
0.100
  6
CONTINUOUS
 10
115.20000
 20
57.05100
 30
 0
 11
115.20100
 21
38.93100
  0
ARC
  8
Contour
 62
   7
 39
0.100
  6
CONTINUOUS
 10
116.70050
 20
38.93050
 30
 0
 40
1.49950
 50
179.98091
 51
269.98088
  0
LINE
  8
Contour
 62
   7
 39
0.100
  6
CONTINUOUS
 10
116.70000
 20
37.43100
 30
 0
 11
116.70000
 21
37.43100
  0
LINE
  8
Contour
 62
   7
 39
0.100
  6
CONTINUOUS
 10
116.70000
 20
37.43100
 30
 0
 11
124.84100
 21
37.43100
  0
LINE
  8
Contour
 62
   7
 39
0.100
  6
CONTINUOUS
 10
124.84100
 20
37.43100
 30
 0
 11
124.84200
 21
20.15200
  0
LINE
  8
Contour
 62
   7
 39
0.100
  6
CONTINUOUS
 10
124.84200
 20
20.15200
 30
 0
 11
116.73900
 21
20.15000
  0
ARC
  8
Contour
 62
   7
 39
0.100
  6
CONTINUOUS
 10
116.73850
 20
18.65050
 30
 0
 40
1.49950
 50
89.98085
 51
179.86616
  0
LINE
  8
Contour
 62
   7
 39
0.100
  6
CONTINUOUS
 10
115.23900
 20
18.65400
 30
 0
 11
115.23900
 21
18.65400
  0
LINE
  8
Contour
 62
   7
 39
0.100
  6
CONTINUOUS
 10
115.23900
 20
18.65400
 30
 0
 11
115.20000
 21
0.00100
  0
LINE
  8
Contour
 62
   7
 39
0.100
  6
CONTINUOUS
 10
115.20000
 20
0.00100
 30
 0
 11
0.00100
 21
0.00000
  0
LINE
  8
Contour
 62
   7
 39
0.100
  6
CONTINUOUS
 10
0.00100
 20
0.00000
 30
 0
 11
0.00000
 21
19.19900
  0
LINE
  8
Contour
 62
   7
 39
0.100
  6
CONTINUOUS
 10
0.00000
 20
19.19900
 30
 0
 11
8.10000
 21
19.20100
  0
ARC
  8
Contour
 62
   7
 39
0.100
  6
CONTINUOUS
 10
8.10100
 20
20.70000
 30
 0
 40
1.49900
 50
269.96178
 51
360.00001
  0
LINE
  8
Contour
 62
   7
 39
0.100
  6
CONTINUOUS
 10
9.60000
 20
20.70000
 30
 0
 11
9.60000
 21
20.70000
  0
LINE
  8
Contour
 62
   7
 39
0.100
  6
CONTINUOUS
 10
9.60000
 20
20.70000
 30
 0
 11
9.59900
 21
36.90000
  0
ARC
  8
Contour
 62
   7
 39
0.100
  6
CONTINUOUS
 10
8.09950
 20
36.90050
 30
 0
 40
1.49950
 50
359.98090
 51
449.98090
  0
LINE
  8
Contour
 62
   7
 39
0.100
  6
CONTINUOUS
 10
8.10000
 20
38.40000
 30
 0
 11
8.10000
 21
38.40000
  0
LINE
  8
Contour
 62
   7
 39
0.100
  6
CONTINUOUS
 10
8.10000
 20
38.40000
 30
 0
 11
0.00100
 21
38.40000
  0
LINE
  8
Contour
 62
   7
 39
0.100
  6
CONTINUOUS
 10
0.00100
 20
38.40000
 30
 0
 11
0.00000
 21
57.59900
  0
LINE
  8
Contour
 62
   7
 39
0.100
  6
CONTINUOUS
 10
0.00000
 20
57.59900
 30
 0
 11
8.10000
 21
57.60100
  0
ARC
  8
Contour
 62
   7
 39
0.100
  6
CONTINUOUS
 10
8.10050
 20
59.10050
 30
 0
 40
1.49950
 50
269.98091
 51
359.98088
  0
LINE
  8
Contour
 62
   7
 39
0.100
  6
CONTINUOUS
 10
9.60000
 20
59.10000
 30
 0
 11
9.60000
 21
59.10000
  0
LINE
  8
Contour
 62
   7
 39
0.100
  6
CONTINUOUS
 10
9.60000
 20
59.10000
 30
 0
 11
9.59900
 21
75.30000
  0
ARC
  8
Contour
 62
   7
 39
0.100
  6
CONTINUOUS
 10
8.09950
 20
75.30050
 30
 0
 40
1.49950
 50
359.98090
 51
449.98090
  0
LINE
  8
Contour
 62
   7
 39
0.100
  6
CONTINUOUS
 10
8.10000
 20
76.80000
 30
 0
 11
8.10000
 21
76.80000
  0
LINE
  8
Contour
 62
   7
 39
0.100
  6
CONTINUOUS
 10
8.10000
 20
76.80000
 30
 0
 11
0.00100
 21
76.80000
  0
LINE
  8
Contour
 62
   7
 39
0.100
  6
CONTINUOUS
 10
0.00100
 20
76.80000
 30
 0
 11
0.00000
 21
95.99900
  0
LINE
  8
Contour
 62
   7
 39
0.100
  6
CONTINUOUS
 10
0.00000
 20
95.99900
 30
 0
 11
8.10000
 21
96.00100
  0
ARC
  8
Contour
 62
   7
 39
0.100
  6
CONTINUOUS
 10
8.10100
 20
97.50000
 30
 0
 40
1.49900
 50
269.96178
 51
360.00001
  0
LINE
  8
Contour
 62
   7
 39
0.100
  6
CONTINUOUS
 10
9.60000
 20
97.50000
 30
 0
 11
9.60000
 21
97.50000
  0
LINE
  8
Contour
 62
   7
 39
0.100
  6
CONTINUOUS
 10
9.60000
 20
97.50000
 30
 0
 11
9.59900
 21
113.70000
  0
ARC
  8
Contour
 62
   7
 39
0.100
  6
CONTINUOUS
 10
8.09950
 20
113.70050
 30
 0
 40
1.49950
 50
359.98090
 51
449.98090
  0
LINE
  8
Contour
 62
   7
 39
0.100
  6
CONTINUOUS
 10
8.10000
 20
115.20000
 30
 0
 11
8.10000
 21
115.20000
  0
LINE
  8
Contour
 62
   7
 39
0.100
  6
CONTINUOUS
 10
8.10000
 20
115.20000
 30
 0
 11
0.00100
 21
115.20000
  0
LINE
  8
Contour
 62
   7
 39
0.100
  6
CONTINUOUS
 10
0.00100
 20
115.20000
 30
 0
 11
0.00000
 21
134.39900
  0
LINE
  8
Contour
 62
   7
 39
0.100
  6
CONTINUOUS
 10
0.00000
 20
134.39900
 30
 0
 11
8.10000
 21
134.40100
  0
ARC
  8
Contour
 62
   7
 39
0.100
  6
CONTINUOUS
 10
8.10100
 20
135.90000
 30
 0
 40
1.49900
 50
269.96178
 51
360.00001
  0
LINE
  8
Contour
 62
   7
 39
0.100
  6
CONTINUOUS
 10
9.60000
 20
135.90000
 30
 0
 11
9.60000
 21
135.90000
  0
LINE
  8
Contour
 62
   7
 39
0.100
  6
CONTINUOUS
 10
9.60000
 20
135.90000
 30
 0
 11
9.59900
 21
152.10000
  0
ARC
  8
Contour
 62
   7
 39
0.100
  6
CONTINUOUS
 10
8.09950
 20
152.10050
 30
 0
 40
1.49950
 50
359.98090
 51
449.98090
  0
LINE
  8
Contour
 62
   7
 39
0.100
  6
CONTINUOUS
 10
8.10000
 20
153.60000
 30
 0
 11
8.10000
 21
153.60000
  0
LINE
  8
Contour
 62
   7
 39
0.100
  6
CONTINUOUS
 10
8.10000
 20
153.60000
 30
 0
 11
0.00100
 21
153.60000
  0
LINE
  8
Contour
 62
   7
 39
0.100
  6
CONTINUOUS
 10
0.00100
 20
153.60000
 30
 0
 11
0.00000
 21
172.79900
  0
LINE
  8
Contour
 62
   7
 39
0.100
  6
CONTINUOUS
 10
0.00000
 20
172.79900
 30
 0
 11
8.10600
 21
172.80100
  0
ARC
  8
Contour
 62
   7
 39
0.100
  6
CONTINUOUS
 10
8.10650
 20
174.30050
 30
 0
 40
1.49950
 50
269.98090
 51
359.98090
  0
LINE
  8
Contour
 62
   7
 39
0.100
  6
CONTINUOUS
 10
9.60600
 20
174.30000
 30
 0
 11
9.60600
 21
174.30000
  0
LINE
  8
Contour
 62
   7
 39
0.100
  6
CONTINUOUS
 10
9.60600
 20
174.30000
 30
 0
 11
9.60500
 21
190.50000
  0
ARC
  8
Contour
 62
   7
 39
0.100
  6
CONTINUOUS
 10
8.10550
 20
190.50050
 30
 0
 40
1.49950
 50
359.98090
 51
449.98090
  0
LINE
  8
Contour
 62
   7
 39
0.100
  6
CONTINUOUS
 10
8.10600
 20
192.00000
 30
 0
 11
8.10600
 21
192.00000
  0
LINE
  8
Contour
 62
   7
 39
0.100
  6
CONTINUOUS
 10
8.10600
 20
192.00000
 30
 0
 11
0.04300
 21
192.00000
  0
LINE
  8
Contour
 62
   7
 39
0.100
  6
CONTINUOUS
 10
0.04300
 20
192.00000
 30
 0
 11
0.04200
 21
211.19000
  0
LINE
  8
Contour
 62
   7
 39
0.100
  6
CONTINUOUS
 10
0.04200
 20
211.19000
 30
 0
 11
38.21200
 21
211.17600
  0
LINE
  8
Contour
 62
   7
 39
0.100
  6
CONTINUOUS
 10
38.21200
 20
211.17600
 30
 0
 11
115.19900
 21
211.20000
  0
LINE
  8
Contour
 62
   7
 39
0.100
  6
CONTINUOUS
 10
115.19900
 20
211.20000
 30
 0
 11
115.20100
 21
192.53100
  0
ARC
  8
Contour
 62
   7
 39
0.100
  6
CONTINUOUS
 10
116.70100
 20
192.53100
 30
 0
 40
1.50000
 50
179.99999
 51
269.96180
  0
LINE
  8
Contour
 62
   7
 39
0.100
  6
CONTINUOUS
 10
116.70000
 20
191.03100
 30
 0
 11
116.70000
 21
191.03100
  0
LINE
  8
Contour
 62
   7
 39
0.100
  6
CONTINUOUS
 10
116.70000
 20
191.03100
 30
 0
 11
124.79900
 21
191.03100
  0
LINE
  8
Engraving
 62
   153
 39
0.200
  6
CONTINUOUS
 10
17.64200
 20
135.99100
 30
 0
 11
20.84200
 21
132.79100
  0
LINE
  8
Engraving
 62
   153
 39
0.200
  6
CONTINUOUS
 10
20.84200
 20
135.99100
 30
 0
 11
17.64200
 21
132.79100
  0
LINE
  8
Engraving
 62
   153
 39
0.200
  6
CONTINUOUS
 10
17.64200
 20
78.39100
 30
 0
 11
20.84200
 21
75.19100
  0
LINE
  8
Engraving
 62
   153
 39
0.200
  6
CONTINUOUS
 10
20.84200
 20
78.39100
 30
 0
 11
17.64200
 21
75.19100
  0
LINE
  8
Engraving
 62
   153
 39
0.200
  6
CONTINUOUS
 10
17.64200
 20
20.79100
 30
 0
 11
20.84200
 21
17.59100
  0
LINE
  8
Engraving
 62
   153
 39
0.200
  6
CONTINUOUS
 10
20.84200
 20
20.79100
 30
 0
 11
17.64200
 21
17.59100
  0
LINE
  8
Engraving
 62
   153
 39
0.200
  6
CONTINUOUS
 10
18.60200
 20
193.59100
 30
 0
 11
21.80200
 21
190.39100
  0
LINE
  8
Engraving
 62
   153
 39
0.200
  6
CONTINUOUS
 10
21.80200
 20
193.59100
 30
 0
 11
18.60200
 21
190.39100
  0
LINE
  8
Engraving
 62
   153
 39
0.200
  6
CONTINUOUS
 10
104.04200
 20
193.59100
 30
 0
 11
107.24200
 21
190.39100
  0
LINE
  8
Engraving
 62
   153
 39
0.200
  6
CONTINUOUS
 10
107.24200
 20
193.59100
 30
 0
 11
104.04200
 21
190.39100
  0
LINE
  8
Engraving
 62
   153
 39
0.200
  6
CONTINUOUS
 10
104.04200
 20
135.99100
 30
 0
 11
107.24200
 21
132.79100
  0
LINE
  8
Engraving
 62
   153
 39
0.200
  6
CONTINUOUS
 10
107.24200
 20
135.99100
 30
 0
 11
104.04200
 21
132.79100
  0
LINE
  8
Engraving
 62
   153
 39
0.200
  6
CONTINUOUS
 10
104.04200
 20
78.39100
 30
 0
 11
107.24200
 21
75.19100
  0
LINE
  8
Engraving
 62
   153
 39
0.200
  6
CONTINUOUS
 10
107.24200
 20
78.39100
 30
 0
 11
104.04200
 21
75.19100
  0
LINE
  8
Engraving
 62
   153
 39
0.200
  6
CONTINUOUS
 10
104.04200
 20
20.79100
 30
 0
 11
107.24200
 21
17.59100
  0
LINE
  8
Engraving
 62
   153
 39
0.200
  6
CONTINUOUS
 10
107.24200
 20
20.79100
 30
 0
 11
104.04200
 21
17.59100
  0
CIRCLE
  8
Contour
 62
   7
 39
0.100
  6
CONTINUOUS
 10
20.24000
 20
192.00000
 30
 0
 40
1.55000
  0
CIRCLE
  8
Contour
 62
   7
 39
0.100
  6
CONTINUOUS
 10
105.62000
 20
192.00000
 30
 0
 40
1.55000
  0
CIRCLE
  8
Contour
 62
   7
 39
0.100
  6
CONTINUOUS
 10
19.22000
 20
134.38000
 30
 0
 40
1.55000
  0
CIRCLE
  8
Contour
 62
   7
 39
0.100
  6
CONTINUOUS
 10
105.62000
 20
134.38000
 30
 0
 40
1.55000
  0
CIRCLE
  8
Contour
 62
   7
 39
0.100
  6
CONTINUOUS
 10
19.24000
 20
76.76000
 30
 0
 40
1.55000
  0
CIRCLE
  8
Contour
 62
   7
 39
0.100
  6
CONTINUOUS
 10
105.64000
 20
76.74000
 30
 0
 40
1.55000
  0
CIRCLE
  8
Contour
 62
   7
 39
0.100
  6
CONTINUOUS
 10
19.26000
 20
19.14000
 30
 0
 40
1.55000
  0
CIRCLE
  8
Contour
 62
   7
 39
0.100
  6
CONTINUOUS
 10
105.62000
 20
19.12000
 30
 0
 40
1.55000
  0
ENDSEC
  0
EOF
