<svg id="Contour" xmlns="http://www.w3.org/2000/svg" viewBox="0 0 125.55 211.91"><defs><style>.cls-1{fill:none;stroke:#000;stroke-linecap:round;stroke-linejoin:round;stroke-width:0.71px;}</style></defs><g id="LINE"><line class="cls-1" x1="115.55" y1="39.3" x2="115.55" y2="39.3"/></g><g id="LINE-2" data-name="LINE"><line class="cls-1" x1="117.05" y1="58.92" x2="117.05" y2="58.92"/></g><g id="LINE-3" data-name="LINE"><line class="cls-1" x1="115.55" y1="77.7" x2="115.55" y2="77.7"/></g><g id="LINE-4" data-name="LINE"><line class="cls-1" x1="117.05" y1="97.32" x2="117.05" y2="97.32"/></g><g id="LINE-5" data-name="LINE"><line class="cls-1" x1="115.59" y1="116.1" x2="115.59" y2="116.1"/></g><g id="LINE-6" data-name="LINE"><line class="cls-1" x1="117.06" y1="135.72" x2="117.06" y2="135.72"/></g><g id="LINE-7" data-name="LINE"><line class="cls-1" x1="115.55" y1="154.5" x2="115.55" y2="154.5"/></g><g id="LINE-8" data-name="LINE"><line class="cls-1" x1="117.05" y1="174.12" x2="117.05" y2="174.12"/></g><g id="LINE-9" data-name="LINE"><line class="cls-1" x1="115.59" y1="192.9" x2="115.59" y2="192.9"/></g><g id="LINE-10" data-name="LINE"><line class="cls-1" x1="9.95" y1="190.85" x2="9.95" y2="190.85"/></g><g id="LINE-11" data-name="LINE"><line class="cls-1" x1="8.45" y1="173.15" x2="8.45" y2="173.15"/></g><g id="LINE-12" data-name="LINE"><line class="cls-1" x1="9.95" y1="152.45" x2="9.95" y2="152.45"/></g><g id="LINE-13" data-name="LINE"><line class="cls-1" x1="8.45" y1="134.75" x2="8.45" y2="134.75"/></g><g id="LINE-14" data-name="LINE"><line class="cls-1" x1="9.95" y1="114.05" x2="9.95" y2="114.05"/></g><g id="LINE-15" data-name="LINE"><line class="cls-1" x1="8.45" y1="96.35" x2="8.45" y2="96.35"/></g><g id="LINE-16" data-name="LINE"><line class="cls-1" x1="9.95" y1="75.65" x2="9.95" y2="75.65"/></g><g id="LINE-17" data-name="LINE"><line class="cls-1" x1="8.45" y1="57.95" x2="8.45" y2="57.95"/></g><g id="LINE-18" data-name="LINE"><line class="cls-1" x1="9.96" y1="37.25" x2="9.96" y2="37.25"/></g><g id="LINE-19" data-name="LINE"><line class="cls-1" x1="8.46" y1="19.55" x2="8.46" y2="19.55"/></g><g id="LWPOLYLINE"><path class="cls-1" d="M282.29,290.42l77,0v18.67a1.5,1.5,0,0,0,1.5,1.5h8.1v17.28h-8.1a1.5,1.5,0,0,0-1.5,1.5v18.12a1.5,1.5,0,0,0,1.5,1.5h8.1v17.28h-8.1a1.5,1.5,0,0,0-1.5,1.5v18.12a1.5,1.5,0,0,0,1.5,1.5h8.1v17.28h-8.06a1.5,1.5,0,0,0-1.5,1.5l0,18.12a1.5,1.5,0,0,0,1.5,1.5h8.14v17.28h-8.14a1.5,1.5,0,0,0-1.5,1.5v18.12a1.5,1.5,0,0,0,1.5,1.5h8.14v17.28h-8.1a1.5,1.5,0,0,0-1.5,1.5l0,18.65H244.08V482.4h8.1a1.5,1.5,0,0,0,1.5-1.5h0V464.7a1.5,1.5,0,0,0-1.5-1.5h-8.1V444h8.1a1.5,1.5,0,0,0,1.5-1.5V426.3a1.5,1.5,0,0,0-1.5-1.5h-8.1V405.6h8.1a1.5,1.5,0,0,0,1.5-1.5h0V387.9a1.5,1.5,0,0,0-1.5-1.5h-8.1V367.2h8.1a1.5,1.5,0,0,0,1.5-1.5h0V349.5a1.5,1.5,0,0,0-1.5-1.5h-8.1V328.8h8.11a1.51,1.51,0,0,0,1.5-1.5V311.1a1.5,1.5,0,0,0-1.49-1.5h-8.07V290.41Z" transform="translate(-243.72 -290.05)"/></g><g id="LINE-20" data-name="LINE"><line class="cls-1" x1="117.05" y1="20.52" x2="117.05" y2="20.52"/></g><g id="CIRCLE"><circle class="cls-1" cx="20.59" cy="19.55" r="1.55"/></g><g id="CIRCLE-2" data-name="CIRCLE"><circle class="cls-1" cx="105.97" cy="19.55" r="1.55"/></g><g id="CIRCLE-3" data-name="CIRCLE"><circle class="cls-1" cx="19.57" cy="77.17" r="1.55"/></g><g id="CIRCLE-4" data-name="CIRCLE"><circle class="cls-1" cx="105.97" cy="77.17" r="1.55"/></g><g id="CIRCLE-5" data-name="CIRCLE"><circle class="cls-1" cx="19.59" cy="134.79" r="1.55"/></g><g id="CIRCLE-6" data-name="CIRCLE"><circle class="cls-1" cx="105.99" cy="134.81" r="1.55"/></g><g id="CIRCLE-7" data-name="CIRCLE"><circle class="cls-1" cx="19.61" cy="192.41" r="1.55"/></g><g id="CIRCLE-8" data-name="CIRCLE"><circle class="cls-1" cx="105.97" cy="192.43" r="1.55"/></g><g id="LWPOLYLINE-2" data-name="LWPOLYLINE"><rect class="cls-1" x="70.17" y="175.74" width="14" height="14" rx="0.5"/></g><g id="LWPOLYLINE-3" data-name="LWPOLYLINE"><rect class="cls-1" x="60.57" y="156.59" width="14" height="14" rx="0.5"/></g><g id="LWPOLYLINE-4" data-name="LWPOLYLINE"><rect class="cls-1" x="79.77" y="194.94" width="14" height="14" rx="0.5"/></g><g id="LWPOLYLINE-5" data-name="LWPOLYLINE"><rect class="cls-1" x="22.17" y="156.54" width="14" height="14" rx="0.5"/></g><g id="LWPOLYLINE-6" data-name="LWPOLYLINE"><rect class="cls-1" x="108.57" y="175.76" width="14" height="14" rx="0.5"/></g><g id="LWPOLYLINE-7" data-name="LWPOLYLINE"><rect class="cls-1" x="89.35" y="137.36" width="14" height="14" rx="0.5"/></g><g id="LWPOLYLINE-8" data-name="LWPOLYLINE"><rect class="cls-1" x="31.77" y="175.74" width="14" height="14" rx="0.5"/></g><g id="LWPOLYLINE-9" data-name="LWPOLYLINE"><rect class="cls-1" x="98.97" y="156.54" width="14" height="14" rx="0.5"/></g><g id="LWPOLYLINE-10" data-name="LWPOLYLINE"><rect class="cls-1" x="70.15" y="137.34" width="14" height="14" rx="0.5"/></g><g id="LWPOLYLINE-11" data-name="LWPOLYLINE"><rect class="cls-1" x="51" y="175.76" width="14" height="14" rx="0.5"/></g><g id="LWPOLYLINE-12" data-name="LWPOLYLINE"><rect class="cls-1" x="12.62" y="137.36" width="14" height="14" rx="0.5"/></g><g id="LWPOLYLINE-13" data-name="LWPOLYLINE"><rect class="cls-1" x="31.77" y="137.36" width="14" height="14" rx="0.5"/></g><g id="LWPOLYLINE-14" data-name="LWPOLYLINE"><rect class="cls-1" x="79.77" y="118.16" width="14" height="14" rx="0.5"/></g><g id="LWPOLYLINE-15" data-name="LWPOLYLINE"><rect class="cls-1" x="41.35" y="118.14" width="14" height="14" rx="0.5"/></g><g id="LWPOLYLINE-16" data-name="LWPOLYLINE"><rect class="cls-1" x="60.57" y="118.16" width="14" height="14" rx="0.5"/></g><g id="LWPOLYLINE-17" data-name="LWPOLYLINE"><rect class="cls-1" x="98.97" y="118.14" width="14" height="14" rx="0.5"/></g><g id="LWPOLYLINE-18" data-name="LWPOLYLINE"><rect class="cls-1" x="89.35" y="175.74" width="14" height="14" rx="0.5"/></g><g id="LWPOLYLINE-19" data-name="LWPOLYLINE"><rect class="cls-1" x="41.35" y="79.74" width="14" height="14" rx="0.5"/></g><g id="LWPOLYLINE-20" data-name="LWPOLYLINE"><rect class="cls-1" x="12.55" y="98.94" width="14" height="14" rx="0.5"/></g><g id="LWPOLYLINE-21" data-name="LWPOLYLINE"><rect class="cls-1" x="22.17" y="79.79" width="14" height="14" rx="0.5"/></g><g id="LWPOLYLINE-22" data-name="LWPOLYLINE"><rect class="cls-1" x="2.97" y="79.76" width="14" height="14" rx="0.5"/></g><g id="LWPOLYLINE-23" data-name="LWPOLYLINE"><rect class="cls-1" x="98.97" y="79.76" width="14" height="14" rx="0.5"/></g><g id="LWPOLYLINE-24" data-name="LWPOLYLINE"><rect class="cls-1" x="89.4" y="60.54" width="14" height="14" rx="0.5"/></g><g id="LWPOLYLINE-25" data-name="LWPOLYLINE"><rect class="cls-1" x="79.77" y="156.56" width="14" height="14" rx="0.5"/></g><g id="LWPOLYLINE-26" data-name="LWPOLYLINE"><rect class="cls-1" x="98.95" y="41.36" width="14" height="14" rx="0.5"/></g><g id="LWPOLYLINE-27" data-name="LWPOLYLINE"><rect class="cls-1" x="41.35" y="156.54" width="14" height="14" rx="0.5"/></g><g id="LWPOLYLINE-28" data-name="LWPOLYLINE"><rect class="cls-1" x="79.75" y="79.76" width="14" height="14" rx="0.5"/></g><g id="LWPOLYLINE-29" data-name="LWPOLYLINE"><rect class="cls-1" x="79.8" y="41.36" width="14" height="14" rx="0.5"/></g><g id="LWPOLYLINE-30" data-name="LWPOLYLINE"><rect class="cls-1" x="108.57" y="60.56" width="14" height="14" rx="0.5"/></g><g id="LWPOLYLINE-31" data-name="LWPOLYLINE"><rect class="cls-1" x="22.2" y="41.34" width="14" height="14" rx="0.5"/></g><g id="LWPOLYLINE-32" data-name="LWPOLYLINE"><rect class="cls-1" x="98.95" y="194.94" width="14" height="14" rx="0.5"/></g><g id="LWPOLYLINE-33" data-name="LWPOLYLINE"><rect class="cls-1" x="50.82" y="22.19" width="14" height="14" rx="0.5"/></g><g id="LWPOLYLINE-34" data-name="LWPOLYLINE"><rect class="cls-1" x="12.57" y="60.59" width="14" height="14" rx="0.5"/></g><g id="LWPOLYLINE-35" data-name="LWPOLYLINE"><rect class="cls-1" x="89.35" y="98.94" width="14" height="14" rx="0.5"/></g><g id="LWPOLYLINE-36" data-name="LWPOLYLINE"><rect class="cls-1" x="60.52" y="79.79" width="14" height="14" rx="0.5"/></g><g id="LWPOLYLINE-37" data-name="LWPOLYLINE"><rect class="cls-1" x="70.15" y="98.99" width="14" height="14" rx="0.5"/></g><g id="LWPOLYLINE-38" data-name="LWPOLYLINE"><rect class="cls-1" x="89.12" y="22.16" width="14" height="14" rx="0.5"/></g><g id="LWPOLYLINE-39" data-name="LWPOLYLINE"><rect class="cls-1" x="2.94" y="2.97" width="14" height="14" rx="0.5"/></g><g id="LWPOLYLINE-40" data-name="LWPOLYLINE"><rect class="cls-1" x="12.52" y="22.19" width="14" height="14" rx="0.5"/></g><g id="LWPOLYLINE-41" data-name="LWPOLYLINE"><rect class="cls-1" x="31.64" y="22.15" width="14" height="14" rx="0.5"/></g><g id="LWPOLYLINE-42" data-name="LWPOLYLINE"><rect class="cls-1" x="69.92" y="22.15" width="14" height="14" rx="0.5"/></g><g id="LWPOLYLINE-43" data-name="LWPOLYLINE"><rect class="cls-1" x="22.16" y="2.95" width="14" height="14" rx="0.5"/></g><g id="LWPOLYLINE-44" data-name="LWPOLYLINE"><rect class="cls-1" x="2.96" y="41.35" width="14" height="14" rx="0.5"/></g><g id="LWPOLYLINE-45" data-name="LWPOLYLINE"><rect class="cls-1" x="41.36" y="41.35" width="14" height="14" rx="0.5"/></g><g id="LWPOLYLINE-46" data-name="LWPOLYLINE"><rect class="cls-1" x="60.68" y="41.35" width="14" height="14" rx="0.5"/></g><g id="LWPOLYLINE-47" data-name="LWPOLYLINE"><rect class="cls-1" x="70.2" y="60.51" width="14" height="14" rx="0.5"/></g><g id="LWPOLYLINE-48" data-name="LWPOLYLINE"><rect class="cls-1" x="51" y="60.63" width="14" height="14" rx="0.5"/></g><g id="LWPOLYLINE-49" data-name="LWPOLYLINE"><rect class="cls-1" x="31.8" y="60.51" width="14" height="14" rx="0.5"/></g><g id="LWPOLYLINE-50" data-name="LWPOLYLINE"><rect class="cls-1" x="31.72" y="98.99" width="14" height="14" rx="0.5"/></g><g id="LWPOLYLINE-51" data-name="LWPOLYLINE"><rect class="cls-1" x="50.96" y="98.95" width="14" height="14" rx="0.5"/></g><g id="LWPOLYLINE-52" data-name="LWPOLYLINE"><rect class="cls-1" x="108.48" y="98.91" width="14" height="14" rx="0.5"/></g><g id="LWPOLYLINE-53" data-name="LWPOLYLINE"><rect class="cls-1" x="22.12" y="118.19" width="14" height="14" rx="0.5"/></g><g id="LWPOLYLINE-54" data-name="LWPOLYLINE"><rect class="cls-1" x="2.96" y="118.15" width="14" height="14" rx="0.5"/></g><g id="LWPOLYLINE-55" data-name="LWPOLYLINE"><rect class="cls-1" x="51" y="137.31" width="14" height="14" rx="0.5"/></g><g id="LWPOLYLINE-56" data-name="LWPOLYLINE"><rect class="cls-1" x="2.92" y="156.59" width="14" height="14" rx="0.5"/></g><g id="LWPOLYLINE-57" data-name="LWPOLYLINE"><rect class="cls-1" x="108.52" y="137.39" width="14" height="14" rx="0.5"/></g></svg>